G04 #@! TF.FileFunction,Soldermask,Top*
%FSLAX46Y46*%
G04 Gerber Fmt 4.6, Leading zero omitted, Abs format (unit mm)*
G04 Created by KiCad (PCBNEW 4.0.6) date Sunday, July 23, 2017 'AMt' 01:12:39 AM*
%MOMM*%
%LPD*%
G01*
G04 APERTURE LIST*
%ADD10C,0.100000*%
%ADD11O,1.924000X2.300000*%
%ADD12O,2.300000X1.924000*%
%ADD13R,2.800000X2.000000*%
%ADD14O,2.800000X2.000000*%
%ADD15R,1.750000X0.800000*%
%ADD16O,1.350000X1.650000*%
%ADD17O,1.950000X1.400000*%
%ADD18C,3.400000*%
G04 APERTURE END LIST*
D10*
D11*
X165172000Y-79627000D03*
D12*
X160172000Y-82127000D03*
X160172000Y-77127000D03*
X160172000Y-84627000D03*
X160172000Y-74627000D03*
D13*
X141772000Y-84327000D03*
D14*
X134152000Y-76707000D03*
X141772000Y-81787000D03*
X134152000Y-79247000D03*
X141772000Y-79247000D03*
X134152000Y-81787000D03*
X141772000Y-76707000D03*
X134152000Y-84327000D03*
D15*
X114822000Y-78227000D03*
X114822000Y-78877000D03*
X114822000Y-79527000D03*
X114822000Y-80177000D03*
X114822000Y-80827000D03*
D16*
X114822000Y-77027000D03*
X114822000Y-82027000D03*
D17*
X112122000Y-76027000D03*
X112122000Y-83027000D03*
D18*
X118172000Y-97927000D03*
X123172000Y-97427000D03*
X118072000Y-115727000D03*
X123072000Y-115227000D03*
X137372000Y-98027000D03*
X142372000Y-97527000D03*
X137372000Y-115727000D03*
X142372000Y-115227000D03*
X156472000Y-98027000D03*
X161472000Y-97527000D03*
X156472000Y-115727000D03*
X161472000Y-115227000D03*
D10*
G36*
X111508940Y-93825880D02*
X111508940Y-91028120D01*
X115409060Y-91426900D01*
X115409060Y-93427100D01*
X111508940Y-93825880D01*
X111508940Y-93825880D01*
G37*
G36*
X120235060Y-91028120D02*
X120235060Y-93825880D01*
X116334940Y-93427100D01*
X116334940Y-91426900D01*
X120235060Y-91028120D01*
X120235060Y-91028120D01*
G37*
G36*
X129535060Y-90828120D02*
X129535060Y-93625880D01*
X125634940Y-93227100D01*
X125634940Y-91226900D01*
X129535060Y-90828120D01*
X129535060Y-90828120D01*
G37*
G36*
X120808940Y-93625880D02*
X120808940Y-90828120D01*
X124709060Y-91226900D01*
X124709060Y-93227100D01*
X120808940Y-93625880D01*
X120808940Y-93625880D01*
G37*
G36*
X130008940Y-93525880D02*
X130008940Y-90728120D01*
X133909060Y-91126900D01*
X133909060Y-93127100D01*
X130008940Y-93525880D01*
X130008940Y-93525880D01*
G37*
G36*
X138735060Y-90728120D02*
X138735060Y-93525880D01*
X134834940Y-93127100D01*
X134834940Y-91126900D01*
X138735060Y-90728120D01*
X138735060Y-90728120D01*
G37*
G36*
X139708940Y-93625880D02*
X139708940Y-90828120D01*
X143609060Y-91226900D01*
X143609060Y-93227100D01*
X139708940Y-93625880D01*
X139708940Y-93625880D01*
G37*
G36*
X148435060Y-90828120D02*
X148435060Y-93625880D01*
X144534940Y-93227100D01*
X144534940Y-91226900D01*
X148435060Y-90828120D01*
X148435060Y-90828120D01*
G37*
G36*
X149308940Y-93625880D02*
X149308940Y-90828120D01*
X153209060Y-91226900D01*
X153209060Y-93227100D01*
X149308940Y-93625880D01*
X149308940Y-93625880D01*
G37*
G36*
X158035060Y-90828120D02*
X158035060Y-93625880D01*
X154134940Y-93227100D01*
X154134940Y-91226900D01*
X158035060Y-90828120D01*
X158035060Y-90828120D01*
G37*
G36*
X158908940Y-93725880D02*
X158908940Y-90928120D01*
X162809060Y-91326900D01*
X162809060Y-93327100D01*
X158908940Y-93725880D01*
X158908940Y-93725880D01*
G37*
G36*
X167635060Y-90928120D02*
X167635060Y-93725880D01*
X163734940Y-93327100D01*
X163734940Y-91326900D01*
X167635060Y-90928120D01*
X167635060Y-90928120D01*
G37*
M02*
