%FSLAX45Y45*%
G04 Gerber Fmt 4.5, Leading zero omitted, Abs format (unit mm)*
G04 Created by KiCad (PCBNEW 4.0.6) date Sunday, July 23, 2017 'AMt' 01:21:17 AM*
%MOMM*%
%LPD*%
G01*
G04 APERTURE LIST*
%ADD10C,0.127000*%
%ADD11C,0.150000*%
%ADD12C,0.200000*%
%ADD13C,0.300000*%
G04 APERTURE END LIST*
D10*
D11*
X16967200Y-8162700D02*
X16967200Y-13102700D01*
X16847200Y-8162700D02*
X16967200Y-8162700D01*
X16847200Y-7762700D02*
X16847200Y-8162700D01*
X16967200Y-7762700D02*
X16847200Y-7762700D01*
X16967200Y-7352700D02*
X16967200Y-7762700D01*
X10987200Y-13102700D02*
X16967200Y-13102700D01*
X10987200Y-7152700D02*
X10987200Y-13102700D01*
X16967200Y-7152700D02*
X10987200Y-7152700D01*
X16967200Y-7352700D02*
X16967200Y-7152700D01*
D12*
X12217200Y-8422700D02*
X12257200Y-8462700D01*
X12257200Y-8422700D02*
X12217200Y-8462700D01*
X13187200Y-8962700D02*
X13227200Y-9002700D01*
X13227200Y-8962700D02*
X13187200Y-9002700D01*
X15107200Y-8972700D02*
X15147200Y-9012700D01*
X15147200Y-8972700D02*
X15107200Y-9012700D01*
X11237200Y-7602700D02*
G75*
G03X11237200Y-7602700I-25000J0D01*
G01*
X11179700Y-7617700D02*
X11244700Y-7617700D01*
X11179700Y-7587700D02*
X11244700Y-7587700D01*
X11244700Y-7617700D02*
G75*
G03X11244700Y-7587700I0J15000D01*
G01*
X11179700Y-7587700D02*
G75*
G03X11179700Y-7617700I0J-15000D01*
G01*
X11237200Y-8302700D02*
G75*
G03X11237200Y-8302700I-25000J0D01*
G01*
X11179700Y-8317700D02*
X11244700Y-8317700D01*
X11179700Y-8287700D02*
X11244700Y-8287700D01*
X11244700Y-8317700D02*
G75*
G03X11244700Y-8287700I0J15000D01*
G01*
X11179700Y-8287700D02*
G75*
G03X11179700Y-8317700I0J-15000D01*
G01*
X11482200Y-7675200D02*
X11482200Y-7730200D01*
X11454700Y-7702700D02*
X11509700Y-7702700D01*
X11464700Y-7687700D02*
X11464700Y-7717700D01*
X11499700Y-7687700D02*
X11499700Y-7717700D01*
X11464700Y-7717700D02*
G75*
G03X11499700Y-7717700I17500J0D01*
G01*
X11499700Y-7687700D02*
G75*
G03X11464700Y-7687700I-17500J0D01*
G01*
X11482200Y-8175200D02*
X11482200Y-8230200D01*
X11454700Y-8202700D02*
X11509700Y-8202700D01*
X11464700Y-8187700D02*
X11464700Y-8217700D01*
X11499700Y-8187700D02*
X11499700Y-8217700D01*
X11464700Y-8217700D02*
G75*
G03X11499700Y-8217700I17500J0D01*
G01*
X11499700Y-8187700D02*
G75*
G03X11464700Y-8187700I-17500J0D01*
G01*
X16044141Y-7489641D02*
X16044141Y-7435759D01*
X15990259Y-7435759D01*
X15990259Y-7489641D01*
X16044141Y-7489641D01*
X16039100Y-7434600D02*
X15995300Y-7434600D01*
X16039100Y-7490800D02*
X15995300Y-7490800D01*
X15995300Y-7434600D02*
G75*
G03X15995300Y-7490800I0J-28100D01*
G01*
X16039100Y-7490800D02*
G75*
G03X16039100Y-7434600I0J28100D01*
G01*
X16044141Y-7739641D02*
X16044141Y-7685759D01*
X15990259Y-7685759D01*
X15990259Y-7739641D01*
X16044141Y-7739641D01*
X16039100Y-7684600D02*
X15995300Y-7684600D01*
X16039100Y-7740800D02*
X15995300Y-7740800D01*
X15995300Y-7684600D02*
G75*
G03X15995300Y-7740800I0J-28100D01*
G01*
X16039100Y-7740800D02*
G75*
G03X16039100Y-7684600I0J28100D01*
G01*
X16044141Y-8239641D02*
X16044141Y-8185759D01*
X15990259Y-8185759D01*
X15990259Y-8239641D01*
X16044141Y-8239641D01*
X16039100Y-8184600D02*
X15995300Y-8184600D01*
X16039100Y-8240800D02*
X15995300Y-8240800D01*
X15995300Y-8184600D02*
G75*
G03X15995300Y-8240800I0J-28100D01*
G01*
X16039100Y-8240800D02*
G75*
G03X16039100Y-8184600I0J28100D01*
G01*
X16044141Y-8489641D02*
X16044141Y-8435759D01*
X15990259Y-8435759D01*
X15990259Y-8489641D01*
X16044141Y-8489641D01*
X16039100Y-8434600D02*
X15995300Y-8434600D01*
X16039100Y-8490800D02*
X15995300Y-8490800D01*
X15995300Y-8434600D02*
G75*
G03X15995300Y-8490800I0J-28100D01*
G01*
X16039100Y-8490800D02*
G75*
G03X16039100Y-8434600I0J28100D01*
G01*
X16544141Y-7989641D02*
X16544141Y-7935759D01*
X16490259Y-7935759D01*
X16490259Y-7989641D01*
X16544141Y-7989641D01*
X16545300Y-7984600D02*
X16545300Y-7940800D01*
X16489100Y-7984600D02*
X16489100Y-7940800D01*
X16545300Y-7940800D02*
G75*
G03X16489100Y-7940800I-28100J0D01*
G01*
X16489100Y-7984600D02*
G75*
G03X16545300Y-7984600I28100J0D01*
G01*
X13415200Y-7710700D02*
X13455200Y-7670700D01*
X13415200Y-7630700D01*
X13375200Y-7670700D01*
X13415200Y-7710700D01*
X13415200Y-7964700D02*
X13455200Y-7924700D01*
X13415200Y-7884700D01*
X13375200Y-7924700D01*
X13415200Y-7964700D01*
X13415200Y-8218700D02*
X13455200Y-8178700D01*
X13415200Y-8138700D01*
X13375200Y-8178700D01*
X13415200Y-8218700D01*
X13415200Y-8472700D02*
X13455200Y-8432700D01*
X13415200Y-8392700D01*
X13375200Y-8432700D01*
X13415200Y-8472700D01*
X14177200Y-7710700D02*
X14217200Y-7670700D01*
X14177200Y-7630700D01*
X14137200Y-7670700D01*
X14177200Y-7710700D01*
X14177200Y-7964700D02*
X14217200Y-7924700D01*
X14177200Y-7884700D01*
X14137200Y-7924700D01*
X14177200Y-7964700D01*
X14177200Y-8218700D02*
X14217200Y-8178700D01*
X14177200Y-8138700D01*
X14137200Y-8178700D01*
X14177200Y-8218700D01*
X14177200Y-8472700D02*
X14217200Y-8432700D01*
X14177200Y-8392700D01*
X14137200Y-8432700D01*
X14177200Y-8472700D01*
X11732200Y-11497700D02*
X11882200Y-11647700D01*
X11882200Y-11497700D02*
X11732200Y-11647700D01*
X11882200Y-11572700D02*
G75*
G03X11882200Y-11572700I-75000J0D01*
G01*
X11742200Y-9717700D02*
X11892200Y-9867700D01*
X11892200Y-9717700D02*
X11742200Y-9867700D01*
X11892200Y-9792700D02*
G75*
G03X11892200Y-9792700I-75000J0D01*
G01*
X12232200Y-11447700D02*
X12382200Y-11597700D01*
X12382200Y-11447700D02*
X12232200Y-11597700D01*
X12382200Y-11522700D02*
G75*
G03X12382200Y-11522700I-75000J0D01*
G01*
X12242200Y-9667700D02*
X12392200Y-9817700D01*
X12392200Y-9667700D02*
X12242200Y-9817700D01*
X12392200Y-9742700D02*
G75*
G03X12392200Y-9742700I-75000J0D01*
G01*
X13662200Y-9727700D02*
X13812200Y-9877700D01*
X13812200Y-9727700D02*
X13662200Y-9877700D01*
X13812200Y-9802700D02*
G75*
G03X13812200Y-9802700I-75000J0D01*
G01*
X13662200Y-11497700D02*
X13812200Y-11647700D01*
X13812200Y-11497700D02*
X13662200Y-11647700D01*
X13812200Y-11572700D02*
G75*
G03X13812200Y-11572700I-75000J0D01*
G01*
X14162200Y-9677700D02*
X14312200Y-9827700D01*
X14312200Y-9677700D02*
X14162200Y-9827700D01*
X14312200Y-9752700D02*
G75*
G03X14312200Y-9752700I-75000J0D01*
G01*
X14162200Y-11447700D02*
X14312200Y-11597700D01*
X14312200Y-11447700D02*
X14162200Y-11597700D01*
X14312200Y-11522700D02*
G75*
G03X14312200Y-11522700I-75000J0D01*
G01*
X15572200Y-9727700D02*
X15722200Y-9877700D01*
X15722200Y-9727700D02*
X15572200Y-9877700D01*
X15722200Y-9802700D02*
G75*
G03X15722200Y-9802700I-75000J0D01*
G01*
X15572200Y-11497700D02*
X15722200Y-11647700D01*
X15722200Y-11497700D02*
X15572200Y-11647700D01*
X15722200Y-11572700D02*
G75*
G03X15722200Y-11572700I-75000J0D01*
G01*
X16072200Y-9677700D02*
X16222200Y-9827700D01*
X16222200Y-9677700D02*
X16072200Y-9827700D01*
X16222200Y-9752700D02*
G75*
G03X16222200Y-9752700I-75000J0D01*
G01*
X16072200Y-11447700D02*
X16222200Y-11597700D01*
X16222200Y-11447700D02*
X16072200Y-11597700D01*
X16222200Y-11522700D02*
G75*
G03X16222200Y-11522700I-75000J0D01*
G01*
D13*
X11251128Y-13575914D02*
X11251128Y-13275914D01*
X11322557Y-13275914D01*
X11365414Y-13290200D01*
X11393986Y-13318771D01*
X11408271Y-13347343D01*
X11422557Y-13404486D01*
X11422557Y-13447343D01*
X11408271Y-13504486D01*
X11393986Y-13533057D01*
X11365414Y-13561629D01*
X11322557Y-13575914D01*
X11251128Y-13575914D01*
X11551128Y-13575914D02*
X11551128Y-13375914D01*
X11551128Y-13433057D02*
X11565414Y-13404486D01*
X11579700Y-13390200D01*
X11608271Y-13375914D01*
X11636843Y-13375914D01*
X11736843Y-13575914D02*
X11736843Y-13375914D01*
X11736843Y-13275914D02*
X11722557Y-13290200D01*
X11736843Y-13304486D01*
X11751128Y-13290200D01*
X11736843Y-13275914D01*
X11736843Y-13304486D01*
X11922557Y-13575914D02*
X11893986Y-13561629D01*
X11879700Y-13533057D01*
X11879700Y-13275914D01*
X12079700Y-13575914D02*
X12051128Y-13561629D01*
X12036843Y-13533057D01*
X12036843Y-13275914D01*
X12422557Y-13575914D02*
X12422557Y-13275914D01*
X12522557Y-13490200D01*
X12622557Y-13275914D01*
X12622557Y-13575914D01*
X12893986Y-13575914D02*
X12893986Y-13418771D01*
X12879700Y-13390200D01*
X12851128Y-13375914D01*
X12793986Y-13375914D01*
X12765414Y-13390200D01*
X12893986Y-13561629D02*
X12865414Y-13575914D01*
X12793986Y-13575914D01*
X12765414Y-13561629D01*
X12751128Y-13533057D01*
X12751128Y-13504486D01*
X12765414Y-13475914D01*
X12793986Y-13461629D01*
X12865414Y-13461629D01*
X12893986Y-13447343D01*
X13036843Y-13375914D02*
X13036843Y-13675914D01*
X13036843Y-13390200D02*
X13065414Y-13375914D01*
X13122557Y-13375914D01*
X13151128Y-13390200D01*
X13165414Y-13404486D01*
X13179700Y-13433057D01*
X13179700Y-13518771D01*
X13165414Y-13547343D01*
X13151128Y-13561629D01*
X13122557Y-13575914D01*
X13065414Y-13575914D01*
X13036843Y-13561629D01*
X13308271Y-13547343D02*
X13322557Y-13561629D01*
X13308271Y-13575914D01*
X13293986Y-13561629D01*
X13308271Y-13547343D01*
X13308271Y-13575914D01*
X13308271Y-13390200D02*
X13322557Y-13404486D01*
X13308271Y-13418771D01*
X13293986Y-13404486D01*
X13308271Y-13390200D01*
X13308271Y-13418771D01*
X10939700Y-14050200D02*
X10979700Y-14090200D01*
X10979700Y-14050200D02*
X10939700Y-14090200D01*
X11308271Y-13905914D02*
X11336843Y-13905914D01*
X11365414Y-13920200D01*
X11379700Y-13934486D01*
X11393986Y-13963057D01*
X11408271Y-14020200D01*
X11408271Y-14091629D01*
X11393986Y-14148771D01*
X11379700Y-14177343D01*
X11365414Y-14191629D01*
X11336843Y-14205914D01*
X11308271Y-14205914D01*
X11279700Y-14191629D01*
X11265414Y-14177343D01*
X11251128Y-14148771D01*
X11236843Y-14091629D01*
X11236843Y-14020200D01*
X11251128Y-13963057D01*
X11265414Y-13934486D01*
X11279700Y-13920200D01*
X11308271Y-13905914D01*
X11536843Y-14177343D02*
X11551128Y-14191629D01*
X11536843Y-14205914D01*
X11522557Y-14191629D01*
X11536843Y-14177343D01*
X11536843Y-14205914D01*
X11808271Y-14005914D02*
X11808271Y-14205914D01*
X11736843Y-13891629D02*
X11665414Y-14105914D01*
X11851128Y-14105914D01*
X12022557Y-13905914D02*
X12051128Y-13905914D01*
X12079700Y-13920200D01*
X12093986Y-13934486D01*
X12108271Y-13963057D01*
X12122557Y-14020200D01*
X12122557Y-14091629D01*
X12108271Y-14148771D01*
X12093986Y-14177343D01*
X12079700Y-14191629D01*
X12051128Y-14205914D01*
X12022557Y-14205914D01*
X11993986Y-14191629D01*
X11979700Y-14177343D01*
X11965414Y-14148771D01*
X11951128Y-14091629D01*
X11951128Y-14020200D01*
X11965414Y-13963057D01*
X11979700Y-13934486D01*
X11993986Y-13920200D01*
X12022557Y-13905914D01*
X12251128Y-14205914D02*
X12251128Y-14005914D01*
X12251128Y-14034486D02*
X12265414Y-14020200D01*
X12293986Y-14005914D01*
X12336843Y-14005914D01*
X12365414Y-14020200D01*
X12379700Y-14048771D01*
X12379700Y-14205914D01*
X12379700Y-14048771D02*
X12393986Y-14020200D01*
X12422557Y-14005914D01*
X12465414Y-14005914D01*
X12493986Y-14020200D01*
X12508271Y-14048771D01*
X12508271Y-14205914D01*
X12651128Y-14205914D02*
X12651128Y-14005914D01*
X12651128Y-14034486D02*
X12665414Y-14020200D01*
X12693986Y-14005914D01*
X12736843Y-14005914D01*
X12765414Y-14020200D01*
X12779700Y-14048771D01*
X12779700Y-14205914D01*
X12779700Y-14048771D02*
X12793986Y-14020200D01*
X12822557Y-14005914D01*
X12865414Y-14005914D01*
X12893986Y-14020200D01*
X12908271Y-14048771D01*
X12908271Y-14205914D01*
X13493986Y-13891629D02*
X13236843Y-14277343D01*
X13879700Y-13905914D02*
X13908271Y-13905914D01*
X13936843Y-13920200D01*
X13951128Y-13934486D01*
X13965414Y-13963057D01*
X13979700Y-14020200D01*
X13979700Y-14091629D01*
X13965414Y-14148771D01*
X13951128Y-14177343D01*
X13936843Y-14191629D01*
X13908271Y-14205914D01*
X13879700Y-14205914D01*
X13851128Y-14191629D01*
X13836843Y-14177343D01*
X13822557Y-14148771D01*
X13808271Y-14091629D01*
X13808271Y-14020200D01*
X13822557Y-13963057D01*
X13836843Y-13934486D01*
X13851128Y-13920200D01*
X13879700Y-13905914D01*
X14108271Y-14177343D02*
X14122557Y-14191629D01*
X14108271Y-14205914D01*
X14093986Y-14191629D01*
X14108271Y-14177343D01*
X14108271Y-14205914D01*
X14308271Y-13905914D02*
X14336843Y-13905914D01*
X14365414Y-13920200D01*
X14379700Y-13934486D01*
X14393985Y-13963057D01*
X14408271Y-14020200D01*
X14408271Y-14091629D01*
X14393985Y-14148771D01*
X14379700Y-14177343D01*
X14365414Y-14191629D01*
X14336843Y-14205914D01*
X14308271Y-14205914D01*
X14279700Y-14191629D01*
X14265414Y-14177343D01*
X14251128Y-14148771D01*
X14236843Y-14091629D01*
X14236843Y-14020200D01*
X14251128Y-13963057D01*
X14265414Y-13934486D01*
X14279700Y-13920200D01*
X14308271Y-13905914D01*
X14693985Y-14205914D02*
X14522557Y-14205914D01*
X14608271Y-14205914D02*
X14608271Y-13905914D01*
X14579700Y-13948771D01*
X14551128Y-13977343D01*
X14522557Y-13991629D01*
X14951128Y-13905914D02*
X14893985Y-13905914D01*
X14865414Y-13920200D01*
X14851128Y-13934486D01*
X14822557Y-13977343D01*
X14808271Y-14034486D01*
X14808271Y-14148771D01*
X14822557Y-14177343D01*
X14836843Y-14191629D01*
X14865414Y-14205914D01*
X14922557Y-14205914D01*
X14951128Y-14191629D01*
X14965414Y-14177343D01*
X14979700Y-14148771D01*
X14979700Y-14077343D01*
X14965414Y-14048771D01*
X14951128Y-14034486D01*
X14922557Y-14020200D01*
X14865414Y-14020200D01*
X14836843Y-14034486D01*
X14822557Y-14048771D01*
X14808271Y-14077343D01*
X15093986Y-13905914D02*
X15093986Y-13963057D01*
X15208271Y-13905914D02*
X15208271Y-13963057D01*
X15651128Y-14320200D02*
X15636843Y-14305914D01*
X15608271Y-14263057D01*
X15593985Y-14234486D01*
X15579700Y-14191629D01*
X15565414Y-14120200D01*
X15565414Y-14063057D01*
X15579700Y-13991629D01*
X15593985Y-13948771D01*
X15608271Y-13920200D01*
X15636843Y-13877343D01*
X15651128Y-13863057D01*
X15736843Y-13905914D02*
X15922557Y-13905914D01*
X15822557Y-14020200D01*
X15865414Y-14020200D01*
X15893985Y-14034486D01*
X15908271Y-14048771D01*
X15922557Y-14077343D01*
X15922557Y-14148771D01*
X15908271Y-14177343D01*
X15893985Y-14191629D01*
X15865414Y-14205914D01*
X15779700Y-14205914D01*
X15751128Y-14191629D01*
X15736843Y-14177343D01*
X16279700Y-14205914D02*
X16279700Y-13905914D01*
X16408271Y-14205914D02*
X16408271Y-14048771D01*
X16393985Y-14020200D01*
X16365414Y-14005914D01*
X16322557Y-14005914D01*
X16293985Y-14020200D01*
X16279700Y-14034486D01*
X16593985Y-14205914D02*
X16565414Y-14191629D01*
X16551128Y-14177343D01*
X16536843Y-14148771D01*
X16536843Y-14063057D01*
X16551128Y-14034486D01*
X16565414Y-14020200D01*
X16593985Y-14005914D01*
X16636843Y-14005914D01*
X16665414Y-14020200D01*
X16679700Y-14034486D01*
X16693985Y-14063057D01*
X16693985Y-14148771D01*
X16679700Y-14177343D01*
X16665414Y-14191629D01*
X16636843Y-14205914D01*
X16593985Y-14205914D01*
X16865414Y-14205914D02*
X16836843Y-14191629D01*
X16822557Y-14163057D01*
X16822557Y-13905914D01*
X17093986Y-14191629D02*
X17065414Y-14205914D01*
X17008271Y-14205914D01*
X16979700Y-14191629D01*
X16965414Y-14163057D01*
X16965414Y-14048771D01*
X16979700Y-14020200D01*
X17008271Y-14005914D01*
X17065414Y-14005914D01*
X17093986Y-14020200D01*
X17108271Y-14048771D01*
X17108271Y-14077343D01*
X16965414Y-14105914D01*
X17222557Y-14191629D02*
X17251129Y-14205914D01*
X17308271Y-14205914D01*
X17336843Y-14191629D01*
X17351129Y-14163057D01*
X17351129Y-14148771D01*
X17336843Y-14120200D01*
X17308271Y-14105914D01*
X17265414Y-14105914D01*
X17236843Y-14091629D01*
X17222557Y-14063057D01*
X17222557Y-14048771D01*
X17236843Y-14020200D01*
X17265414Y-14005914D01*
X17308271Y-14005914D01*
X17336843Y-14020200D01*
X17451128Y-14320200D02*
X17465414Y-14305914D01*
X17493986Y-14263057D01*
X17508271Y-14234486D01*
X17522557Y-14191629D01*
X17536843Y-14120200D01*
X17536843Y-14063057D01*
X17522557Y-13991629D01*
X17508271Y-13948771D01*
X17493986Y-13920200D01*
X17465414Y-13877343D01*
X17451128Y-13863057D01*
X10979700Y-14466200D02*
G75*
G03X10979700Y-14466200I-25000J0D01*
G01*
X11308271Y-14301914D02*
X11336843Y-14301914D01*
X11365414Y-14316200D01*
X11379700Y-14330486D01*
X11393986Y-14359057D01*
X11408271Y-14416200D01*
X11408271Y-14487629D01*
X11393986Y-14544771D01*
X11379700Y-14573343D01*
X11365414Y-14587629D01*
X11336843Y-14601914D01*
X11308271Y-14601914D01*
X11279700Y-14587629D01*
X11265414Y-14573343D01*
X11251128Y-14544771D01*
X11236843Y-14487629D01*
X11236843Y-14416200D01*
X11251128Y-14359057D01*
X11265414Y-14330486D01*
X11279700Y-14316200D01*
X11308271Y-14301914D01*
X11536843Y-14573343D02*
X11551128Y-14587629D01*
X11536843Y-14601914D01*
X11522557Y-14587629D01*
X11536843Y-14573343D01*
X11536843Y-14601914D01*
X11822557Y-14301914D02*
X11679700Y-14301914D01*
X11665414Y-14444771D01*
X11679700Y-14430486D01*
X11708271Y-14416200D01*
X11779700Y-14416200D01*
X11808271Y-14430486D01*
X11822557Y-14444771D01*
X11836843Y-14473343D01*
X11836843Y-14544771D01*
X11822557Y-14573343D01*
X11808271Y-14587629D01*
X11779700Y-14601914D01*
X11708271Y-14601914D01*
X11679700Y-14587629D01*
X11665414Y-14573343D01*
X12022557Y-14301914D02*
X12051128Y-14301914D01*
X12079700Y-14316200D01*
X12093986Y-14330486D01*
X12108271Y-14359057D01*
X12122557Y-14416200D01*
X12122557Y-14487629D01*
X12108271Y-14544771D01*
X12093986Y-14573343D01*
X12079700Y-14587629D01*
X12051128Y-14601914D01*
X12022557Y-14601914D01*
X11993986Y-14587629D01*
X11979700Y-14573343D01*
X11965414Y-14544771D01*
X11951128Y-14487629D01*
X11951128Y-14416200D01*
X11965414Y-14359057D01*
X11979700Y-14330486D01*
X11993986Y-14316200D01*
X12022557Y-14301914D01*
X12251128Y-14601914D02*
X12251128Y-14401914D01*
X12251128Y-14430486D02*
X12265414Y-14416200D01*
X12293986Y-14401914D01*
X12336843Y-14401914D01*
X12365414Y-14416200D01*
X12379700Y-14444771D01*
X12379700Y-14601914D01*
X12379700Y-14444771D02*
X12393986Y-14416200D01*
X12422557Y-14401914D01*
X12465414Y-14401914D01*
X12493986Y-14416200D01*
X12508271Y-14444771D01*
X12508271Y-14601914D01*
X12651128Y-14601914D02*
X12651128Y-14401914D01*
X12651128Y-14430486D02*
X12665414Y-14416200D01*
X12693986Y-14401914D01*
X12736843Y-14401914D01*
X12765414Y-14416200D01*
X12779700Y-14444771D01*
X12779700Y-14601914D01*
X12779700Y-14444771D02*
X12793986Y-14416200D01*
X12822557Y-14401914D01*
X12865414Y-14401914D01*
X12893986Y-14416200D01*
X12908271Y-14444771D01*
X12908271Y-14601914D01*
X13493986Y-14287629D02*
X13236843Y-14673343D01*
X13879700Y-14301914D02*
X13908271Y-14301914D01*
X13936843Y-14316200D01*
X13951128Y-14330486D01*
X13965414Y-14359057D01*
X13979700Y-14416200D01*
X13979700Y-14487629D01*
X13965414Y-14544771D01*
X13951128Y-14573343D01*
X13936843Y-14587629D01*
X13908271Y-14601914D01*
X13879700Y-14601914D01*
X13851128Y-14587629D01*
X13836843Y-14573343D01*
X13822557Y-14544771D01*
X13808271Y-14487629D01*
X13808271Y-14416200D01*
X13822557Y-14359057D01*
X13836843Y-14330486D01*
X13851128Y-14316200D01*
X13879700Y-14301914D01*
X14108271Y-14573343D02*
X14122557Y-14587629D01*
X14108271Y-14601914D01*
X14093986Y-14587629D01*
X14108271Y-14573343D01*
X14108271Y-14601914D01*
X14308271Y-14301914D02*
X14336843Y-14301914D01*
X14365414Y-14316200D01*
X14379700Y-14330486D01*
X14393985Y-14359057D01*
X14408271Y-14416200D01*
X14408271Y-14487629D01*
X14393985Y-14544771D01*
X14379700Y-14573343D01*
X14365414Y-14587629D01*
X14336843Y-14601914D01*
X14308271Y-14601914D01*
X14279700Y-14587629D01*
X14265414Y-14573343D01*
X14251128Y-14544771D01*
X14236843Y-14487629D01*
X14236843Y-14416200D01*
X14251128Y-14359057D01*
X14265414Y-14330486D01*
X14279700Y-14316200D01*
X14308271Y-14301914D01*
X14522557Y-14330486D02*
X14536843Y-14316200D01*
X14565414Y-14301914D01*
X14636843Y-14301914D01*
X14665414Y-14316200D01*
X14679700Y-14330486D01*
X14693985Y-14359057D01*
X14693985Y-14387629D01*
X14679700Y-14430486D01*
X14508271Y-14601914D01*
X14693985Y-14601914D01*
X14879700Y-14301914D02*
X14908271Y-14301914D01*
X14936843Y-14316200D01*
X14951128Y-14330486D01*
X14965414Y-14359057D01*
X14979700Y-14416200D01*
X14979700Y-14487629D01*
X14965414Y-14544771D01*
X14951128Y-14573343D01*
X14936843Y-14587629D01*
X14908271Y-14601914D01*
X14879700Y-14601914D01*
X14851128Y-14587629D01*
X14836843Y-14573343D01*
X14822557Y-14544771D01*
X14808271Y-14487629D01*
X14808271Y-14416200D01*
X14822557Y-14359057D01*
X14836843Y-14330486D01*
X14851128Y-14316200D01*
X14879700Y-14301914D01*
X15093986Y-14301914D02*
X15093986Y-14359057D01*
X15208271Y-14301914D02*
X15208271Y-14359057D01*
X15651128Y-14716200D02*
X15636843Y-14701914D01*
X15608271Y-14659057D01*
X15593985Y-14630486D01*
X15579700Y-14587629D01*
X15565414Y-14516200D01*
X15565414Y-14459057D01*
X15579700Y-14387629D01*
X15593985Y-14344771D01*
X15608271Y-14316200D01*
X15636843Y-14273343D01*
X15651128Y-14259057D01*
X15822557Y-14301914D02*
X15851128Y-14301914D01*
X15879700Y-14316200D01*
X15893985Y-14330486D01*
X15908271Y-14359057D01*
X15922557Y-14416200D01*
X15922557Y-14487629D01*
X15908271Y-14544771D01*
X15893985Y-14573343D01*
X15879700Y-14587629D01*
X15851128Y-14601914D01*
X15822557Y-14601914D01*
X15793985Y-14587629D01*
X15779700Y-14573343D01*
X15765414Y-14544771D01*
X15751128Y-14487629D01*
X15751128Y-14416200D01*
X15765414Y-14359057D01*
X15779700Y-14330486D01*
X15793985Y-14316200D01*
X15822557Y-14301914D01*
X16279700Y-14601914D02*
X16279700Y-14301914D01*
X16408271Y-14601914D02*
X16408271Y-14444771D01*
X16393985Y-14416200D01*
X16365414Y-14401914D01*
X16322557Y-14401914D01*
X16293985Y-14416200D01*
X16279700Y-14430486D01*
X16593985Y-14601914D02*
X16565414Y-14587629D01*
X16551128Y-14573343D01*
X16536843Y-14544771D01*
X16536843Y-14459057D01*
X16551128Y-14430486D01*
X16565414Y-14416200D01*
X16593985Y-14401914D01*
X16636843Y-14401914D01*
X16665414Y-14416200D01*
X16679700Y-14430486D01*
X16693985Y-14459057D01*
X16693985Y-14544771D01*
X16679700Y-14573343D01*
X16665414Y-14587629D01*
X16636843Y-14601914D01*
X16593985Y-14601914D01*
X16865414Y-14601914D02*
X16836843Y-14587629D01*
X16822557Y-14559057D01*
X16822557Y-14301914D01*
X17093986Y-14587629D02*
X17065414Y-14601914D01*
X17008271Y-14601914D01*
X16979700Y-14587629D01*
X16965414Y-14559057D01*
X16965414Y-14444771D01*
X16979700Y-14416200D01*
X17008271Y-14401914D01*
X17065414Y-14401914D01*
X17093986Y-14416200D01*
X17108271Y-14444771D01*
X17108271Y-14473343D01*
X16965414Y-14501914D01*
X17222557Y-14587629D02*
X17251129Y-14601914D01*
X17308271Y-14601914D01*
X17336843Y-14587629D01*
X17351129Y-14559057D01*
X17351129Y-14544771D01*
X17336843Y-14516200D01*
X17308271Y-14501914D01*
X17265414Y-14501914D01*
X17236843Y-14487629D01*
X17222557Y-14459057D01*
X17222557Y-14444771D01*
X17236843Y-14416200D01*
X17265414Y-14401914D01*
X17308271Y-14401914D01*
X17336843Y-14416200D01*
X17708271Y-14487629D02*
X17936843Y-14487629D01*
X17822557Y-14601914D02*
X17822557Y-14373343D01*
X18293986Y-14330486D02*
X18308271Y-14316200D01*
X18336843Y-14301914D01*
X18408271Y-14301914D01*
X18436843Y-14316200D01*
X18451128Y-14330486D01*
X18465414Y-14359057D01*
X18465414Y-14387629D01*
X18451128Y-14430486D01*
X18279700Y-14601914D01*
X18465414Y-14601914D01*
X18808271Y-14587629D02*
X18836843Y-14601914D01*
X18893986Y-14601914D01*
X18922557Y-14587629D01*
X18936843Y-14559057D01*
X18936843Y-14544771D01*
X18922557Y-14516200D01*
X18893986Y-14501914D01*
X18851128Y-14501914D01*
X18822557Y-14487629D01*
X18808271Y-14459057D01*
X18808271Y-14444771D01*
X18822557Y-14416200D01*
X18851128Y-14401914D01*
X18893986Y-14401914D01*
X18922557Y-14416200D01*
X19108271Y-14601914D02*
X19079700Y-14587629D01*
X19065414Y-14559057D01*
X19065414Y-14301914D01*
X19265414Y-14601914D02*
X19236843Y-14587629D01*
X19222557Y-14573343D01*
X19208271Y-14544771D01*
X19208271Y-14459057D01*
X19222557Y-14430486D01*
X19236843Y-14416200D01*
X19265414Y-14401914D01*
X19308271Y-14401914D01*
X19336843Y-14416200D01*
X19351128Y-14430486D01*
X19365414Y-14459057D01*
X19365414Y-14544771D01*
X19351128Y-14573343D01*
X19336843Y-14587629D01*
X19308271Y-14601914D01*
X19265414Y-14601914D01*
X19451128Y-14401914D02*
X19565414Y-14401914D01*
X19493986Y-14301914D02*
X19493986Y-14559057D01*
X19508271Y-14587629D01*
X19536843Y-14601914D01*
X19565414Y-14601914D01*
X19651129Y-14587629D02*
X19679700Y-14601914D01*
X19736843Y-14601914D01*
X19765414Y-14587629D01*
X19779700Y-14559057D01*
X19779700Y-14544771D01*
X19765414Y-14516200D01*
X19736843Y-14501914D01*
X19693986Y-14501914D01*
X19665414Y-14487629D01*
X19651129Y-14459057D01*
X19651129Y-14444771D01*
X19665414Y-14416200D01*
X19693986Y-14401914D01*
X19736843Y-14401914D01*
X19765414Y-14416200D01*
X19879700Y-14716200D02*
X19893986Y-14701914D01*
X19922557Y-14659057D01*
X19936843Y-14630486D01*
X19951128Y-14587629D01*
X19965414Y-14516200D01*
X19965414Y-14459057D01*
X19951128Y-14387629D01*
X19936843Y-14344771D01*
X19922557Y-14316200D01*
X19893986Y-14273343D01*
X19879700Y-14259057D01*
X10952200Y-14834700D02*
X10952200Y-14889700D01*
X10924700Y-14862200D02*
X10979700Y-14862200D01*
X11308271Y-14697914D02*
X11336843Y-14697914D01*
X11365414Y-14712200D01*
X11379700Y-14726486D01*
X11393986Y-14755057D01*
X11408271Y-14812200D01*
X11408271Y-14883629D01*
X11393986Y-14940771D01*
X11379700Y-14969343D01*
X11365414Y-14983629D01*
X11336843Y-14997914D01*
X11308271Y-14997914D01*
X11279700Y-14983629D01*
X11265414Y-14969343D01*
X11251128Y-14940771D01*
X11236843Y-14883629D01*
X11236843Y-14812200D01*
X11251128Y-14755057D01*
X11265414Y-14726486D01*
X11279700Y-14712200D01*
X11308271Y-14697914D01*
X11536843Y-14969343D02*
X11551128Y-14983629D01*
X11536843Y-14997914D01*
X11522557Y-14983629D01*
X11536843Y-14969343D01*
X11536843Y-14997914D01*
X11822557Y-14697914D02*
X11679700Y-14697914D01*
X11665414Y-14840771D01*
X11679700Y-14826486D01*
X11708271Y-14812200D01*
X11779700Y-14812200D01*
X11808271Y-14826486D01*
X11822557Y-14840771D01*
X11836843Y-14869343D01*
X11836843Y-14940771D01*
X11822557Y-14969343D01*
X11808271Y-14983629D01*
X11779700Y-14997914D01*
X11708271Y-14997914D01*
X11679700Y-14983629D01*
X11665414Y-14969343D01*
X12108271Y-14697914D02*
X11965414Y-14697914D01*
X11951128Y-14840771D01*
X11965414Y-14826486D01*
X11993986Y-14812200D01*
X12065414Y-14812200D01*
X12093986Y-14826486D01*
X12108271Y-14840771D01*
X12122557Y-14869343D01*
X12122557Y-14940771D01*
X12108271Y-14969343D01*
X12093986Y-14983629D01*
X12065414Y-14997914D01*
X11993986Y-14997914D01*
X11965414Y-14983629D01*
X11951128Y-14969343D01*
X12251128Y-14997914D02*
X12251128Y-14797914D01*
X12251128Y-14826486D02*
X12265414Y-14812200D01*
X12293986Y-14797914D01*
X12336843Y-14797914D01*
X12365414Y-14812200D01*
X12379700Y-14840771D01*
X12379700Y-14997914D01*
X12379700Y-14840771D02*
X12393986Y-14812200D01*
X12422557Y-14797914D01*
X12465414Y-14797914D01*
X12493986Y-14812200D01*
X12508271Y-14840771D01*
X12508271Y-14997914D01*
X12651128Y-14997914D02*
X12651128Y-14797914D01*
X12651128Y-14826486D02*
X12665414Y-14812200D01*
X12693986Y-14797914D01*
X12736843Y-14797914D01*
X12765414Y-14812200D01*
X12779700Y-14840771D01*
X12779700Y-14997914D01*
X12779700Y-14840771D02*
X12793986Y-14812200D01*
X12822557Y-14797914D01*
X12865414Y-14797914D01*
X12893986Y-14812200D01*
X12908271Y-14840771D01*
X12908271Y-14997914D01*
X13493986Y-14683629D02*
X13236843Y-15069343D01*
X13879700Y-14697914D02*
X13908271Y-14697914D01*
X13936843Y-14712200D01*
X13951128Y-14726486D01*
X13965414Y-14755057D01*
X13979700Y-14812200D01*
X13979700Y-14883629D01*
X13965414Y-14940771D01*
X13951128Y-14969343D01*
X13936843Y-14983629D01*
X13908271Y-14997914D01*
X13879700Y-14997914D01*
X13851128Y-14983629D01*
X13836843Y-14969343D01*
X13822557Y-14940771D01*
X13808271Y-14883629D01*
X13808271Y-14812200D01*
X13822557Y-14755057D01*
X13836843Y-14726486D01*
X13851128Y-14712200D01*
X13879700Y-14697914D01*
X14108271Y-14969343D02*
X14122557Y-14983629D01*
X14108271Y-14997914D01*
X14093986Y-14983629D01*
X14108271Y-14969343D01*
X14108271Y-14997914D01*
X14308271Y-14697914D02*
X14336843Y-14697914D01*
X14365414Y-14712200D01*
X14379700Y-14726486D01*
X14393985Y-14755057D01*
X14408271Y-14812200D01*
X14408271Y-14883629D01*
X14393985Y-14940771D01*
X14379700Y-14969343D01*
X14365414Y-14983629D01*
X14336843Y-14997914D01*
X14308271Y-14997914D01*
X14279700Y-14983629D01*
X14265414Y-14969343D01*
X14251128Y-14940771D01*
X14236843Y-14883629D01*
X14236843Y-14812200D01*
X14251128Y-14755057D01*
X14265414Y-14726486D01*
X14279700Y-14712200D01*
X14308271Y-14697914D01*
X14522557Y-14726486D02*
X14536843Y-14712200D01*
X14565414Y-14697914D01*
X14636843Y-14697914D01*
X14665414Y-14712200D01*
X14679700Y-14726486D01*
X14693985Y-14755057D01*
X14693985Y-14783629D01*
X14679700Y-14826486D01*
X14508271Y-14997914D01*
X14693985Y-14997914D01*
X14808271Y-14726486D02*
X14822557Y-14712200D01*
X14851128Y-14697914D01*
X14922557Y-14697914D01*
X14951128Y-14712200D01*
X14965414Y-14726486D01*
X14979700Y-14755057D01*
X14979700Y-14783629D01*
X14965414Y-14826486D01*
X14793985Y-14997914D01*
X14979700Y-14997914D01*
X15093986Y-14697914D02*
X15093986Y-14755057D01*
X15208271Y-14697914D02*
X15208271Y-14755057D01*
X15651128Y-15112200D02*
X15636843Y-15097914D01*
X15608271Y-15055057D01*
X15593985Y-15026486D01*
X15579700Y-14983629D01*
X15565414Y-14912200D01*
X15565414Y-14855057D01*
X15579700Y-14783629D01*
X15593985Y-14740771D01*
X15608271Y-14712200D01*
X15636843Y-14669343D01*
X15651128Y-14655057D01*
X15822557Y-14697914D02*
X15851128Y-14697914D01*
X15879700Y-14712200D01*
X15893985Y-14726486D01*
X15908271Y-14755057D01*
X15922557Y-14812200D01*
X15922557Y-14883629D01*
X15908271Y-14940771D01*
X15893985Y-14969343D01*
X15879700Y-14983629D01*
X15851128Y-14997914D01*
X15822557Y-14997914D01*
X15793985Y-14983629D01*
X15779700Y-14969343D01*
X15765414Y-14940771D01*
X15751128Y-14883629D01*
X15751128Y-14812200D01*
X15765414Y-14755057D01*
X15779700Y-14726486D01*
X15793985Y-14712200D01*
X15822557Y-14697914D01*
X16279700Y-14997914D02*
X16279700Y-14697914D01*
X16408271Y-14997914D02*
X16408271Y-14840771D01*
X16393985Y-14812200D01*
X16365414Y-14797914D01*
X16322557Y-14797914D01*
X16293985Y-14812200D01*
X16279700Y-14826486D01*
X16593985Y-14997914D02*
X16565414Y-14983629D01*
X16551128Y-14969343D01*
X16536843Y-14940771D01*
X16536843Y-14855057D01*
X16551128Y-14826486D01*
X16565414Y-14812200D01*
X16593985Y-14797914D01*
X16636843Y-14797914D01*
X16665414Y-14812200D01*
X16679700Y-14826486D01*
X16693985Y-14855057D01*
X16693985Y-14940771D01*
X16679700Y-14969343D01*
X16665414Y-14983629D01*
X16636843Y-14997914D01*
X16593985Y-14997914D01*
X16865414Y-14997914D02*
X16836843Y-14983629D01*
X16822557Y-14955057D01*
X16822557Y-14697914D01*
X17093986Y-14983629D02*
X17065414Y-14997914D01*
X17008271Y-14997914D01*
X16979700Y-14983629D01*
X16965414Y-14955057D01*
X16965414Y-14840771D01*
X16979700Y-14812200D01*
X17008271Y-14797914D01*
X17065414Y-14797914D01*
X17093986Y-14812200D01*
X17108271Y-14840771D01*
X17108271Y-14869343D01*
X16965414Y-14897914D01*
X17222557Y-14983629D02*
X17251129Y-14997914D01*
X17308271Y-14997914D01*
X17336843Y-14983629D01*
X17351129Y-14955057D01*
X17351129Y-14940771D01*
X17336843Y-14912200D01*
X17308271Y-14897914D01*
X17265414Y-14897914D01*
X17236843Y-14883629D01*
X17222557Y-14855057D01*
X17222557Y-14840771D01*
X17236843Y-14812200D01*
X17265414Y-14797914D01*
X17308271Y-14797914D01*
X17336843Y-14812200D01*
X17708271Y-14883629D02*
X17936843Y-14883629D01*
X17822557Y-14997914D02*
X17822557Y-14769343D01*
X18293986Y-14726486D02*
X18308271Y-14712200D01*
X18336843Y-14697914D01*
X18408271Y-14697914D01*
X18436843Y-14712200D01*
X18451128Y-14726486D01*
X18465414Y-14755057D01*
X18465414Y-14783629D01*
X18451128Y-14826486D01*
X18279700Y-14997914D01*
X18465414Y-14997914D01*
X18808271Y-14983629D02*
X18836843Y-14997914D01*
X18893986Y-14997914D01*
X18922557Y-14983629D01*
X18936843Y-14955057D01*
X18936843Y-14940771D01*
X18922557Y-14912200D01*
X18893986Y-14897914D01*
X18851128Y-14897914D01*
X18822557Y-14883629D01*
X18808271Y-14855057D01*
X18808271Y-14840771D01*
X18822557Y-14812200D01*
X18851128Y-14797914D01*
X18893986Y-14797914D01*
X18922557Y-14812200D01*
X19108271Y-14997914D02*
X19079700Y-14983629D01*
X19065414Y-14955057D01*
X19065414Y-14697914D01*
X19265414Y-14997914D02*
X19236843Y-14983629D01*
X19222557Y-14969343D01*
X19208271Y-14940771D01*
X19208271Y-14855057D01*
X19222557Y-14826486D01*
X19236843Y-14812200D01*
X19265414Y-14797914D01*
X19308271Y-14797914D01*
X19336843Y-14812200D01*
X19351128Y-14826486D01*
X19365414Y-14855057D01*
X19365414Y-14940771D01*
X19351128Y-14969343D01*
X19336843Y-14983629D01*
X19308271Y-14997914D01*
X19265414Y-14997914D01*
X19451128Y-14797914D02*
X19565414Y-14797914D01*
X19493986Y-14697914D02*
X19493986Y-14955057D01*
X19508271Y-14983629D01*
X19536843Y-14997914D01*
X19565414Y-14997914D01*
X19651129Y-14983629D02*
X19679700Y-14997914D01*
X19736843Y-14997914D01*
X19765414Y-14983629D01*
X19779700Y-14955057D01*
X19779700Y-14940771D01*
X19765414Y-14912200D01*
X19736843Y-14897914D01*
X19693986Y-14897914D01*
X19665414Y-14883629D01*
X19651129Y-14855057D01*
X19651129Y-14840771D01*
X19665414Y-14812200D01*
X19693986Y-14797914D01*
X19736843Y-14797914D01*
X19765414Y-14812200D01*
X19879700Y-15112200D02*
X19893986Y-15097914D01*
X19922557Y-15055057D01*
X19936843Y-15026486D01*
X19951128Y-14983629D01*
X19965414Y-14912200D01*
X19965414Y-14855057D01*
X19951128Y-14783629D01*
X19936843Y-14740771D01*
X19922557Y-14712200D01*
X19893986Y-14669343D01*
X19879700Y-14655057D01*
X10968541Y-15285141D02*
X10968541Y-15231259D01*
X10914659Y-15231259D01*
X10914659Y-15285141D01*
X10968541Y-15285141D01*
X11308271Y-15093914D02*
X11336843Y-15093914D01*
X11365414Y-15108200D01*
X11379700Y-15122486D01*
X11393986Y-15151057D01*
X11408271Y-15208200D01*
X11408271Y-15279629D01*
X11393986Y-15336771D01*
X11379700Y-15365343D01*
X11365414Y-15379629D01*
X11336843Y-15393914D01*
X11308271Y-15393914D01*
X11279700Y-15379629D01*
X11265414Y-15365343D01*
X11251128Y-15336771D01*
X11236843Y-15279629D01*
X11236843Y-15208200D01*
X11251128Y-15151057D01*
X11265414Y-15122486D01*
X11279700Y-15108200D01*
X11308271Y-15093914D01*
X11536843Y-15365343D02*
X11551128Y-15379629D01*
X11536843Y-15393914D01*
X11522557Y-15379629D01*
X11536843Y-15365343D01*
X11536843Y-15393914D01*
X11651128Y-15093914D02*
X11851128Y-15093914D01*
X11722557Y-15393914D01*
X12093986Y-15093914D02*
X12036843Y-15093914D01*
X12008271Y-15108200D01*
X11993986Y-15122486D01*
X11965414Y-15165343D01*
X11951128Y-15222486D01*
X11951128Y-15336771D01*
X11965414Y-15365343D01*
X11979700Y-15379629D01*
X12008271Y-15393914D01*
X12065414Y-15393914D01*
X12093986Y-15379629D01*
X12108271Y-15365343D01*
X12122557Y-15336771D01*
X12122557Y-15265343D01*
X12108271Y-15236771D01*
X12093986Y-15222486D01*
X12065414Y-15208200D01*
X12008271Y-15208200D01*
X11979700Y-15222486D01*
X11965414Y-15236771D01*
X11951128Y-15265343D01*
X12251128Y-15393914D02*
X12251128Y-15193914D01*
X12251128Y-15222486D02*
X12265414Y-15208200D01*
X12293986Y-15193914D01*
X12336843Y-15193914D01*
X12365414Y-15208200D01*
X12379700Y-15236771D01*
X12379700Y-15393914D01*
X12379700Y-15236771D02*
X12393986Y-15208200D01*
X12422557Y-15193914D01*
X12465414Y-15193914D01*
X12493986Y-15208200D01*
X12508271Y-15236771D01*
X12508271Y-15393914D01*
X12651128Y-15393914D02*
X12651128Y-15193914D01*
X12651128Y-15222486D02*
X12665414Y-15208200D01*
X12693986Y-15193914D01*
X12736843Y-15193914D01*
X12765414Y-15208200D01*
X12779700Y-15236771D01*
X12779700Y-15393914D01*
X12779700Y-15236771D02*
X12793986Y-15208200D01*
X12822557Y-15193914D01*
X12865414Y-15193914D01*
X12893986Y-15208200D01*
X12908271Y-15236771D01*
X12908271Y-15393914D01*
X13493986Y-15079629D02*
X13236843Y-15465343D01*
X13879700Y-15093914D02*
X13908271Y-15093914D01*
X13936843Y-15108200D01*
X13951128Y-15122486D01*
X13965414Y-15151057D01*
X13979700Y-15208200D01*
X13979700Y-15279629D01*
X13965414Y-15336771D01*
X13951128Y-15365343D01*
X13936843Y-15379629D01*
X13908271Y-15393914D01*
X13879700Y-15393914D01*
X13851128Y-15379629D01*
X13836843Y-15365343D01*
X13822557Y-15336771D01*
X13808271Y-15279629D01*
X13808271Y-15208200D01*
X13822557Y-15151057D01*
X13836843Y-15122486D01*
X13851128Y-15108200D01*
X13879700Y-15093914D01*
X14108271Y-15365343D02*
X14122557Y-15379629D01*
X14108271Y-15393914D01*
X14093986Y-15379629D01*
X14108271Y-15365343D01*
X14108271Y-15393914D01*
X14308271Y-15093914D02*
X14336843Y-15093914D01*
X14365414Y-15108200D01*
X14379700Y-15122486D01*
X14393985Y-15151057D01*
X14408271Y-15208200D01*
X14408271Y-15279629D01*
X14393985Y-15336771D01*
X14379700Y-15365343D01*
X14365414Y-15379629D01*
X14336843Y-15393914D01*
X14308271Y-15393914D01*
X14279700Y-15379629D01*
X14265414Y-15365343D01*
X14251128Y-15336771D01*
X14236843Y-15279629D01*
X14236843Y-15208200D01*
X14251128Y-15151057D01*
X14265414Y-15122486D01*
X14279700Y-15108200D01*
X14308271Y-15093914D01*
X14508271Y-15093914D02*
X14693985Y-15093914D01*
X14593985Y-15208200D01*
X14636843Y-15208200D01*
X14665414Y-15222486D01*
X14679700Y-15236771D01*
X14693985Y-15265343D01*
X14693985Y-15336771D01*
X14679700Y-15365343D01*
X14665414Y-15379629D01*
X14636843Y-15393914D01*
X14551128Y-15393914D01*
X14522557Y-15379629D01*
X14508271Y-15365343D01*
X14879700Y-15093914D02*
X14908271Y-15093914D01*
X14936843Y-15108200D01*
X14951128Y-15122486D01*
X14965414Y-15151057D01*
X14979700Y-15208200D01*
X14979700Y-15279629D01*
X14965414Y-15336771D01*
X14951128Y-15365343D01*
X14936843Y-15379629D01*
X14908271Y-15393914D01*
X14879700Y-15393914D01*
X14851128Y-15379629D01*
X14836843Y-15365343D01*
X14822557Y-15336771D01*
X14808271Y-15279629D01*
X14808271Y-15208200D01*
X14822557Y-15151057D01*
X14836843Y-15122486D01*
X14851128Y-15108200D01*
X14879700Y-15093914D01*
X15093986Y-15093914D02*
X15093986Y-15151057D01*
X15208271Y-15093914D02*
X15208271Y-15151057D01*
X15651128Y-15508200D02*
X15636843Y-15493914D01*
X15608271Y-15451057D01*
X15593985Y-15422486D01*
X15579700Y-15379629D01*
X15565414Y-15308200D01*
X15565414Y-15251057D01*
X15579700Y-15179629D01*
X15593985Y-15136771D01*
X15608271Y-15108200D01*
X15636843Y-15065343D01*
X15651128Y-15051057D01*
X15822557Y-15093914D02*
X15851128Y-15093914D01*
X15879700Y-15108200D01*
X15893985Y-15122486D01*
X15908271Y-15151057D01*
X15922557Y-15208200D01*
X15922557Y-15279629D01*
X15908271Y-15336771D01*
X15893985Y-15365343D01*
X15879700Y-15379629D01*
X15851128Y-15393914D01*
X15822557Y-15393914D01*
X15793985Y-15379629D01*
X15779700Y-15365343D01*
X15765414Y-15336771D01*
X15751128Y-15279629D01*
X15751128Y-15208200D01*
X15765414Y-15151057D01*
X15779700Y-15122486D01*
X15793985Y-15108200D01*
X15822557Y-15093914D01*
X16279700Y-15393914D02*
X16279700Y-15093914D01*
X16408271Y-15393914D02*
X16408271Y-15236771D01*
X16393985Y-15208200D01*
X16365414Y-15193914D01*
X16322557Y-15193914D01*
X16293985Y-15208200D01*
X16279700Y-15222486D01*
X16593985Y-15393914D02*
X16565414Y-15379629D01*
X16551128Y-15365343D01*
X16536843Y-15336771D01*
X16536843Y-15251057D01*
X16551128Y-15222486D01*
X16565414Y-15208200D01*
X16593985Y-15193914D01*
X16636843Y-15193914D01*
X16665414Y-15208200D01*
X16679700Y-15222486D01*
X16693985Y-15251057D01*
X16693985Y-15336771D01*
X16679700Y-15365343D01*
X16665414Y-15379629D01*
X16636843Y-15393914D01*
X16593985Y-15393914D01*
X16865414Y-15393914D02*
X16836843Y-15379629D01*
X16822557Y-15351057D01*
X16822557Y-15093914D01*
X17093986Y-15379629D02*
X17065414Y-15393914D01*
X17008271Y-15393914D01*
X16979700Y-15379629D01*
X16965414Y-15351057D01*
X16965414Y-15236771D01*
X16979700Y-15208200D01*
X17008271Y-15193914D01*
X17065414Y-15193914D01*
X17093986Y-15208200D01*
X17108271Y-15236771D01*
X17108271Y-15265343D01*
X16965414Y-15293914D01*
X17222557Y-15379629D02*
X17251129Y-15393914D01*
X17308271Y-15393914D01*
X17336843Y-15379629D01*
X17351129Y-15351057D01*
X17351129Y-15336771D01*
X17336843Y-15308200D01*
X17308271Y-15293914D01*
X17265414Y-15293914D01*
X17236843Y-15279629D01*
X17222557Y-15251057D01*
X17222557Y-15236771D01*
X17236843Y-15208200D01*
X17265414Y-15193914D01*
X17308271Y-15193914D01*
X17336843Y-15208200D01*
X17708271Y-15279629D02*
X17936843Y-15279629D01*
X17822557Y-15393914D02*
X17822557Y-15165343D01*
X18451128Y-15093914D02*
X18308271Y-15093914D01*
X18293986Y-15236771D01*
X18308271Y-15222486D01*
X18336843Y-15208200D01*
X18408271Y-15208200D01*
X18436843Y-15222486D01*
X18451128Y-15236771D01*
X18465414Y-15265343D01*
X18465414Y-15336771D01*
X18451128Y-15365343D01*
X18436843Y-15379629D01*
X18408271Y-15393914D01*
X18336843Y-15393914D01*
X18308271Y-15379629D01*
X18293986Y-15365343D01*
X18808271Y-15379629D02*
X18836843Y-15393914D01*
X18893986Y-15393914D01*
X18922557Y-15379629D01*
X18936843Y-15351057D01*
X18936843Y-15336771D01*
X18922557Y-15308200D01*
X18893986Y-15293914D01*
X18851128Y-15293914D01*
X18822557Y-15279629D01*
X18808271Y-15251057D01*
X18808271Y-15236771D01*
X18822557Y-15208200D01*
X18851128Y-15193914D01*
X18893986Y-15193914D01*
X18922557Y-15208200D01*
X19108271Y-15393914D02*
X19079700Y-15379629D01*
X19065414Y-15351057D01*
X19065414Y-15093914D01*
X19265414Y-15393914D02*
X19236843Y-15379629D01*
X19222557Y-15365343D01*
X19208271Y-15336771D01*
X19208271Y-15251057D01*
X19222557Y-15222486D01*
X19236843Y-15208200D01*
X19265414Y-15193914D01*
X19308271Y-15193914D01*
X19336843Y-15208200D01*
X19351128Y-15222486D01*
X19365414Y-15251057D01*
X19365414Y-15336771D01*
X19351128Y-15365343D01*
X19336843Y-15379629D01*
X19308271Y-15393914D01*
X19265414Y-15393914D01*
X19451128Y-15193914D02*
X19565414Y-15193914D01*
X19493986Y-15093914D02*
X19493986Y-15351057D01*
X19508271Y-15379629D01*
X19536843Y-15393914D01*
X19565414Y-15393914D01*
X19651129Y-15379629D02*
X19679700Y-15393914D01*
X19736843Y-15393914D01*
X19765414Y-15379629D01*
X19779700Y-15351057D01*
X19779700Y-15336771D01*
X19765414Y-15308200D01*
X19736843Y-15293914D01*
X19693986Y-15293914D01*
X19665414Y-15279629D01*
X19651129Y-15251057D01*
X19651129Y-15236771D01*
X19665414Y-15208200D01*
X19693986Y-15193914D01*
X19736843Y-15193914D01*
X19765414Y-15208200D01*
X19879700Y-15508200D02*
X19893986Y-15493914D01*
X19922557Y-15451057D01*
X19936843Y-15422486D01*
X19951128Y-15379629D01*
X19965414Y-15308200D01*
X19965414Y-15251057D01*
X19951128Y-15179629D01*
X19936843Y-15136771D01*
X19922557Y-15108200D01*
X19893986Y-15065343D01*
X19879700Y-15051057D01*
X10939700Y-15694200D02*
X10979700Y-15654200D01*
X10939700Y-15614200D01*
X10899700Y-15654200D01*
X10939700Y-15694200D01*
X11308271Y-15489914D02*
X11336843Y-15489914D01*
X11365414Y-15504200D01*
X11379700Y-15518486D01*
X11393986Y-15547057D01*
X11408271Y-15604200D01*
X11408271Y-15675629D01*
X11393986Y-15732771D01*
X11379700Y-15761343D01*
X11365414Y-15775629D01*
X11336843Y-15789914D01*
X11308271Y-15789914D01*
X11279700Y-15775629D01*
X11265414Y-15761343D01*
X11251128Y-15732771D01*
X11236843Y-15675629D01*
X11236843Y-15604200D01*
X11251128Y-15547057D01*
X11265414Y-15518486D01*
X11279700Y-15504200D01*
X11308271Y-15489914D01*
X11536843Y-15761343D02*
X11551128Y-15775629D01*
X11536843Y-15789914D01*
X11522557Y-15775629D01*
X11536843Y-15761343D01*
X11536843Y-15789914D01*
X11722557Y-15618486D02*
X11693986Y-15604200D01*
X11679700Y-15589914D01*
X11665414Y-15561343D01*
X11665414Y-15547057D01*
X11679700Y-15518486D01*
X11693986Y-15504200D01*
X11722557Y-15489914D01*
X11779700Y-15489914D01*
X11808271Y-15504200D01*
X11822557Y-15518486D01*
X11836843Y-15547057D01*
X11836843Y-15561343D01*
X11822557Y-15589914D01*
X11808271Y-15604200D01*
X11779700Y-15618486D01*
X11722557Y-15618486D01*
X11693986Y-15632771D01*
X11679700Y-15647057D01*
X11665414Y-15675629D01*
X11665414Y-15732771D01*
X11679700Y-15761343D01*
X11693986Y-15775629D01*
X11722557Y-15789914D01*
X11779700Y-15789914D01*
X11808271Y-15775629D01*
X11822557Y-15761343D01*
X11836843Y-15732771D01*
X11836843Y-15675629D01*
X11822557Y-15647057D01*
X11808271Y-15632771D01*
X11779700Y-15618486D01*
X12022557Y-15489914D02*
X12051128Y-15489914D01*
X12079700Y-15504200D01*
X12093986Y-15518486D01*
X12108271Y-15547057D01*
X12122557Y-15604200D01*
X12122557Y-15675629D01*
X12108271Y-15732771D01*
X12093986Y-15761343D01*
X12079700Y-15775629D01*
X12051128Y-15789914D01*
X12022557Y-15789914D01*
X11993986Y-15775629D01*
X11979700Y-15761343D01*
X11965414Y-15732771D01*
X11951128Y-15675629D01*
X11951128Y-15604200D01*
X11965414Y-15547057D01*
X11979700Y-15518486D01*
X11993986Y-15504200D01*
X12022557Y-15489914D01*
X12251128Y-15789914D02*
X12251128Y-15589914D01*
X12251128Y-15618486D02*
X12265414Y-15604200D01*
X12293986Y-15589914D01*
X12336843Y-15589914D01*
X12365414Y-15604200D01*
X12379700Y-15632771D01*
X12379700Y-15789914D01*
X12379700Y-15632771D02*
X12393986Y-15604200D01*
X12422557Y-15589914D01*
X12465414Y-15589914D01*
X12493986Y-15604200D01*
X12508271Y-15632771D01*
X12508271Y-15789914D01*
X12651128Y-15789914D02*
X12651128Y-15589914D01*
X12651128Y-15618486D02*
X12665414Y-15604200D01*
X12693986Y-15589914D01*
X12736843Y-15589914D01*
X12765414Y-15604200D01*
X12779700Y-15632771D01*
X12779700Y-15789914D01*
X12779700Y-15632771D02*
X12793986Y-15604200D01*
X12822557Y-15589914D01*
X12865414Y-15589914D01*
X12893986Y-15604200D01*
X12908271Y-15632771D01*
X12908271Y-15789914D01*
X13493986Y-15475629D02*
X13236843Y-15861343D01*
X13879700Y-15489914D02*
X13908271Y-15489914D01*
X13936843Y-15504200D01*
X13951128Y-15518486D01*
X13965414Y-15547057D01*
X13979700Y-15604200D01*
X13979700Y-15675629D01*
X13965414Y-15732771D01*
X13951128Y-15761343D01*
X13936843Y-15775629D01*
X13908271Y-15789914D01*
X13879700Y-15789914D01*
X13851128Y-15775629D01*
X13836843Y-15761343D01*
X13822557Y-15732771D01*
X13808271Y-15675629D01*
X13808271Y-15604200D01*
X13822557Y-15547057D01*
X13836843Y-15518486D01*
X13851128Y-15504200D01*
X13879700Y-15489914D01*
X14108271Y-15761343D02*
X14122557Y-15775629D01*
X14108271Y-15789914D01*
X14093986Y-15775629D01*
X14108271Y-15761343D01*
X14108271Y-15789914D01*
X14308271Y-15489914D02*
X14336843Y-15489914D01*
X14365414Y-15504200D01*
X14379700Y-15518486D01*
X14393985Y-15547057D01*
X14408271Y-15604200D01*
X14408271Y-15675629D01*
X14393985Y-15732771D01*
X14379700Y-15761343D01*
X14365414Y-15775629D01*
X14336843Y-15789914D01*
X14308271Y-15789914D01*
X14279700Y-15775629D01*
X14265414Y-15761343D01*
X14251128Y-15732771D01*
X14236843Y-15675629D01*
X14236843Y-15604200D01*
X14251128Y-15547057D01*
X14265414Y-15518486D01*
X14279700Y-15504200D01*
X14308271Y-15489914D01*
X14508271Y-15489914D02*
X14693985Y-15489914D01*
X14593985Y-15604200D01*
X14636843Y-15604200D01*
X14665414Y-15618486D01*
X14679700Y-15632771D01*
X14693985Y-15661343D01*
X14693985Y-15732771D01*
X14679700Y-15761343D01*
X14665414Y-15775629D01*
X14636843Y-15789914D01*
X14551128Y-15789914D01*
X14522557Y-15775629D01*
X14508271Y-15761343D01*
X14979700Y-15789914D02*
X14808271Y-15789914D01*
X14893985Y-15789914D02*
X14893985Y-15489914D01*
X14865414Y-15532771D01*
X14836843Y-15561343D01*
X14808271Y-15575629D01*
X15093986Y-15489914D02*
X15093986Y-15547057D01*
X15208271Y-15489914D02*
X15208271Y-15547057D01*
X15651128Y-15904200D02*
X15636843Y-15889914D01*
X15608271Y-15847057D01*
X15593985Y-15818486D01*
X15579700Y-15775629D01*
X15565414Y-15704200D01*
X15565414Y-15647057D01*
X15579700Y-15575629D01*
X15593985Y-15532771D01*
X15608271Y-15504200D01*
X15636843Y-15461343D01*
X15651128Y-15447057D01*
X15808271Y-15618486D02*
X15779700Y-15604200D01*
X15765414Y-15589914D01*
X15751128Y-15561343D01*
X15751128Y-15547057D01*
X15765414Y-15518486D01*
X15779700Y-15504200D01*
X15808271Y-15489914D01*
X15865414Y-15489914D01*
X15893985Y-15504200D01*
X15908271Y-15518486D01*
X15922557Y-15547057D01*
X15922557Y-15561343D01*
X15908271Y-15589914D01*
X15893985Y-15604200D01*
X15865414Y-15618486D01*
X15808271Y-15618486D01*
X15779700Y-15632771D01*
X15765414Y-15647057D01*
X15751128Y-15675629D01*
X15751128Y-15732771D01*
X15765414Y-15761343D01*
X15779700Y-15775629D01*
X15808271Y-15789914D01*
X15865414Y-15789914D01*
X15893985Y-15775629D01*
X15908271Y-15761343D01*
X15922557Y-15732771D01*
X15922557Y-15675629D01*
X15908271Y-15647057D01*
X15893985Y-15632771D01*
X15865414Y-15618486D01*
X16279700Y-15789914D02*
X16279700Y-15489914D01*
X16408271Y-15789914D02*
X16408271Y-15632771D01*
X16393985Y-15604200D01*
X16365414Y-15589914D01*
X16322557Y-15589914D01*
X16293985Y-15604200D01*
X16279700Y-15618486D01*
X16593985Y-15789914D02*
X16565414Y-15775629D01*
X16551128Y-15761343D01*
X16536843Y-15732771D01*
X16536843Y-15647057D01*
X16551128Y-15618486D01*
X16565414Y-15604200D01*
X16593985Y-15589914D01*
X16636843Y-15589914D01*
X16665414Y-15604200D01*
X16679700Y-15618486D01*
X16693985Y-15647057D01*
X16693985Y-15732771D01*
X16679700Y-15761343D01*
X16665414Y-15775629D01*
X16636843Y-15789914D01*
X16593985Y-15789914D01*
X16865414Y-15789914D02*
X16836843Y-15775629D01*
X16822557Y-15747057D01*
X16822557Y-15489914D01*
X17093986Y-15775629D02*
X17065414Y-15789914D01*
X17008271Y-15789914D01*
X16979700Y-15775629D01*
X16965414Y-15747057D01*
X16965414Y-15632771D01*
X16979700Y-15604200D01*
X17008271Y-15589914D01*
X17065414Y-15589914D01*
X17093986Y-15604200D01*
X17108271Y-15632771D01*
X17108271Y-15661343D01*
X16965414Y-15689914D01*
X17222557Y-15775629D02*
X17251129Y-15789914D01*
X17308271Y-15789914D01*
X17336843Y-15775629D01*
X17351129Y-15747057D01*
X17351129Y-15732771D01*
X17336843Y-15704200D01*
X17308271Y-15689914D01*
X17265414Y-15689914D01*
X17236843Y-15675629D01*
X17222557Y-15647057D01*
X17222557Y-15632771D01*
X17236843Y-15604200D01*
X17265414Y-15589914D01*
X17308271Y-15589914D01*
X17336843Y-15604200D01*
X17451128Y-15904200D02*
X17465414Y-15889914D01*
X17493986Y-15847057D01*
X17508271Y-15818486D01*
X17522557Y-15775629D01*
X17536843Y-15704200D01*
X17536843Y-15647057D01*
X17522557Y-15575629D01*
X17508271Y-15532771D01*
X17493986Y-15504200D01*
X17465414Y-15461343D01*
X17451128Y-15447057D01*
X10829700Y-15975200D02*
X10979700Y-16125200D01*
X10979700Y-15975200D02*
X10829700Y-16125200D01*
X10979700Y-16050200D02*
G75*
G03X10979700Y-16050200I-75000J0D01*
G01*
X11408271Y-16185914D02*
X11236843Y-16185914D01*
X11322557Y-16185914D02*
X11322557Y-15885914D01*
X11293986Y-15928771D01*
X11265414Y-15957343D01*
X11236843Y-15971629D01*
X11536843Y-16157343D02*
X11551128Y-16171629D01*
X11536843Y-16185914D01*
X11522557Y-16171629D01*
X11536843Y-16157343D01*
X11536843Y-16185914D01*
X11822557Y-15885914D02*
X11679700Y-15885914D01*
X11665414Y-16028771D01*
X11679700Y-16014486D01*
X11708271Y-16000200D01*
X11779700Y-16000200D01*
X11808271Y-16014486D01*
X11822557Y-16028771D01*
X11836843Y-16057343D01*
X11836843Y-16128771D01*
X11822557Y-16157343D01*
X11808271Y-16171629D01*
X11779700Y-16185914D01*
X11708271Y-16185914D01*
X11679700Y-16171629D01*
X11665414Y-16157343D01*
X12022557Y-15885914D02*
X12051128Y-15885914D01*
X12079700Y-15900200D01*
X12093986Y-15914486D01*
X12108271Y-15943057D01*
X12122557Y-16000200D01*
X12122557Y-16071629D01*
X12108271Y-16128771D01*
X12093986Y-16157343D01*
X12079700Y-16171629D01*
X12051128Y-16185914D01*
X12022557Y-16185914D01*
X11993986Y-16171629D01*
X11979700Y-16157343D01*
X11965414Y-16128771D01*
X11951128Y-16071629D01*
X11951128Y-16000200D01*
X11965414Y-15943057D01*
X11979700Y-15914486D01*
X11993986Y-15900200D01*
X12022557Y-15885914D01*
X12251128Y-16185914D02*
X12251128Y-15985914D01*
X12251128Y-16014486D02*
X12265414Y-16000200D01*
X12293986Y-15985914D01*
X12336843Y-15985914D01*
X12365414Y-16000200D01*
X12379700Y-16028771D01*
X12379700Y-16185914D01*
X12379700Y-16028771D02*
X12393986Y-16000200D01*
X12422557Y-15985914D01*
X12465414Y-15985914D01*
X12493986Y-16000200D01*
X12508271Y-16028771D01*
X12508271Y-16185914D01*
X12651128Y-16185914D02*
X12651128Y-15985914D01*
X12651128Y-16014486D02*
X12665414Y-16000200D01*
X12693986Y-15985914D01*
X12736843Y-15985914D01*
X12765414Y-16000200D01*
X12779700Y-16028771D01*
X12779700Y-16185914D01*
X12779700Y-16028771D02*
X12793986Y-16000200D01*
X12822557Y-15985914D01*
X12865414Y-15985914D01*
X12893986Y-16000200D01*
X12908271Y-16028771D01*
X12908271Y-16185914D01*
X13493986Y-15871629D02*
X13236843Y-16257343D01*
X13879700Y-15885914D02*
X13908271Y-15885914D01*
X13936843Y-15900200D01*
X13951128Y-15914486D01*
X13965414Y-15943057D01*
X13979700Y-16000200D01*
X13979700Y-16071629D01*
X13965414Y-16128771D01*
X13951128Y-16157343D01*
X13936843Y-16171629D01*
X13908271Y-16185914D01*
X13879700Y-16185914D01*
X13851128Y-16171629D01*
X13836843Y-16157343D01*
X13822557Y-16128771D01*
X13808271Y-16071629D01*
X13808271Y-16000200D01*
X13822557Y-15943057D01*
X13836843Y-15914486D01*
X13851128Y-15900200D01*
X13879700Y-15885914D01*
X14108271Y-16157343D02*
X14122557Y-16171629D01*
X14108271Y-16185914D01*
X14093986Y-16171629D01*
X14108271Y-16157343D01*
X14108271Y-16185914D01*
X14308271Y-15885914D02*
X14336843Y-15885914D01*
X14365414Y-15900200D01*
X14379700Y-15914486D01*
X14393985Y-15943057D01*
X14408271Y-16000200D01*
X14408271Y-16071629D01*
X14393985Y-16128771D01*
X14379700Y-16157343D01*
X14365414Y-16171629D01*
X14336843Y-16185914D01*
X14308271Y-16185914D01*
X14279700Y-16171629D01*
X14265414Y-16157343D01*
X14251128Y-16128771D01*
X14236843Y-16071629D01*
X14236843Y-16000200D01*
X14251128Y-15943057D01*
X14265414Y-15914486D01*
X14279700Y-15900200D01*
X14308271Y-15885914D01*
X14679700Y-15885914D02*
X14536843Y-15885914D01*
X14522557Y-16028771D01*
X14536843Y-16014486D01*
X14565414Y-16000200D01*
X14636843Y-16000200D01*
X14665414Y-16014486D01*
X14679700Y-16028771D01*
X14693985Y-16057343D01*
X14693985Y-16128771D01*
X14679700Y-16157343D01*
X14665414Y-16171629D01*
X14636843Y-16185914D01*
X14565414Y-16185914D01*
X14536843Y-16171629D01*
X14522557Y-16157343D01*
X14836843Y-16185914D02*
X14893985Y-16185914D01*
X14922557Y-16171629D01*
X14936843Y-16157343D01*
X14965414Y-16114486D01*
X14979700Y-16057343D01*
X14979700Y-15943057D01*
X14965414Y-15914486D01*
X14951128Y-15900200D01*
X14922557Y-15885914D01*
X14865414Y-15885914D01*
X14836843Y-15900200D01*
X14822557Y-15914486D01*
X14808271Y-15943057D01*
X14808271Y-16014486D01*
X14822557Y-16043057D01*
X14836843Y-16057343D01*
X14865414Y-16071629D01*
X14922557Y-16071629D01*
X14951128Y-16057343D01*
X14965414Y-16043057D01*
X14979700Y-16014486D01*
X15093986Y-15885914D02*
X15093986Y-15943057D01*
X15208271Y-15885914D02*
X15208271Y-15943057D01*
X15651128Y-16300200D02*
X15636843Y-16285914D01*
X15608271Y-16243057D01*
X15593985Y-16214486D01*
X15579700Y-16171629D01*
X15565414Y-16100200D01*
X15565414Y-16043057D01*
X15579700Y-15971629D01*
X15593985Y-15928771D01*
X15608271Y-15900200D01*
X15636843Y-15857343D01*
X15651128Y-15843057D01*
X15922557Y-16185914D02*
X15751128Y-16185914D01*
X15836843Y-16185914D02*
X15836843Y-15885914D01*
X15808271Y-15928771D01*
X15779700Y-15957343D01*
X15751128Y-15971629D01*
X16036843Y-15914486D02*
X16051128Y-15900200D01*
X16079700Y-15885914D01*
X16151128Y-15885914D01*
X16179700Y-15900200D01*
X16193985Y-15914486D01*
X16208271Y-15943057D01*
X16208271Y-15971629D01*
X16193985Y-16014486D01*
X16022557Y-16185914D01*
X16208271Y-16185914D01*
X16565414Y-16185914D02*
X16565414Y-15885914D01*
X16693985Y-16185914D02*
X16693985Y-16028771D01*
X16679700Y-16000200D01*
X16651128Y-15985914D01*
X16608271Y-15985914D01*
X16579700Y-16000200D01*
X16565414Y-16014486D01*
X16879700Y-16185914D02*
X16851128Y-16171629D01*
X16836843Y-16157343D01*
X16822557Y-16128771D01*
X16822557Y-16043057D01*
X16836843Y-16014486D01*
X16851128Y-16000200D01*
X16879700Y-15985914D01*
X16922557Y-15985914D01*
X16951128Y-16000200D01*
X16965414Y-16014486D01*
X16979700Y-16043057D01*
X16979700Y-16128771D01*
X16965414Y-16157343D01*
X16951128Y-16171629D01*
X16922557Y-16185914D01*
X16879700Y-16185914D01*
X17151128Y-16185914D02*
X17122557Y-16171629D01*
X17108271Y-16143057D01*
X17108271Y-15885914D01*
X17379700Y-16171629D02*
X17351129Y-16185914D01*
X17293986Y-16185914D01*
X17265414Y-16171629D01*
X17251129Y-16143057D01*
X17251129Y-16028771D01*
X17265414Y-16000200D01*
X17293986Y-15985914D01*
X17351129Y-15985914D01*
X17379700Y-16000200D01*
X17393986Y-16028771D01*
X17393986Y-16057343D01*
X17251129Y-16085914D01*
X17508271Y-16171629D02*
X17536843Y-16185914D01*
X17593986Y-16185914D01*
X17622557Y-16171629D01*
X17636843Y-16143057D01*
X17636843Y-16128771D01*
X17622557Y-16100200D01*
X17593986Y-16085914D01*
X17551129Y-16085914D01*
X17522557Y-16071629D01*
X17508271Y-16043057D01*
X17508271Y-16028771D01*
X17522557Y-16000200D01*
X17551129Y-15985914D01*
X17593986Y-15985914D01*
X17622557Y-16000200D01*
X17736843Y-16300200D02*
X17751129Y-16285914D01*
X17779700Y-16243057D01*
X17793986Y-16214486D01*
X17808271Y-16171629D01*
X17822557Y-16100200D01*
X17822557Y-16043057D01*
X17808271Y-15971629D01*
X17793986Y-15928771D01*
X17779700Y-15900200D01*
X17751129Y-15857343D01*
X17736843Y-15843057D01*
M02*
