G04 #@! TF.FileFunction,Copper,L2,Bot,Signal*
%FSLAX46Y46*%
G04 Gerber Fmt 4.6, Leading zero omitted, Abs format (unit mm)*
G04 Created by KiCad (PCBNEW 4.0.6) date Sunday, July 23, 2017 'AMt' 01:12:39 AM*
%MOMM*%
%LPD*%
G01*
G04 APERTURE LIST*
%ADD10C,0.100000*%
%ADD11O,1.524000X1.900000*%
%ADD12O,1.900000X1.524000*%
%ADD13R,2.400000X1.600000*%
%ADD14O,2.400000X1.600000*%
%ADD15O,0.950000X1.250000*%
%ADD16O,1.550000X1.000000*%
%ADD17C,3.000000*%
%ADD18C,0.600000*%
%ADD19C,0.400000*%
%ADD20C,0.254000*%
G04 APERTURE END LIST*
D10*
D11*
X165172000Y-79627000D03*
D12*
X160172000Y-82127000D03*
X160172000Y-77127000D03*
X160172000Y-84627000D03*
X160172000Y-74627000D03*
D13*
X141772000Y-84327000D03*
D14*
X134152000Y-76707000D03*
X141772000Y-81787000D03*
X134152000Y-79247000D03*
X141772000Y-79247000D03*
X134152000Y-81787000D03*
X141772000Y-76707000D03*
X134152000Y-84327000D03*
D15*
X114822000Y-77027000D03*
X114822000Y-82027000D03*
D16*
X112122000Y-76027000D03*
X112122000Y-83027000D03*
D17*
X118172000Y-97927000D03*
X123172000Y-97427000D03*
X118072000Y-115727000D03*
X123072000Y-115227000D03*
X137372000Y-98027000D03*
X142372000Y-97527000D03*
X137372000Y-115727000D03*
X142372000Y-115227000D03*
X156472000Y-98027000D03*
X161472000Y-97527000D03*
X156472000Y-115727000D03*
X161472000Y-115227000D03*
D18*
X132072000Y-89827000D03*
X151272000Y-89927000D03*
X122372000Y-84427000D03*
D19*
X134152000Y-84327000D02*
X134152000Y-87747000D01*
X134152000Y-87747000D02*
X132072000Y-89827000D01*
X151272000Y-89927000D02*
X139752000Y-89927000D01*
X139752000Y-89927000D02*
X134152000Y-84327000D01*
X160172000Y-84627000D02*
X156572000Y-84627000D01*
X156572000Y-84627000D02*
X151272000Y-89927000D01*
X134152000Y-84327000D02*
X122472000Y-84327000D01*
X122472000Y-84327000D02*
X122372000Y-84427000D01*
D20*
G36*
X168962000Y-76917000D02*
X168472000Y-76917000D01*
X168200295Y-76971046D01*
X168007301Y-77100000D01*
X167872000Y-77100000D01*
X167822590Y-77110006D01*
X167780965Y-77138447D01*
X167753685Y-77180841D01*
X167745000Y-77227000D01*
X167745000Y-82327000D01*
X167755006Y-82376410D01*
X167783447Y-82418035D01*
X167825841Y-82445315D01*
X167872000Y-82454000D01*
X168962000Y-82454000D01*
X168962000Y-130317000D01*
X110582000Y-130317000D01*
X110582000Y-117240970D01*
X116737635Y-117240970D01*
X116897418Y-117559739D01*
X117688187Y-117869723D01*
X118537387Y-117853497D01*
X119246582Y-117559739D01*
X119406365Y-117240970D01*
X118072000Y-115906605D01*
X116737635Y-117240970D01*
X110582000Y-117240970D01*
X110582000Y-115343187D01*
X115929277Y-115343187D01*
X115945503Y-116192387D01*
X116239261Y-116901582D01*
X116558030Y-117061365D01*
X117892395Y-115727000D01*
X118251605Y-115727000D01*
X119585970Y-117061365D01*
X119904739Y-116901582D01*
X120214723Y-116110813D01*
X120205915Y-115649815D01*
X120936630Y-115649815D01*
X121260980Y-116434800D01*
X121861041Y-117035909D01*
X122645459Y-117361628D01*
X123494815Y-117362370D01*
X123788624Y-117240970D01*
X136037635Y-117240970D01*
X136197418Y-117559739D01*
X136988187Y-117869723D01*
X137837387Y-117853497D01*
X138546582Y-117559739D01*
X138706365Y-117240970D01*
X137372000Y-115906605D01*
X136037635Y-117240970D01*
X123788624Y-117240970D01*
X124279800Y-117038020D01*
X124880909Y-116437959D01*
X125206628Y-115653541D01*
X125206899Y-115343187D01*
X135229277Y-115343187D01*
X135245503Y-116192387D01*
X135539261Y-116901582D01*
X135858030Y-117061365D01*
X137192395Y-115727000D01*
X137551605Y-115727000D01*
X138885970Y-117061365D01*
X139204739Y-116901582D01*
X139514723Y-116110813D01*
X139505915Y-115649815D01*
X140236630Y-115649815D01*
X140560980Y-116434800D01*
X141161041Y-117035909D01*
X141945459Y-117361628D01*
X142794815Y-117362370D01*
X143088624Y-117240970D01*
X155137635Y-117240970D01*
X155297418Y-117559739D01*
X156088187Y-117869723D01*
X156937387Y-117853497D01*
X157646582Y-117559739D01*
X157806365Y-117240970D01*
X156472000Y-115906605D01*
X155137635Y-117240970D01*
X143088624Y-117240970D01*
X143579800Y-117038020D01*
X144180909Y-116437959D01*
X144506628Y-115653541D01*
X144506899Y-115343187D01*
X154329277Y-115343187D01*
X154345503Y-116192387D01*
X154639261Y-116901582D01*
X154958030Y-117061365D01*
X156292395Y-115727000D01*
X156651605Y-115727000D01*
X157985970Y-117061365D01*
X158304739Y-116901582D01*
X158614723Y-116110813D01*
X158605915Y-115649815D01*
X159336630Y-115649815D01*
X159660980Y-116434800D01*
X160261041Y-117035909D01*
X161045459Y-117361628D01*
X161894815Y-117362370D01*
X162679800Y-117038020D01*
X163280909Y-116437959D01*
X163606628Y-115653541D01*
X163607370Y-114804185D01*
X163283020Y-114019200D01*
X162682959Y-113418091D01*
X161898541Y-113092372D01*
X161049185Y-113091630D01*
X160264200Y-113415980D01*
X159663091Y-114016041D01*
X159337372Y-114800459D01*
X159336630Y-115649815D01*
X158605915Y-115649815D01*
X158598497Y-115261613D01*
X158304739Y-114552418D01*
X157985970Y-114392635D01*
X156651605Y-115727000D01*
X156292395Y-115727000D01*
X154958030Y-114392635D01*
X154639261Y-114552418D01*
X154329277Y-115343187D01*
X144506899Y-115343187D01*
X144507370Y-114804185D01*
X144263110Y-114213030D01*
X155137635Y-114213030D01*
X156472000Y-115547395D01*
X157806365Y-114213030D01*
X157646582Y-113894261D01*
X156855813Y-113584277D01*
X156006613Y-113600503D01*
X155297418Y-113894261D01*
X155137635Y-114213030D01*
X144263110Y-114213030D01*
X144183020Y-114019200D01*
X143582959Y-113418091D01*
X142798541Y-113092372D01*
X141949185Y-113091630D01*
X141164200Y-113415980D01*
X140563091Y-114016041D01*
X140237372Y-114800459D01*
X140236630Y-115649815D01*
X139505915Y-115649815D01*
X139498497Y-115261613D01*
X139204739Y-114552418D01*
X138885970Y-114392635D01*
X137551605Y-115727000D01*
X137192395Y-115727000D01*
X135858030Y-114392635D01*
X135539261Y-114552418D01*
X135229277Y-115343187D01*
X125206899Y-115343187D01*
X125207370Y-114804185D01*
X124963110Y-114213030D01*
X136037635Y-114213030D01*
X137372000Y-115547395D01*
X138706365Y-114213030D01*
X138546582Y-113894261D01*
X137755813Y-113584277D01*
X136906613Y-113600503D01*
X136197418Y-113894261D01*
X136037635Y-114213030D01*
X124963110Y-114213030D01*
X124883020Y-114019200D01*
X124282959Y-113418091D01*
X123498541Y-113092372D01*
X122649185Y-113091630D01*
X121864200Y-113415980D01*
X121263091Y-114016041D01*
X120937372Y-114800459D01*
X120936630Y-115649815D01*
X120205915Y-115649815D01*
X120198497Y-115261613D01*
X119904739Y-114552418D01*
X119585970Y-114392635D01*
X118251605Y-115727000D01*
X117892395Y-115727000D01*
X116558030Y-114392635D01*
X116239261Y-114552418D01*
X115929277Y-115343187D01*
X110582000Y-115343187D01*
X110582000Y-114213030D01*
X116737635Y-114213030D01*
X118072000Y-115547395D01*
X119406365Y-114213030D01*
X119246582Y-113894261D01*
X118455813Y-113584277D01*
X117606613Y-113600503D01*
X116897418Y-113894261D01*
X116737635Y-114213030D01*
X110582000Y-114213030D01*
X110582000Y-99440970D01*
X116837635Y-99440970D01*
X116997418Y-99759739D01*
X117788187Y-100069723D01*
X118637387Y-100053497D01*
X119346582Y-99759739D01*
X119506365Y-99440970D01*
X118172000Y-98106605D01*
X116837635Y-99440970D01*
X110582000Y-99440970D01*
X110582000Y-97543187D01*
X116029277Y-97543187D01*
X116045503Y-98392387D01*
X116339261Y-99101582D01*
X116658030Y-99261365D01*
X117992395Y-97927000D01*
X118351605Y-97927000D01*
X119685970Y-99261365D01*
X120004739Y-99101582D01*
X120314723Y-98310813D01*
X120305915Y-97849815D01*
X121036630Y-97849815D01*
X121360980Y-98634800D01*
X121961041Y-99235909D01*
X122745459Y-99561628D01*
X123594815Y-99562370D01*
X123646606Y-99540970D01*
X136037635Y-99540970D01*
X136197418Y-99859739D01*
X136988187Y-100169723D01*
X137837387Y-100153497D01*
X138546582Y-99859739D01*
X138706365Y-99540970D01*
X137372000Y-98206605D01*
X136037635Y-99540970D01*
X123646606Y-99540970D01*
X124379800Y-99238020D01*
X124980909Y-98637959D01*
X125306628Y-97853541D01*
X125306811Y-97643187D01*
X135229277Y-97643187D01*
X135245503Y-98492387D01*
X135539261Y-99201582D01*
X135858030Y-99361365D01*
X137192395Y-98027000D01*
X137551605Y-98027000D01*
X138885970Y-99361365D01*
X139204739Y-99201582D01*
X139514723Y-98410813D01*
X139505915Y-97949815D01*
X140236630Y-97949815D01*
X140560980Y-98734800D01*
X141161041Y-99335909D01*
X141945459Y-99661628D01*
X142794815Y-99662370D01*
X143088624Y-99540970D01*
X155137635Y-99540970D01*
X155297418Y-99859739D01*
X156088187Y-100169723D01*
X156937387Y-100153497D01*
X157646582Y-99859739D01*
X157806365Y-99540970D01*
X156472000Y-98206605D01*
X155137635Y-99540970D01*
X143088624Y-99540970D01*
X143579800Y-99338020D01*
X144180909Y-98737959D01*
X144506628Y-97953541D01*
X144506899Y-97643187D01*
X154329277Y-97643187D01*
X154345503Y-98492387D01*
X154639261Y-99201582D01*
X154958030Y-99361365D01*
X156292395Y-98027000D01*
X156651605Y-98027000D01*
X157985970Y-99361365D01*
X158304739Y-99201582D01*
X158614723Y-98410813D01*
X158605915Y-97949815D01*
X159336630Y-97949815D01*
X159660980Y-98734800D01*
X160261041Y-99335909D01*
X161045459Y-99661628D01*
X161894815Y-99662370D01*
X162679800Y-99338020D01*
X163280909Y-98737959D01*
X163606628Y-97953541D01*
X163607370Y-97104185D01*
X163283020Y-96319200D01*
X162682959Y-95718091D01*
X161898541Y-95392372D01*
X161049185Y-95391630D01*
X160264200Y-95715980D01*
X159663091Y-96316041D01*
X159337372Y-97100459D01*
X159336630Y-97949815D01*
X158605915Y-97949815D01*
X158598497Y-97561613D01*
X158304739Y-96852418D01*
X157985970Y-96692635D01*
X156651605Y-98027000D01*
X156292395Y-98027000D01*
X154958030Y-96692635D01*
X154639261Y-96852418D01*
X154329277Y-97643187D01*
X144506899Y-97643187D01*
X144507370Y-97104185D01*
X144263110Y-96513030D01*
X155137635Y-96513030D01*
X156472000Y-97847395D01*
X157806365Y-96513030D01*
X157646582Y-96194261D01*
X156855813Y-95884277D01*
X156006613Y-95900503D01*
X155297418Y-96194261D01*
X155137635Y-96513030D01*
X144263110Y-96513030D01*
X144183020Y-96319200D01*
X143582959Y-95718091D01*
X142798541Y-95392372D01*
X141949185Y-95391630D01*
X141164200Y-95715980D01*
X140563091Y-96316041D01*
X140237372Y-97100459D01*
X140236630Y-97949815D01*
X139505915Y-97949815D01*
X139498497Y-97561613D01*
X139204739Y-96852418D01*
X138885970Y-96692635D01*
X137551605Y-98027000D01*
X137192395Y-98027000D01*
X135858030Y-96692635D01*
X135539261Y-96852418D01*
X135229277Y-97643187D01*
X125306811Y-97643187D01*
X125307370Y-97004185D01*
X125104429Y-96513030D01*
X136037635Y-96513030D01*
X137372000Y-97847395D01*
X138706365Y-96513030D01*
X138546582Y-96194261D01*
X137755813Y-95884277D01*
X136906613Y-95900503D01*
X136197418Y-96194261D01*
X136037635Y-96513030D01*
X125104429Y-96513030D01*
X124983020Y-96219200D01*
X124382959Y-95618091D01*
X123598541Y-95292372D01*
X122749185Y-95291630D01*
X121964200Y-95615980D01*
X121363091Y-96216041D01*
X121037372Y-97000459D01*
X121036630Y-97849815D01*
X120305915Y-97849815D01*
X120298497Y-97461613D01*
X120004739Y-96752418D01*
X119685970Y-96592635D01*
X118351605Y-97927000D01*
X117992395Y-97927000D01*
X116658030Y-96592635D01*
X116339261Y-96752418D01*
X116029277Y-97543187D01*
X110582000Y-97543187D01*
X110582000Y-96413030D01*
X116837635Y-96413030D01*
X118172000Y-97747395D01*
X119506365Y-96413030D01*
X119346582Y-96094261D01*
X118555813Y-95784277D01*
X117706613Y-95800503D01*
X116997418Y-96094261D01*
X116837635Y-96413030D01*
X110582000Y-96413030D01*
X110582000Y-84612167D01*
X121436838Y-84612167D01*
X121578883Y-84955943D01*
X121841673Y-85219192D01*
X122185201Y-85361838D01*
X122557167Y-85362162D01*
X122900943Y-85220117D01*
X122959162Y-85162000D01*
X132581281Y-85162000D01*
X132701352Y-85341698D01*
X133166899Y-85652767D01*
X133317000Y-85682624D01*
X133317000Y-87401132D01*
X131783667Y-88934465D01*
X131543057Y-89033883D01*
X131279808Y-89296673D01*
X131137162Y-89640201D01*
X131136838Y-90012167D01*
X131278883Y-90355943D01*
X131541673Y-90619192D01*
X131885201Y-90761838D01*
X132257167Y-90762162D01*
X132600943Y-90620117D01*
X132864192Y-90357327D01*
X132964778Y-90115090D01*
X134742434Y-88337434D01*
X134923439Y-88066541D01*
X134987000Y-87747000D01*
X134987000Y-86342868D01*
X139161566Y-90517434D01*
X139432459Y-90698439D01*
X139752000Y-90762000D01*
X150844766Y-90762000D01*
X151085201Y-90861838D01*
X151457167Y-90862162D01*
X151800943Y-90720117D01*
X152064192Y-90457327D01*
X152164778Y-90215090D01*
X156917868Y-85462000D01*
X158863003Y-85462000D01*
X158965120Y-85614828D01*
X159418339Y-85917660D01*
X159952948Y-86024000D01*
X160391052Y-86024000D01*
X160925661Y-85917660D01*
X161378880Y-85614828D01*
X161681712Y-85161609D01*
X161788052Y-84627000D01*
X161681712Y-84092391D01*
X161378880Y-83639172D01*
X160986513Y-83377000D01*
X161378880Y-83114828D01*
X161681712Y-82661609D01*
X161788052Y-82127000D01*
X161681712Y-81592391D01*
X161378880Y-81139172D01*
X160925661Y-80836340D01*
X160391052Y-80730000D01*
X159952948Y-80730000D01*
X159418339Y-80836340D01*
X158965120Y-81139172D01*
X158662288Y-81592391D01*
X158555948Y-82127000D01*
X158662288Y-82661609D01*
X158965120Y-83114828D01*
X159357487Y-83377000D01*
X158965120Y-83639172D01*
X158863003Y-83792000D01*
X156572000Y-83792000D01*
X156252459Y-83855561D01*
X156025128Y-84007459D01*
X155981566Y-84036566D01*
X150983667Y-89034465D01*
X150844422Y-89092000D01*
X140097868Y-89092000D01*
X135901021Y-84895153D01*
X135913717Y-84876151D01*
X136022950Y-84327000D01*
X135913717Y-83777849D01*
X135602648Y-83312302D01*
X135220562Y-83057000D01*
X135602648Y-82801698D01*
X135913717Y-82336151D01*
X136022950Y-81787000D01*
X135913717Y-81237849D01*
X135602648Y-80772302D01*
X135220562Y-80517000D01*
X135602648Y-80261698D01*
X135913717Y-79796151D01*
X136022950Y-79247000D01*
X139901050Y-79247000D01*
X140010283Y-79796151D01*
X140321352Y-80261698D01*
X140703438Y-80517000D01*
X140321352Y-80772302D01*
X140010283Y-81237849D01*
X139901050Y-81787000D01*
X140010283Y-82336151D01*
X140321352Y-82801698D01*
X140467350Y-82899251D01*
X140336683Y-82923838D01*
X140120559Y-83062910D01*
X139975569Y-83275110D01*
X139924560Y-83527000D01*
X139924560Y-85127000D01*
X139968838Y-85362317D01*
X140107910Y-85578441D01*
X140320110Y-85723431D01*
X140572000Y-85774440D01*
X142972000Y-85774440D01*
X143207317Y-85730162D01*
X143423441Y-85591090D01*
X143568431Y-85378890D01*
X143619440Y-85127000D01*
X143619440Y-83527000D01*
X143575162Y-83291683D01*
X143436090Y-83075559D01*
X143223890Y-82930569D01*
X143074926Y-82900403D01*
X143222648Y-82801698D01*
X143533717Y-82336151D01*
X143642950Y-81787000D01*
X143533717Y-81237849D01*
X143222648Y-80772302D01*
X142840562Y-80517000D01*
X143222648Y-80261698D01*
X143415067Y-79973723D01*
X163779926Y-79973723D01*
X163946632Y-80494365D01*
X164299889Y-80911579D01*
X164785917Y-81161849D01*
X164828930Y-81169220D01*
X165045000Y-81046720D01*
X165045000Y-79754000D01*
X165299000Y-79754000D01*
X165299000Y-81046720D01*
X165515070Y-81169220D01*
X165558083Y-81161849D01*
X166044111Y-80911579D01*
X166397368Y-80494365D01*
X166564074Y-79973723D01*
X166413015Y-79754000D01*
X165299000Y-79754000D01*
X165045000Y-79754000D01*
X163930985Y-79754000D01*
X163779926Y-79973723D01*
X143415067Y-79973723D01*
X143533717Y-79796151D01*
X143636330Y-79280277D01*
X163779926Y-79280277D01*
X163930985Y-79500000D01*
X165045000Y-79500000D01*
X165045000Y-78207280D01*
X165299000Y-78207280D01*
X165299000Y-79500000D01*
X166413015Y-79500000D01*
X166564074Y-79280277D01*
X166397368Y-78759635D01*
X166044111Y-78342421D01*
X165558083Y-78092151D01*
X165515070Y-78084780D01*
X165299000Y-78207280D01*
X165045000Y-78207280D01*
X164828930Y-78084780D01*
X164785917Y-78092151D01*
X164299889Y-78342421D01*
X163946632Y-78759635D01*
X163779926Y-79280277D01*
X143636330Y-79280277D01*
X143642950Y-79247000D01*
X143533717Y-78697849D01*
X143222648Y-78232302D01*
X142844293Y-77979493D01*
X143276500Y-77631896D01*
X143546367Y-77138819D01*
X143563904Y-77056039D01*
X143441915Y-76834000D01*
X141899000Y-76834000D01*
X141899000Y-76854000D01*
X141645000Y-76854000D01*
X141645000Y-76834000D01*
X140102085Y-76834000D01*
X139980096Y-77056039D01*
X139997633Y-77138819D01*
X140267500Y-77631896D01*
X140699707Y-77979493D01*
X140321352Y-78232302D01*
X140010283Y-78697849D01*
X139901050Y-79247000D01*
X136022950Y-79247000D01*
X135913717Y-78697849D01*
X135602648Y-78232302D01*
X135220562Y-77977000D01*
X135602648Y-77721698D01*
X135913717Y-77256151D01*
X136022950Y-76707000D01*
X135953522Y-76357961D01*
X139980096Y-76357961D01*
X140102085Y-76580000D01*
X141645000Y-76580000D01*
X141645000Y-75272000D01*
X141899000Y-75272000D01*
X141899000Y-76580000D01*
X143441915Y-76580000D01*
X143563904Y-76357961D01*
X143546367Y-76275181D01*
X143276500Y-75782104D01*
X142838483Y-75429834D01*
X142299000Y-75272000D01*
X141899000Y-75272000D01*
X141645000Y-75272000D01*
X141245000Y-75272000D01*
X140705517Y-75429834D01*
X140267500Y-75782104D01*
X139997633Y-76275181D01*
X139980096Y-76357961D01*
X135953522Y-76357961D01*
X135913717Y-76157849D01*
X135602648Y-75692302D01*
X135137101Y-75381233D01*
X134587950Y-75272000D01*
X133716050Y-75272000D01*
X133166899Y-75381233D01*
X132701352Y-75692302D01*
X132390283Y-76157849D01*
X132281050Y-76707000D01*
X132390283Y-77256151D01*
X132701352Y-77721698D01*
X133083438Y-77977000D01*
X132701352Y-78232302D01*
X132390283Y-78697849D01*
X132281050Y-79247000D01*
X132390283Y-79796151D01*
X132701352Y-80261698D01*
X133083438Y-80517000D01*
X132701352Y-80772302D01*
X132390283Y-81237849D01*
X132281050Y-81787000D01*
X132390283Y-82336151D01*
X132701352Y-82801698D01*
X133083438Y-83057000D01*
X132701352Y-83312302D01*
X132581281Y-83492000D01*
X122472000Y-83492000D01*
X122471568Y-83492086D01*
X122186833Y-83491838D01*
X121843057Y-83633883D01*
X121579808Y-83896673D01*
X121437162Y-84240201D01*
X121436838Y-84612167D01*
X110582000Y-84612167D01*
X110582000Y-83328874D01*
X110752881Y-83328874D01*
X110954632Y-83739763D01*
X111295322Y-84027002D01*
X111720000Y-84162000D01*
X111995000Y-84162000D01*
X111995000Y-83154000D01*
X112249000Y-83154000D01*
X112249000Y-84162000D01*
X112524000Y-84162000D01*
X112948678Y-84027002D01*
X113289368Y-83739763D01*
X113491119Y-83328874D01*
X113364954Y-83154000D01*
X112249000Y-83154000D01*
X111995000Y-83154000D01*
X110879046Y-83154000D01*
X110752881Y-83328874D01*
X110582000Y-83328874D01*
X110582000Y-82725126D01*
X110752881Y-82725126D01*
X110879046Y-82900000D01*
X111995000Y-82900000D01*
X111995000Y-81892000D01*
X112249000Y-81892000D01*
X112249000Y-82900000D01*
X113364954Y-82900000D01*
X113491119Y-82725126D01*
X113296191Y-82328131D01*
X113720771Y-82328131D01*
X113862432Y-82738049D01*
X114150179Y-83062552D01*
X114524062Y-83246268D01*
X114695000Y-83119734D01*
X114695000Y-82154000D01*
X114949000Y-82154000D01*
X114949000Y-83119734D01*
X115119938Y-83246268D01*
X115493821Y-83062552D01*
X115781568Y-82738049D01*
X115923229Y-82328131D01*
X115774563Y-82154000D01*
X114949000Y-82154000D01*
X114695000Y-82154000D01*
X113869437Y-82154000D01*
X113720771Y-82328131D01*
X113296191Y-82328131D01*
X113289368Y-82314237D01*
X112948678Y-82026998D01*
X112524000Y-81892000D01*
X112249000Y-81892000D01*
X111995000Y-81892000D01*
X111720000Y-81892000D01*
X111295322Y-82026998D01*
X110954632Y-82314237D01*
X110752881Y-82725126D01*
X110582000Y-82725126D01*
X110582000Y-81725869D01*
X113720771Y-81725869D01*
X113869437Y-81900000D01*
X114695000Y-81900000D01*
X114695000Y-80934266D01*
X114949000Y-80934266D01*
X114949000Y-81900000D01*
X115774563Y-81900000D01*
X115923229Y-81725869D01*
X115781568Y-81315951D01*
X115493821Y-80991448D01*
X115119938Y-80807732D01*
X114949000Y-80934266D01*
X114695000Y-80934266D01*
X114524062Y-80807732D01*
X114150179Y-80991448D01*
X113862432Y-81315951D01*
X113720771Y-81725869D01*
X110582000Y-81725869D01*
X110582000Y-77328131D01*
X113720771Y-77328131D01*
X113862432Y-77738049D01*
X114150179Y-78062552D01*
X114524062Y-78246268D01*
X114695000Y-78119734D01*
X114695000Y-77154000D01*
X114949000Y-77154000D01*
X114949000Y-78119734D01*
X115119938Y-78246268D01*
X115493821Y-78062552D01*
X115781568Y-77738049D01*
X115923229Y-77328131D01*
X115774563Y-77154000D01*
X114949000Y-77154000D01*
X114695000Y-77154000D01*
X113869437Y-77154000D01*
X113720771Y-77328131D01*
X110582000Y-77328131D01*
X110582000Y-76328874D01*
X110752881Y-76328874D01*
X110954632Y-76739763D01*
X111295322Y-77027002D01*
X111720000Y-77162000D01*
X111995000Y-77162000D01*
X111995000Y-76154000D01*
X112249000Y-76154000D01*
X112249000Y-77162000D01*
X112524000Y-77162000D01*
X112948678Y-77027002D01*
X113289368Y-76739763D01*
X113296190Y-76725869D01*
X113720771Y-76725869D01*
X113869437Y-76900000D01*
X114695000Y-76900000D01*
X114695000Y-75934266D01*
X114949000Y-75934266D01*
X114949000Y-76900000D01*
X115774563Y-76900000D01*
X115923229Y-76725869D01*
X115781568Y-76315951D01*
X115493821Y-75991448D01*
X115119938Y-75807732D01*
X114949000Y-75934266D01*
X114695000Y-75934266D01*
X114524062Y-75807732D01*
X114150179Y-75991448D01*
X113862432Y-76315951D01*
X113720771Y-76725869D01*
X113296190Y-76725869D01*
X113491119Y-76328874D01*
X113364954Y-76154000D01*
X112249000Y-76154000D01*
X111995000Y-76154000D01*
X110879046Y-76154000D01*
X110752881Y-76328874D01*
X110582000Y-76328874D01*
X110582000Y-75725126D01*
X110752881Y-75725126D01*
X110879046Y-75900000D01*
X111995000Y-75900000D01*
X111995000Y-74892000D01*
X112249000Y-74892000D01*
X112249000Y-75900000D01*
X113364954Y-75900000D01*
X113491119Y-75725126D01*
X113289368Y-75314237D01*
X112948678Y-75026998D01*
X112524000Y-74892000D01*
X112249000Y-74892000D01*
X111995000Y-74892000D01*
X111720000Y-74892000D01*
X111295322Y-75026998D01*
X110954632Y-75314237D01*
X110752881Y-75725126D01*
X110582000Y-75725126D01*
X110582000Y-74627000D01*
X158555948Y-74627000D01*
X158662288Y-75161609D01*
X158965120Y-75614828D01*
X159357487Y-75877000D01*
X158965120Y-76139172D01*
X158662288Y-76592391D01*
X158555948Y-77127000D01*
X158662288Y-77661609D01*
X158965120Y-78114828D01*
X159418339Y-78417660D01*
X159952948Y-78524000D01*
X160391052Y-78524000D01*
X160925661Y-78417660D01*
X161378880Y-78114828D01*
X161681712Y-77661609D01*
X161788052Y-77127000D01*
X161681712Y-76592391D01*
X161378880Y-76139172D01*
X160986513Y-75877000D01*
X161378880Y-75614828D01*
X161681712Y-75161609D01*
X161788052Y-74627000D01*
X161681712Y-74092391D01*
X161378880Y-73639172D01*
X160925661Y-73336340D01*
X160391052Y-73230000D01*
X159952948Y-73230000D01*
X159418339Y-73336340D01*
X158965120Y-73639172D01*
X158662288Y-74092391D01*
X158555948Y-74627000D01*
X110582000Y-74627000D01*
X110582000Y-72237000D01*
X168962000Y-72237000D01*
X168962000Y-76917000D01*
X168962000Y-76917000D01*
G37*
X168962000Y-76917000D02*
X168472000Y-76917000D01*
X168200295Y-76971046D01*
X168007301Y-77100000D01*
X167872000Y-77100000D01*
X167822590Y-77110006D01*
X167780965Y-77138447D01*
X167753685Y-77180841D01*
X167745000Y-77227000D01*
X167745000Y-82327000D01*
X167755006Y-82376410D01*
X167783447Y-82418035D01*
X167825841Y-82445315D01*
X167872000Y-82454000D01*
X168962000Y-82454000D01*
X168962000Y-130317000D01*
X110582000Y-130317000D01*
X110582000Y-117240970D01*
X116737635Y-117240970D01*
X116897418Y-117559739D01*
X117688187Y-117869723D01*
X118537387Y-117853497D01*
X119246582Y-117559739D01*
X119406365Y-117240970D01*
X118072000Y-115906605D01*
X116737635Y-117240970D01*
X110582000Y-117240970D01*
X110582000Y-115343187D01*
X115929277Y-115343187D01*
X115945503Y-116192387D01*
X116239261Y-116901582D01*
X116558030Y-117061365D01*
X117892395Y-115727000D01*
X118251605Y-115727000D01*
X119585970Y-117061365D01*
X119904739Y-116901582D01*
X120214723Y-116110813D01*
X120205915Y-115649815D01*
X120936630Y-115649815D01*
X121260980Y-116434800D01*
X121861041Y-117035909D01*
X122645459Y-117361628D01*
X123494815Y-117362370D01*
X123788624Y-117240970D01*
X136037635Y-117240970D01*
X136197418Y-117559739D01*
X136988187Y-117869723D01*
X137837387Y-117853497D01*
X138546582Y-117559739D01*
X138706365Y-117240970D01*
X137372000Y-115906605D01*
X136037635Y-117240970D01*
X123788624Y-117240970D01*
X124279800Y-117038020D01*
X124880909Y-116437959D01*
X125206628Y-115653541D01*
X125206899Y-115343187D01*
X135229277Y-115343187D01*
X135245503Y-116192387D01*
X135539261Y-116901582D01*
X135858030Y-117061365D01*
X137192395Y-115727000D01*
X137551605Y-115727000D01*
X138885970Y-117061365D01*
X139204739Y-116901582D01*
X139514723Y-116110813D01*
X139505915Y-115649815D01*
X140236630Y-115649815D01*
X140560980Y-116434800D01*
X141161041Y-117035909D01*
X141945459Y-117361628D01*
X142794815Y-117362370D01*
X143088624Y-117240970D01*
X155137635Y-117240970D01*
X155297418Y-117559739D01*
X156088187Y-117869723D01*
X156937387Y-117853497D01*
X157646582Y-117559739D01*
X157806365Y-117240970D01*
X156472000Y-115906605D01*
X155137635Y-117240970D01*
X143088624Y-117240970D01*
X143579800Y-117038020D01*
X144180909Y-116437959D01*
X144506628Y-115653541D01*
X144506899Y-115343187D01*
X154329277Y-115343187D01*
X154345503Y-116192387D01*
X154639261Y-116901582D01*
X154958030Y-117061365D01*
X156292395Y-115727000D01*
X156651605Y-115727000D01*
X157985970Y-117061365D01*
X158304739Y-116901582D01*
X158614723Y-116110813D01*
X158605915Y-115649815D01*
X159336630Y-115649815D01*
X159660980Y-116434800D01*
X160261041Y-117035909D01*
X161045459Y-117361628D01*
X161894815Y-117362370D01*
X162679800Y-117038020D01*
X163280909Y-116437959D01*
X163606628Y-115653541D01*
X163607370Y-114804185D01*
X163283020Y-114019200D01*
X162682959Y-113418091D01*
X161898541Y-113092372D01*
X161049185Y-113091630D01*
X160264200Y-113415980D01*
X159663091Y-114016041D01*
X159337372Y-114800459D01*
X159336630Y-115649815D01*
X158605915Y-115649815D01*
X158598497Y-115261613D01*
X158304739Y-114552418D01*
X157985970Y-114392635D01*
X156651605Y-115727000D01*
X156292395Y-115727000D01*
X154958030Y-114392635D01*
X154639261Y-114552418D01*
X154329277Y-115343187D01*
X144506899Y-115343187D01*
X144507370Y-114804185D01*
X144263110Y-114213030D01*
X155137635Y-114213030D01*
X156472000Y-115547395D01*
X157806365Y-114213030D01*
X157646582Y-113894261D01*
X156855813Y-113584277D01*
X156006613Y-113600503D01*
X155297418Y-113894261D01*
X155137635Y-114213030D01*
X144263110Y-114213030D01*
X144183020Y-114019200D01*
X143582959Y-113418091D01*
X142798541Y-113092372D01*
X141949185Y-113091630D01*
X141164200Y-113415980D01*
X140563091Y-114016041D01*
X140237372Y-114800459D01*
X140236630Y-115649815D01*
X139505915Y-115649815D01*
X139498497Y-115261613D01*
X139204739Y-114552418D01*
X138885970Y-114392635D01*
X137551605Y-115727000D01*
X137192395Y-115727000D01*
X135858030Y-114392635D01*
X135539261Y-114552418D01*
X135229277Y-115343187D01*
X125206899Y-115343187D01*
X125207370Y-114804185D01*
X124963110Y-114213030D01*
X136037635Y-114213030D01*
X137372000Y-115547395D01*
X138706365Y-114213030D01*
X138546582Y-113894261D01*
X137755813Y-113584277D01*
X136906613Y-113600503D01*
X136197418Y-113894261D01*
X136037635Y-114213030D01*
X124963110Y-114213030D01*
X124883020Y-114019200D01*
X124282959Y-113418091D01*
X123498541Y-113092372D01*
X122649185Y-113091630D01*
X121864200Y-113415980D01*
X121263091Y-114016041D01*
X120937372Y-114800459D01*
X120936630Y-115649815D01*
X120205915Y-115649815D01*
X120198497Y-115261613D01*
X119904739Y-114552418D01*
X119585970Y-114392635D01*
X118251605Y-115727000D01*
X117892395Y-115727000D01*
X116558030Y-114392635D01*
X116239261Y-114552418D01*
X115929277Y-115343187D01*
X110582000Y-115343187D01*
X110582000Y-114213030D01*
X116737635Y-114213030D01*
X118072000Y-115547395D01*
X119406365Y-114213030D01*
X119246582Y-113894261D01*
X118455813Y-113584277D01*
X117606613Y-113600503D01*
X116897418Y-113894261D01*
X116737635Y-114213030D01*
X110582000Y-114213030D01*
X110582000Y-99440970D01*
X116837635Y-99440970D01*
X116997418Y-99759739D01*
X117788187Y-100069723D01*
X118637387Y-100053497D01*
X119346582Y-99759739D01*
X119506365Y-99440970D01*
X118172000Y-98106605D01*
X116837635Y-99440970D01*
X110582000Y-99440970D01*
X110582000Y-97543187D01*
X116029277Y-97543187D01*
X116045503Y-98392387D01*
X116339261Y-99101582D01*
X116658030Y-99261365D01*
X117992395Y-97927000D01*
X118351605Y-97927000D01*
X119685970Y-99261365D01*
X120004739Y-99101582D01*
X120314723Y-98310813D01*
X120305915Y-97849815D01*
X121036630Y-97849815D01*
X121360980Y-98634800D01*
X121961041Y-99235909D01*
X122745459Y-99561628D01*
X123594815Y-99562370D01*
X123646606Y-99540970D01*
X136037635Y-99540970D01*
X136197418Y-99859739D01*
X136988187Y-100169723D01*
X137837387Y-100153497D01*
X138546582Y-99859739D01*
X138706365Y-99540970D01*
X137372000Y-98206605D01*
X136037635Y-99540970D01*
X123646606Y-99540970D01*
X124379800Y-99238020D01*
X124980909Y-98637959D01*
X125306628Y-97853541D01*
X125306811Y-97643187D01*
X135229277Y-97643187D01*
X135245503Y-98492387D01*
X135539261Y-99201582D01*
X135858030Y-99361365D01*
X137192395Y-98027000D01*
X137551605Y-98027000D01*
X138885970Y-99361365D01*
X139204739Y-99201582D01*
X139514723Y-98410813D01*
X139505915Y-97949815D01*
X140236630Y-97949815D01*
X140560980Y-98734800D01*
X141161041Y-99335909D01*
X141945459Y-99661628D01*
X142794815Y-99662370D01*
X143088624Y-99540970D01*
X155137635Y-99540970D01*
X155297418Y-99859739D01*
X156088187Y-100169723D01*
X156937387Y-100153497D01*
X157646582Y-99859739D01*
X157806365Y-99540970D01*
X156472000Y-98206605D01*
X155137635Y-99540970D01*
X143088624Y-99540970D01*
X143579800Y-99338020D01*
X144180909Y-98737959D01*
X144506628Y-97953541D01*
X144506899Y-97643187D01*
X154329277Y-97643187D01*
X154345503Y-98492387D01*
X154639261Y-99201582D01*
X154958030Y-99361365D01*
X156292395Y-98027000D01*
X156651605Y-98027000D01*
X157985970Y-99361365D01*
X158304739Y-99201582D01*
X158614723Y-98410813D01*
X158605915Y-97949815D01*
X159336630Y-97949815D01*
X159660980Y-98734800D01*
X160261041Y-99335909D01*
X161045459Y-99661628D01*
X161894815Y-99662370D01*
X162679800Y-99338020D01*
X163280909Y-98737959D01*
X163606628Y-97953541D01*
X163607370Y-97104185D01*
X163283020Y-96319200D01*
X162682959Y-95718091D01*
X161898541Y-95392372D01*
X161049185Y-95391630D01*
X160264200Y-95715980D01*
X159663091Y-96316041D01*
X159337372Y-97100459D01*
X159336630Y-97949815D01*
X158605915Y-97949815D01*
X158598497Y-97561613D01*
X158304739Y-96852418D01*
X157985970Y-96692635D01*
X156651605Y-98027000D01*
X156292395Y-98027000D01*
X154958030Y-96692635D01*
X154639261Y-96852418D01*
X154329277Y-97643187D01*
X144506899Y-97643187D01*
X144507370Y-97104185D01*
X144263110Y-96513030D01*
X155137635Y-96513030D01*
X156472000Y-97847395D01*
X157806365Y-96513030D01*
X157646582Y-96194261D01*
X156855813Y-95884277D01*
X156006613Y-95900503D01*
X155297418Y-96194261D01*
X155137635Y-96513030D01*
X144263110Y-96513030D01*
X144183020Y-96319200D01*
X143582959Y-95718091D01*
X142798541Y-95392372D01*
X141949185Y-95391630D01*
X141164200Y-95715980D01*
X140563091Y-96316041D01*
X140237372Y-97100459D01*
X140236630Y-97949815D01*
X139505915Y-97949815D01*
X139498497Y-97561613D01*
X139204739Y-96852418D01*
X138885970Y-96692635D01*
X137551605Y-98027000D01*
X137192395Y-98027000D01*
X135858030Y-96692635D01*
X135539261Y-96852418D01*
X135229277Y-97643187D01*
X125306811Y-97643187D01*
X125307370Y-97004185D01*
X125104429Y-96513030D01*
X136037635Y-96513030D01*
X137372000Y-97847395D01*
X138706365Y-96513030D01*
X138546582Y-96194261D01*
X137755813Y-95884277D01*
X136906613Y-95900503D01*
X136197418Y-96194261D01*
X136037635Y-96513030D01*
X125104429Y-96513030D01*
X124983020Y-96219200D01*
X124382959Y-95618091D01*
X123598541Y-95292372D01*
X122749185Y-95291630D01*
X121964200Y-95615980D01*
X121363091Y-96216041D01*
X121037372Y-97000459D01*
X121036630Y-97849815D01*
X120305915Y-97849815D01*
X120298497Y-97461613D01*
X120004739Y-96752418D01*
X119685970Y-96592635D01*
X118351605Y-97927000D01*
X117992395Y-97927000D01*
X116658030Y-96592635D01*
X116339261Y-96752418D01*
X116029277Y-97543187D01*
X110582000Y-97543187D01*
X110582000Y-96413030D01*
X116837635Y-96413030D01*
X118172000Y-97747395D01*
X119506365Y-96413030D01*
X119346582Y-96094261D01*
X118555813Y-95784277D01*
X117706613Y-95800503D01*
X116997418Y-96094261D01*
X116837635Y-96413030D01*
X110582000Y-96413030D01*
X110582000Y-84612167D01*
X121436838Y-84612167D01*
X121578883Y-84955943D01*
X121841673Y-85219192D01*
X122185201Y-85361838D01*
X122557167Y-85362162D01*
X122900943Y-85220117D01*
X122959162Y-85162000D01*
X132581281Y-85162000D01*
X132701352Y-85341698D01*
X133166899Y-85652767D01*
X133317000Y-85682624D01*
X133317000Y-87401132D01*
X131783667Y-88934465D01*
X131543057Y-89033883D01*
X131279808Y-89296673D01*
X131137162Y-89640201D01*
X131136838Y-90012167D01*
X131278883Y-90355943D01*
X131541673Y-90619192D01*
X131885201Y-90761838D01*
X132257167Y-90762162D01*
X132600943Y-90620117D01*
X132864192Y-90357327D01*
X132964778Y-90115090D01*
X134742434Y-88337434D01*
X134923439Y-88066541D01*
X134987000Y-87747000D01*
X134987000Y-86342868D01*
X139161566Y-90517434D01*
X139432459Y-90698439D01*
X139752000Y-90762000D01*
X150844766Y-90762000D01*
X151085201Y-90861838D01*
X151457167Y-90862162D01*
X151800943Y-90720117D01*
X152064192Y-90457327D01*
X152164778Y-90215090D01*
X156917868Y-85462000D01*
X158863003Y-85462000D01*
X158965120Y-85614828D01*
X159418339Y-85917660D01*
X159952948Y-86024000D01*
X160391052Y-86024000D01*
X160925661Y-85917660D01*
X161378880Y-85614828D01*
X161681712Y-85161609D01*
X161788052Y-84627000D01*
X161681712Y-84092391D01*
X161378880Y-83639172D01*
X160986513Y-83377000D01*
X161378880Y-83114828D01*
X161681712Y-82661609D01*
X161788052Y-82127000D01*
X161681712Y-81592391D01*
X161378880Y-81139172D01*
X160925661Y-80836340D01*
X160391052Y-80730000D01*
X159952948Y-80730000D01*
X159418339Y-80836340D01*
X158965120Y-81139172D01*
X158662288Y-81592391D01*
X158555948Y-82127000D01*
X158662288Y-82661609D01*
X158965120Y-83114828D01*
X159357487Y-83377000D01*
X158965120Y-83639172D01*
X158863003Y-83792000D01*
X156572000Y-83792000D01*
X156252459Y-83855561D01*
X156025128Y-84007459D01*
X155981566Y-84036566D01*
X150983667Y-89034465D01*
X150844422Y-89092000D01*
X140097868Y-89092000D01*
X135901021Y-84895153D01*
X135913717Y-84876151D01*
X136022950Y-84327000D01*
X135913717Y-83777849D01*
X135602648Y-83312302D01*
X135220562Y-83057000D01*
X135602648Y-82801698D01*
X135913717Y-82336151D01*
X136022950Y-81787000D01*
X135913717Y-81237849D01*
X135602648Y-80772302D01*
X135220562Y-80517000D01*
X135602648Y-80261698D01*
X135913717Y-79796151D01*
X136022950Y-79247000D01*
X139901050Y-79247000D01*
X140010283Y-79796151D01*
X140321352Y-80261698D01*
X140703438Y-80517000D01*
X140321352Y-80772302D01*
X140010283Y-81237849D01*
X139901050Y-81787000D01*
X140010283Y-82336151D01*
X140321352Y-82801698D01*
X140467350Y-82899251D01*
X140336683Y-82923838D01*
X140120559Y-83062910D01*
X139975569Y-83275110D01*
X139924560Y-83527000D01*
X139924560Y-85127000D01*
X139968838Y-85362317D01*
X140107910Y-85578441D01*
X140320110Y-85723431D01*
X140572000Y-85774440D01*
X142972000Y-85774440D01*
X143207317Y-85730162D01*
X143423441Y-85591090D01*
X143568431Y-85378890D01*
X143619440Y-85127000D01*
X143619440Y-83527000D01*
X143575162Y-83291683D01*
X143436090Y-83075559D01*
X143223890Y-82930569D01*
X143074926Y-82900403D01*
X143222648Y-82801698D01*
X143533717Y-82336151D01*
X143642950Y-81787000D01*
X143533717Y-81237849D01*
X143222648Y-80772302D01*
X142840562Y-80517000D01*
X143222648Y-80261698D01*
X143415067Y-79973723D01*
X163779926Y-79973723D01*
X163946632Y-80494365D01*
X164299889Y-80911579D01*
X164785917Y-81161849D01*
X164828930Y-81169220D01*
X165045000Y-81046720D01*
X165045000Y-79754000D01*
X165299000Y-79754000D01*
X165299000Y-81046720D01*
X165515070Y-81169220D01*
X165558083Y-81161849D01*
X166044111Y-80911579D01*
X166397368Y-80494365D01*
X166564074Y-79973723D01*
X166413015Y-79754000D01*
X165299000Y-79754000D01*
X165045000Y-79754000D01*
X163930985Y-79754000D01*
X163779926Y-79973723D01*
X143415067Y-79973723D01*
X143533717Y-79796151D01*
X143636330Y-79280277D01*
X163779926Y-79280277D01*
X163930985Y-79500000D01*
X165045000Y-79500000D01*
X165045000Y-78207280D01*
X165299000Y-78207280D01*
X165299000Y-79500000D01*
X166413015Y-79500000D01*
X166564074Y-79280277D01*
X166397368Y-78759635D01*
X166044111Y-78342421D01*
X165558083Y-78092151D01*
X165515070Y-78084780D01*
X165299000Y-78207280D01*
X165045000Y-78207280D01*
X164828930Y-78084780D01*
X164785917Y-78092151D01*
X164299889Y-78342421D01*
X163946632Y-78759635D01*
X163779926Y-79280277D01*
X143636330Y-79280277D01*
X143642950Y-79247000D01*
X143533717Y-78697849D01*
X143222648Y-78232302D01*
X142844293Y-77979493D01*
X143276500Y-77631896D01*
X143546367Y-77138819D01*
X143563904Y-77056039D01*
X143441915Y-76834000D01*
X141899000Y-76834000D01*
X141899000Y-76854000D01*
X141645000Y-76854000D01*
X141645000Y-76834000D01*
X140102085Y-76834000D01*
X139980096Y-77056039D01*
X139997633Y-77138819D01*
X140267500Y-77631896D01*
X140699707Y-77979493D01*
X140321352Y-78232302D01*
X140010283Y-78697849D01*
X139901050Y-79247000D01*
X136022950Y-79247000D01*
X135913717Y-78697849D01*
X135602648Y-78232302D01*
X135220562Y-77977000D01*
X135602648Y-77721698D01*
X135913717Y-77256151D01*
X136022950Y-76707000D01*
X135953522Y-76357961D01*
X139980096Y-76357961D01*
X140102085Y-76580000D01*
X141645000Y-76580000D01*
X141645000Y-75272000D01*
X141899000Y-75272000D01*
X141899000Y-76580000D01*
X143441915Y-76580000D01*
X143563904Y-76357961D01*
X143546367Y-76275181D01*
X143276500Y-75782104D01*
X142838483Y-75429834D01*
X142299000Y-75272000D01*
X141899000Y-75272000D01*
X141645000Y-75272000D01*
X141245000Y-75272000D01*
X140705517Y-75429834D01*
X140267500Y-75782104D01*
X139997633Y-76275181D01*
X139980096Y-76357961D01*
X135953522Y-76357961D01*
X135913717Y-76157849D01*
X135602648Y-75692302D01*
X135137101Y-75381233D01*
X134587950Y-75272000D01*
X133716050Y-75272000D01*
X133166899Y-75381233D01*
X132701352Y-75692302D01*
X132390283Y-76157849D01*
X132281050Y-76707000D01*
X132390283Y-77256151D01*
X132701352Y-77721698D01*
X133083438Y-77977000D01*
X132701352Y-78232302D01*
X132390283Y-78697849D01*
X132281050Y-79247000D01*
X132390283Y-79796151D01*
X132701352Y-80261698D01*
X133083438Y-80517000D01*
X132701352Y-80772302D01*
X132390283Y-81237849D01*
X132281050Y-81787000D01*
X132390283Y-82336151D01*
X132701352Y-82801698D01*
X133083438Y-83057000D01*
X132701352Y-83312302D01*
X132581281Y-83492000D01*
X122472000Y-83492000D01*
X122471568Y-83492086D01*
X122186833Y-83491838D01*
X121843057Y-83633883D01*
X121579808Y-83896673D01*
X121437162Y-84240201D01*
X121436838Y-84612167D01*
X110582000Y-84612167D01*
X110582000Y-83328874D01*
X110752881Y-83328874D01*
X110954632Y-83739763D01*
X111295322Y-84027002D01*
X111720000Y-84162000D01*
X111995000Y-84162000D01*
X111995000Y-83154000D01*
X112249000Y-83154000D01*
X112249000Y-84162000D01*
X112524000Y-84162000D01*
X112948678Y-84027002D01*
X113289368Y-83739763D01*
X113491119Y-83328874D01*
X113364954Y-83154000D01*
X112249000Y-83154000D01*
X111995000Y-83154000D01*
X110879046Y-83154000D01*
X110752881Y-83328874D01*
X110582000Y-83328874D01*
X110582000Y-82725126D01*
X110752881Y-82725126D01*
X110879046Y-82900000D01*
X111995000Y-82900000D01*
X111995000Y-81892000D01*
X112249000Y-81892000D01*
X112249000Y-82900000D01*
X113364954Y-82900000D01*
X113491119Y-82725126D01*
X113296191Y-82328131D01*
X113720771Y-82328131D01*
X113862432Y-82738049D01*
X114150179Y-83062552D01*
X114524062Y-83246268D01*
X114695000Y-83119734D01*
X114695000Y-82154000D01*
X114949000Y-82154000D01*
X114949000Y-83119734D01*
X115119938Y-83246268D01*
X115493821Y-83062552D01*
X115781568Y-82738049D01*
X115923229Y-82328131D01*
X115774563Y-82154000D01*
X114949000Y-82154000D01*
X114695000Y-82154000D01*
X113869437Y-82154000D01*
X113720771Y-82328131D01*
X113296191Y-82328131D01*
X113289368Y-82314237D01*
X112948678Y-82026998D01*
X112524000Y-81892000D01*
X112249000Y-81892000D01*
X111995000Y-81892000D01*
X111720000Y-81892000D01*
X111295322Y-82026998D01*
X110954632Y-82314237D01*
X110752881Y-82725126D01*
X110582000Y-82725126D01*
X110582000Y-81725869D01*
X113720771Y-81725869D01*
X113869437Y-81900000D01*
X114695000Y-81900000D01*
X114695000Y-80934266D01*
X114949000Y-80934266D01*
X114949000Y-81900000D01*
X115774563Y-81900000D01*
X115923229Y-81725869D01*
X115781568Y-81315951D01*
X115493821Y-80991448D01*
X115119938Y-80807732D01*
X114949000Y-80934266D01*
X114695000Y-80934266D01*
X114524062Y-80807732D01*
X114150179Y-80991448D01*
X113862432Y-81315951D01*
X113720771Y-81725869D01*
X110582000Y-81725869D01*
X110582000Y-77328131D01*
X113720771Y-77328131D01*
X113862432Y-77738049D01*
X114150179Y-78062552D01*
X114524062Y-78246268D01*
X114695000Y-78119734D01*
X114695000Y-77154000D01*
X114949000Y-77154000D01*
X114949000Y-78119734D01*
X115119938Y-78246268D01*
X115493821Y-78062552D01*
X115781568Y-77738049D01*
X115923229Y-77328131D01*
X115774563Y-77154000D01*
X114949000Y-77154000D01*
X114695000Y-77154000D01*
X113869437Y-77154000D01*
X113720771Y-77328131D01*
X110582000Y-77328131D01*
X110582000Y-76328874D01*
X110752881Y-76328874D01*
X110954632Y-76739763D01*
X111295322Y-77027002D01*
X111720000Y-77162000D01*
X111995000Y-77162000D01*
X111995000Y-76154000D01*
X112249000Y-76154000D01*
X112249000Y-77162000D01*
X112524000Y-77162000D01*
X112948678Y-77027002D01*
X113289368Y-76739763D01*
X113296190Y-76725869D01*
X113720771Y-76725869D01*
X113869437Y-76900000D01*
X114695000Y-76900000D01*
X114695000Y-75934266D01*
X114949000Y-75934266D01*
X114949000Y-76900000D01*
X115774563Y-76900000D01*
X115923229Y-76725869D01*
X115781568Y-76315951D01*
X115493821Y-75991448D01*
X115119938Y-75807732D01*
X114949000Y-75934266D01*
X114695000Y-75934266D01*
X114524062Y-75807732D01*
X114150179Y-75991448D01*
X113862432Y-76315951D01*
X113720771Y-76725869D01*
X113296190Y-76725869D01*
X113491119Y-76328874D01*
X113364954Y-76154000D01*
X112249000Y-76154000D01*
X111995000Y-76154000D01*
X110879046Y-76154000D01*
X110752881Y-76328874D01*
X110582000Y-76328874D01*
X110582000Y-75725126D01*
X110752881Y-75725126D01*
X110879046Y-75900000D01*
X111995000Y-75900000D01*
X111995000Y-74892000D01*
X112249000Y-74892000D01*
X112249000Y-75900000D01*
X113364954Y-75900000D01*
X113491119Y-75725126D01*
X113289368Y-75314237D01*
X112948678Y-75026998D01*
X112524000Y-74892000D01*
X112249000Y-74892000D01*
X111995000Y-74892000D01*
X111720000Y-74892000D01*
X111295322Y-75026998D01*
X110954632Y-75314237D01*
X110752881Y-75725126D01*
X110582000Y-75725126D01*
X110582000Y-74627000D01*
X158555948Y-74627000D01*
X158662288Y-75161609D01*
X158965120Y-75614828D01*
X159357487Y-75877000D01*
X158965120Y-76139172D01*
X158662288Y-76592391D01*
X158555948Y-77127000D01*
X158662288Y-77661609D01*
X158965120Y-78114828D01*
X159418339Y-78417660D01*
X159952948Y-78524000D01*
X160391052Y-78524000D01*
X160925661Y-78417660D01*
X161378880Y-78114828D01*
X161681712Y-77661609D01*
X161788052Y-77127000D01*
X161681712Y-76592391D01*
X161378880Y-76139172D01*
X160986513Y-75877000D01*
X161378880Y-75614828D01*
X161681712Y-75161609D01*
X161788052Y-74627000D01*
X161681712Y-74092391D01*
X161378880Y-73639172D01*
X160925661Y-73336340D01*
X160391052Y-73230000D01*
X159952948Y-73230000D01*
X159418339Y-73336340D01*
X158965120Y-73639172D01*
X158662288Y-74092391D01*
X158555948Y-74627000D01*
X110582000Y-74627000D01*
X110582000Y-72237000D01*
X168962000Y-72237000D01*
X168962000Y-76917000D01*
M02*
