M48
;DRILL file {KiCad 4.0.6} date Sunday, July 23, 2017 'AMt' 01:21:28 AM
;FORMAT={-:-/ absolute / inch / decimal}
FMAT,2
INCH,TZ
T1C0.016
T2C0.020
T3C0.022
T4C0.030
T5C0.031
T6C0.059
%
G90
G05
M72
T1
X4.8178Y-3.3239
X5.1997Y-3.5365
X5.9556Y-3.5404
T5
X5.2816Y-3.02
X5.2816Y-3.12
X5.2816Y-3.22
X5.2816Y-3.32
X5.5816Y-3.02
X5.5816Y-3.12
X5.5816Y-3.22
X5.5816Y-3.32
T6
X4.6485Y-4.5562
X4.6524Y-3.8554
X4.8454Y-4.5365
X4.8493Y-3.8357
X5.4083Y-3.8593
X5.4083Y-4.5562
X5.6052Y-3.8396
X5.6052Y-4.5365
X6.1603Y-3.8593
X6.1603Y-4.5562
X6.3572Y-3.8396
X6.3572Y-4.5365
T2
X4.4015Y-2.9932G85X4.427Y-2.9932
G05
X4.4015Y-3.2688G85X4.427Y-3.2688
G05
T3
X4.5206Y-3.0267G85X4.5206Y-3.0385
G05
X4.5206Y-3.2235G85X4.5206Y-3.2353
G05
T4
X6.3146Y-2.9381G85X6.2974Y-2.9381
G05
X6.3146Y-3.0365G85X6.2974Y-3.0365
G05
X6.3146Y-3.2333G85X6.2974Y-3.2333
G05
X6.3146Y-3.3318G85X6.2974Y-3.3318
G05
X6.5028Y-3.1435G85X6.5028Y-3.1263
G05
T0
M30
