M48
;DRILL file {KiCad 4.0.6} date Saturday, July 22, 2017 'PMt' 07:40:19 PM
;FORMAT={-:-/ absolute / metric / decimal}
FMAT,2
METRIC,TZ
T1C0.400
T2C0.500
T3C0.550
T4C0.762
T5C0.800
T6C1.500
%
G90
G05
M71
T1
X124.172Y-87.227
X143.072Y-87.227
T5
X136.872Y-76.407
X136.872Y-84.027
X139.412Y-76.407
X139.412Y-84.027
X141.952Y-76.407
X141.952Y-84.027
X144.492Y-76.407
X144.492Y-84.027
T6
X118.072Y-115.727
X118.172Y-97.927
X123.072Y-115.227
X123.172Y-97.427
X137.372Y-98.027
X137.372Y-115.727
X142.372Y-97.527
X142.372Y-115.227
X156.472Y-98.027
X156.472Y-115.727
X161.472Y-97.527
X161.472Y-115.227
T2
X111.797Y-76.027G85X112.447Y-76.027
G05
X111.797Y-83.027G85X112.447Y-83.027
G05
T3
X114.822Y-76.877G85X114.822Y-77.177
G05
X114.822Y-81.877G85X114.822Y-82.177
G05
T4
X160.391Y-74.627G85X159.953Y-74.627
G05
X160.391Y-77.127G85X159.953Y-77.127
G05
X160.391Y-82.127G85X159.953Y-82.127
G05
X160.391Y-84.627G85X159.953Y-84.627
G05
X165.172Y-79.846G85X165.172Y-79.408
G05
T0
M30
