G04 #@! TF.FileFunction,Legend,Top*
%FSLAX46Y46*%
G04 Gerber Fmt 4.6, Leading zero omitted, Abs format (unit mm)*
G04 Created by KiCad (PCBNEW 4.0.6) date Sunday, July 23, 2017 'AMt' 01:12:39 AM*
%MOMM*%
%LPD*%
G01*
G04 APERTURE LIST*
%ADD10C,0.100000*%
%ADD11C,0.150000*%
%ADD12C,0.120000*%
G04 APERTURE END LIST*
D10*
D11*
X168472000Y-73627000D02*
X168472000Y-85627000D01*
X169672000Y-73627000D02*
X156472000Y-73627000D01*
X156472000Y-73627000D02*
X156372000Y-85627000D01*
X156372000Y-85627000D02*
X169672000Y-85627000D01*
X169672000Y-85627000D02*
X169672000Y-81727000D01*
X169672000Y-77627000D02*
X169672000Y-73627000D01*
X169672000Y-81627000D02*
X168472000Y-81627000D01*
X168472000Y-81627000D02*
X168472000Y-77627000D01*
X168472000Y-77627000D02*
X169672000Y-77627000D01*
D12*
X138962000Y-85717000D02*
X140332000Y-85717000D01*
X140332000Y-85717000D02*
X140332000Y-75317000D01*
X140332000Y-75317000D02*
X135592000Y-75317000D01*
X135592000Y-75317000D02*
X135592000Y-85717000D01*
X135592000Y-85717000D02*
X136962000Y-85717000D01*
X136962000Y-85717000D02*
G75*
G02X138962000Y-85717000I1000000J0D01*
G01*
X109442000Y-75177000D02*
X109442000Y-83877000D01*
X115852000Y-75177000D02*
X115852000Y-83877000D01*
X115852000Y-83877000D02*
X109442000Y-83877000D01*
X110672000Y-83877000D02*
X110672000Y-75177000D01*
X109442000Y-75177000D02*
X115852000Y-75177000D01*
D11*
X111922000Y-94777000D02*
X129412000Y-94777000D01*
X111922000Y-109077000D02*
X111922000Y-94777000D01*
X129422000Y-109077000D02*
X111922000Y-109077000D01*
X129422000Y-94777000D02*
X129422000Y-109077000D01*
X111822000Y-112577000D02*
X129312000Y-112577000D01*
X111822000Y-126877000D02*
X111822000Y-112577000D01*
X129322000Y-126877000D02*
X111822000Y-126877000D01*
X129322000Y-112577000D02*
X129322000Y-126877000D01*
X131122000Y-94877000D02*
X148612000Y-94877000D01*
X131122000Y-109177000D02*
X131122000Y-94877000D01*
X148622000Y-109177000D02*
X131122000Y-109177000D01*
X148622000Y-94877000D02*
X148622000Y-109177000D01*
X131122000Y-112577000D02*
X148612000Y-112577000D01*
X131122000Y-126877000D02*
X131122000Y-112577000D01*
X148622000Y-126877000D02*
X131122000Y-126877000D01*
X148622000Y-112577000D02*
X148622000Y-126877000D01*
X150222000Y-94877000D02*
X167712000Y-94877000D01*
X150222000Y-109177000D02*
X150222000Y-94877000D01*
X167722000Y-109177000D02*
X150222000Y-109177000D01*
X167722000Y-94877000D02*
X167722000Y-109177000D01*
X150222000Y-112577000D02*
X167712000Y-112577000D01*
X150222000Y-126877000D02*
X150222000Y-112577000D01*
X167722000Y-126877000D02*
X150222000Y-126877000D01*
X167722000Y-112577000D02*
X167722000Y-126877000D01*
X115872000Y-93227100D02*
X116072660Y-93227100D01*
X115872000Y-93227100D02*
X115671340Y-93227100D01*
X115772940Y-91626900D02*
X115671340Y-91626900D01*
X115671340Y-91626900D02*
X116072660Y-91626900D01*
X125172000Y-91426900D02*
X124971340Y-91426900D01*
X125172000Y-91426900D02*
X125372660Y-91426900D01*
X125271060Y-93027100D02*
X125372660Y-93027100D01*
X125372660Y-93027100D02*
X124971340Y-93027100D01*
X134372000Y-92927100D02*
X134572660Y-92927100D01*
X134372000Y-92927100D02*
X134171340Y-92927100D01*
X134272940Y-91326900D02*
X134171340Y-91326900D01*
X134171340Y-91326900D02*
X134572660Y-91326900D01*
X144072000Y-93027100D02*
X144272660Y-93027100D01*
X144072000Y-93027100D02*
X143871340Y-93027100D01*
X143972940Y-91426900D02*
X143871340Y-91426900D01*
X143871340Y-91426900D02*
X144272660Y-91426900D01*
X153672000Y-93027100D02*
X153872660Y-93027100D01*
X153672000Y-93027100D02*
X153471340Y-93027100D01*
X153572940Y-91426900D02*
X153471340Y-91426900D01*
X153471340Y-91426900D02*
X153872660Y-91426900D01*
X163272000Y-93127100D02*
X163472660Y-93127100D01*
X163272000Y-93127100D02*
X163071340Y-93127100D01*
X163172940Y-91526900D02*
X163071340Y-91526900D01*
X163071340Y-91526900D02*
X163472660Y-91526900D01*
X162224381Y-79960333D02*
X162938667Y-79960333D01*
X163081524Y-80007953D01*
X163176762Y-80103191D01*
X163224381Y-80246048D01*
X163224381Y-80341286D01*
X163224381Y-78960333D02*
X163224381Y-79531762D01*
X163224381Y-79246048D02*
X162224381Y-79246048D01*
X162367238Y-79341286D01*
X162462476Y-79436524D01*
X162510095Y-79531762D01*
X137200095Y-86169381D02*
X137200095Y-86978905D01*
X137247714Y-87074143D01*
X137295333Y-87121762D01*
X137390571Y-87169381D01*
X137581048Y-87169381D01*
X137676286Y-87121762D01*
X137723905Y-87074143D01*
X137771524Y-86978905D01*
X137771524Y-86169381D01*
X138771524Y-87169381D02*
X138200095Y-87169381D01*
X138485809Y-87169381D02*
X138485809Y-86169381D01*
X138390571Y-86312238D01*
X138295333Y-86407476D01*
X138200095Y-86455095D01*
X116164381Y-79860333D02*
X116878667Y-79860333D01*
X117021524Y-79907953D01*
X117116762Y-80003191D01*
X117164381Y-80146048D01*
X117164381Y-80241286D01*
X116259619Y-79431762D02*
X116212000Y-79384143D01*
X116164381Y-79288905D01*
X116164381Y-79050809D01*
X116212000Y-78955571D01*
X116259619Y-78907952D01*
X116354857Y-78860333D01*
X116450095Y-78860333D01*
X116592952Y-78907952D01*
X117164381Y-79479381D01*
X117164381Y-78860333D01*
X119338667Y-94331762D02*
X119481524Y-94379381D01*
X119719620Y-94379381D01*
X119814858Y-94331762D01*
X119862477Y-94284143D01*
X119910096Y-94188905D01*
X119910096Y-94093667D01*
X119862477Y-93998429D01*
X119814858Y-93950810D01*
X119719620Y-93903190D01*
X119529143Y-93855571D01*
X119433905Y-93807952D01*
X119386286Y-93760333D01*
X119338667Y-93665095D01*
X119338667Y-93569857D01*
X119386286Y-93474619D01*
X119433905Y-93427000D01*
X119529143Y-93379381D01*
X119767239Y-93379381D01*
X119910096Y-93427000D01*
X120243429Y-93379381D02*
X120481524Y-94379381D01*
X120672001Y-93665095D01*
X120862477Y-94379381D01*
X121100572Y-93379381D01*
X122005334Y-94379381D02*
X121433905Y-94379381D01*
X121719619Y-94379381D02*
X121719619Y-93379381D01*
X121624381Y-93522238D01*
X121529143Y-93617476D01*
X121433905Y-93665095D01*
X119238667Y-112131762D02*
X119381524Y-112179381D01*
X119619620Y-112179381D01*
X119714858Y-112131762D01*
X119762477Y-112084143D01*
X119810096Y-111988905D01*
X119810096Y-111893667D01*
X119762477Y-111798429D01*
X119714858Y-111750810D01*
X119619620Y-111703190D01*
X119429143Y-111655571D01*
X119333905Y-111607952D01*
X119286286Y-111560333D01*
X119238667Y-111465095D01*
X119238667Y-111369857D01*
X119286286Y-111274619D01*
X119333905Y-111227000D01*
X119429143Y-111179381D01*
X119667239Y-111179381D01*
X119810096Y-111227000D01*
X120143429Y-111179381D02*
X120381524Y-112179381D01*
X120572001Y-111465095D01*
X120762477Y-112179381D01*
X121000572Y-111179381D01*
X121333905Y-111274619D02*
X121381524Y-111227000D01*
X121476762Y-111179381D01*
X121714858Y-111179381D01*
X121810096Y-111227000D01*
X121857715Y-111274619D01*
X121905334Y-111369857D01*
X121905334Y-111465095D01*
X121857715Y-111607952D01*
X121286286Y-112179381D01*
X121905334Y-112179381D01*
X138538667Y-94431762D02*
X138681524Y-94479381D01*
X138919620Y-94479381D01*
X139014858Y-94431762D01*
X139062477Y-94384143D01*
X139110096Y-94288905D01*
X139110096Y-94193667D01*
X139062477Y-94098429D01*
X139014858Y-94050810D01*
X138919620Y-94003190D01*
X138729143Y-93955571D01*
X138633905Y-93907952D01*
X138586286Y-93860333D01*
X138538667Y-93765095D01*
X138538667Y-93669857D01*
X138586286Y-93574619D01*
X138633905Y-93527000D01*
X138729143Y-93479381D01*
X138967239Y-93479381D01*
X139110096Y-93527000D01*
X139443429Y-93479381D02*
X139681524Y-94479381D01*
X139872001Y-93765095D01*
X140062477Y-94479381D01*
X140300572Y-93479381D01*
X140586286Y-93479381D02*
X141205334Y-93479381D01*
X140872000Y-93860333D01*
X141014858Y-93860333D01*
X141110096Y-93907952D01*
X141157715Y-93955571D01*
X141205334Y-94050810D01*
X141205334Y-94288905D01*
X141157715Y-94384143D01*
X141110096Y-94431762D01*
X141014858Y-94479381D01*
X140729143Y-94479381D01*
X140633905Y-94431762D01*
X140586286Y-94384143D01*
X138538667Y-112131762D02*
X138681524Y-112179381D01*
X138919620Y-112179381D01*
X139014858Y-112131762D01*
X139062477Y-112084143D01*
X139110096Y-111988905D01*
X139110096Y-111893667D01*
X139062477Y-111798429D01*
X139014858Y-111750810D01*
X138919620Y-111703190D01*
X138729143Y-111655571D01*
X138633905Y-111607952D01*
X138586286Y-111560333D01*
X138538667Y-111465095D01*
X138538667Y-111369857D01*
X138586286Y-111274619D01*
X138633905Y-111227000D01*
X138729143Y-111179381D01*
X138967239Y-111179381D01*
X139110096Y-111227000D01*
X139443429Y-111179381D02*
X139681524Y-112179381D01*
X139872001Y-111465095D01*
X140062477Y-112179381D01*
X140300572Y-111179381D01*
X141110096Y-111512714D02*
X141110096Y-112179381D01*
X140872000Y-111131762D02*
X140633905Y-111846048D01*
X141252953Y-111846048D01*
X157638667Y-94431762D02*
X157781524Y-94479381D01*
X158019620Y-94479381D01*
X158114858Y-94431762D01*
X158162477Y-94384143D01*
X158210096Y-94288905D01*
X158210096Y-94193667D01*
X158162477Y-94098429D01*
X158114858Y-94050810D01*
X158019620Y-94003190D01*
X157829143Y-93955571D01*
X157733905Y-93907952D01*
X157686286Y-93860333D01*
X157638667Y-93765095D01*
X157638667Y-93669857D01*
X157686286Y-93574619D01*
X157733905Y-93527000D01*
X157829143Y-93479381D01*
X158067239Y-93479381D01*
X158210096Y-93527000D01*
X158543429Y-93479381D02*
X158781524Y-94479381D01*
X158972001Y-93765095D01*
X159162477Y-94479381D01*
X159400572Y-93479381D01*
X160257715Y-93479381D02*
X159781524Y-93479381D01*
X159733905Y-93955571D01*
X159781524Y-93907952D01*
X159876762Y-93860333D01*
X160114858Y-93860333D01*
X160210096Y-93907952D01*
X160257715Y-93955571D01*
X160305334Y-94050810D01*
X160305334Y-94288905D01*
X160257715Y-94384143D01*
X160210096Y-94431762D01*
X160114858Y-94479381D01*
X159876762Y-94479381D01*
X159781524Y-94431762D01*
X159733905Y-94384143D01*
X157638667Y-112131762D02*
X157781524Y-112179381D01*
X158019620Y-112179381D01*
X158114858Y-112131762D01*
X158162477Y-112084143D01*
X158210096Y-111988905D01*
X158210096Y-111893667D01*
X158162477Y-111798429D01*
X158114858Y-111750810D01*
X158019620Y-111703190D01*
X157829143Y-111655571D01*
X157733905Y-111607952D01*
X157686286Y-111560333D01*
X157638667Y-111465095D01*
X157638667Y-111369857D01*
X157686286Y-111274619D01*
X157733905Y-111227000D01*
X157829143Y-111179381D01*
X158067239Y-111179381D01*
X158210096Y-111227000D01*
X158543429Y-111179381D02*
X158781524Y-112179381D01*
X158972001Y-111465095D01*
X159162477Y-112179381D01*
X159400572Y-111179381D01*
X160210096Y-111179381D02*
X160019619Y-111179381D01*
X159924381Y-111227000D01*
X159876762Y-111274619D01*
X159781524Y-111417476D01*
X159733905Y-111607952D01*
X159733905Y-111988905D01*
X159781524Y-112084143D01*
X159829143Y-112131762D01*
X159924381Y-112179381D01*
X160114858Y-112179381D01*
X160210096Y-112131762D01*
X160257715Y-112084143D01*
X160305334Y-111988905D01*
X160305334Y-111750810D01*
X160257715Y-111655571D01*
X160210096Y-111607952D01*
X160114858Y-111560333D01*
X159924381Y-111560333D01*
X159829143Y-111607952D01*
X159781524Y-111655571D01*
X159733905Y-111750810D01*
X114804394Y-89780581D02*
X114232965Y-89780581D01*
X114518679Y-89780581D02*
X114518679Y-88780581D01*
X114423441Y-88923438D01*
X114328203Y-89018676D01*
X114232965Y-89066295D01*
X115423441Y-88780581D02*
X115518680Y-88780581D01*
X115613918Y-88828200D01*
X115661537Y-88875819D01*
X115709156Y-88971057D01*
X115756775Y-89161533D01*
X115756775Y-89399629D01*
X115709156Y-89590105D01*
X115661537Y-89685343D01*
X115613918Y-89732962D01*
X115518680Y-89780581D01*
X115423441Y-89780581D01*
X115328203Y-89732962D01*
X115280584Y-89685343D01*
X115232965Y-89590105D01*
X115185346Y-89399629D01*
X115185346Y-89161533D01*
X115232965Y-88971057D01*
X115280584Y-88875819D01*
X115328203Y-88828200D01*
X115423441Y-88780581D01*
X116185346Y-89780581D02*
X116185346Y-88780581D01*
X116756775Y-89780581D02*
X116328203Y-89209152D01*
X116756775Y-88780581D02*
X116185346Y-89352010D01*
X117709156Y-89780581D02*
X117137727Y-89780581D01*
X117423441Y-89780581D02*
X117423441Y-88780581D01*
X117328203Y-88923438D01*
X117232965Y-89018676D01*
X117137727Y-89066295D01*
X123906274Y-95778181D02*
X123334845Y-95778181D01*
X123620559Y-95778181D02*
X123620559Y-94778181D01*
X123525321Y-94921038D01*
X123430083Y-95016276D01*
X123334845Y-95063895D01*
X124525321Y-94778181D02*
X124620560Y-94778181D01*
X124715798Y-94825800D01*
X124763417Y-94873419D01*
X124811036Y-94968657D01*
X124858655Y-95159133D01*
X124858655Y-95397229D01*
X124811036Y-95587705D01*
X124763417Y-95682943D01*
X124715798Y-95730562D01*
X124620560Y-95778181D01*
X124525321Y-95778181D01*
X124430083Y-95730562D01*
X124382464Y-95682943D01*
X124334845Y-95587705D01*
X124287226Y-95397229D01*
X124287226Y-95159133D01*
X124334845Y-94968657D01*
X124382464Y-94873419D01*
X124430083Y-94825800D01*
X124525321Y-94778181D01*
X125287226Y-95778181D02*
X125287226Y-94778181D01*
X125858655Y-95778181D02*
X125430083Y-95206752D01*
X125858655Y-94778181D02*
X125287226Y-95349610D01*
X126239607Y-94873419D02*
X126287226Y-94825800D01*
X126382464Y-94778181D01*
X126620560Y-94778181D01*
X126715798Y-94825800D01*
X126763417Y-94873419D01*
X126811036Y-94968657D01*
X126811036Y-95063895D01*
X126763417Y-95206752D01*
X126191988Y-95778181D01*
X126811036Y-95778181D01*
X133304394Y-89480581D02*
X132732965Y-89480581D01*
X133018679Y-89480581D02*
X133018679Y-88480581D01*
X132923441Y-88623438D01*
X132828203Y-88718676D01*
X132732965Y-88766295D01*
X133923441Y-88480581D02*
X134018680Y-88480581D01*
X134113918Y-88528200D01*
X134161537Y-88575819D01*
X134209156Y-88671057D01*
X134256775Y-88861533D01*
X134256775Y-89099629D01*
X134209156Y-89290105D01*
X134161537Y-89385343D01*
X134113918Y-89432962D01*
X134018680Y-89480581D01*
X133923441Y-89480581D01*
X133828203Y-89432962D01*
X133780584Y-89385343D01*
X133732965Y-89290105D01*
X133685346Y-89099629D01*
X133685346Y-88861533D01*
X133732965Y-88671057D01*
X133780584Y-88575819D01*
X133828203Y-88528200D01*
X133923441Y-88480581D01*
X134685346Y-89480581D02*
X134685346Y-88480581D01*
X135256775Y-89480581D02*
X134828203Y-88909152D01*
X135256775Y-88480581D02*
X134685346Y-89052010D01*
X135590108Y-88480581D02*
X136209156Y-88480581D01*
X135875822Y-88861533D01*
X136018680Y-88861533D01*
X136113918Y-88909152D01*
X136161537Y-88956771D01*
X136209156Y-89052010D01*
X136209156Y-89290105D01*
X136161537Y-89385343D01*
X136113918Y-89432962D01*
X136018680Y-89480581D01*
X135732965Y-89480581D01*
X135637727Y-89432962D01*
X135590108Y-89385343D01*
X143004394Y-89580581D02*
X142432965Y-89580581D01*
X142718679Y-89580581D02*
X142718679Y-88580581D01*
X142623441Y-88723438D01*
X142528203Y-88818676D01*
X142432965Y-88866295D01*
X143623441Y-88580581D02*
X143718680Y-88580581D01*
X143813918Y-88628200D01*
X143861537Y-88675819D01*
X143909156Y-88771057D01*
X143956775Y-88961533D01*
X143956775Y-89199629D01*
X143909156Y-89390105D01*
X143861537Y-89485343D01*
X143813918Y-89532962D01*
X143718680Y-89580581D01*
X143623441Y-89580581D01*
X143528203Y-89532962D01*
X143480584Y-89485343D01*
X143432965Y-89390105D01*
X143385346Y-89199629D01*
X143385346Y-88961533D01*
X143432965Y-88771057D01*
X143480584Y-88675819D01*
X143528203Y-88628200D01*
X143623441Y-88580581D01*
X144385346Y-89580581D02*
X144385346Y-88580581D01*
X144956775Y-89580581D02*
X144528203Y-89009152D01*
X144956775Y-88580581D02*
X144385346Y-89152010D01*
X145813918Y-88913914D02*
X145813918Y-89580581D01*
X145575822Y-88532962D02*
X145337727Y-89247248D01*
X145956775Y-89247248D01*
X152604394Y-89580581D02*
X152032965Y-89580581D01*
X152318679Y-89580581D02*
X152318679Y-88580581D01*
X152223441Y-88723438D01*
X152128203Y-88818676D01*
X152032965Y-88866295D01*
X153223441Y-88580581D02*
X153318680Y-88580581D01*
X153413918Y-88628200D01*
X153461537Y-88675819D01*
X153509156Y-88771057D01*
X153556775Y-88961533D01*
X153556775Y-89199629D01*
X153509156Y-89390105D01*
X153461537Y-89485343D01*
X153413918Y-89532962D01*
X153318680Y-89580581D01*
X153223441Y-89580581D01*
X153128203Y-89532962D01*
X153080584Y-89485343D01*
X153032965Y-89390105D01*
X152985346Y-89199629D01*
X152985346Y-88961533D01*
X153032965Y-88771057D01*
X153080584Y-88675819D01*
X153128203Y-88628200D01*
X153223441Y-88580581D01*
X153985346Y-89580581D02*
X153985346Y-88580581D01*
X154556775Y-89580581D02*
X154128203Y-89009152D01*
X154556775Y-88580581D02*
X153985346Y-89152010D01*
X155461537Y-88580581D02*
X154985346Y-88580581D01*
X154937727Y-89056771D01*
X154985346Y-89009152D01*
X155080584Y-88961533D01*
X155318680Y-88961533D01*
X155413918Y-89009152D01*
X155461537Y-89056771D01*
X155509156Y-89152010D01*
X155509156Y-89390105D01*
X155461537Y-89485343D01*
X155413918Y-89532962D01*
X155318680Y-89580581D01*
X155080584Y-89580581D01*
X154985346Y-89532962D01*
X154937727Y-89485343D01*
X162204394Y-89680581D02*
X161632965Y-89680581D01*
X161918679Y-89680581D02*
X161918679Y-88680581D01*
X161823441Y-88823438D01*
X161728203Y-88918676D01*
X161632965Y-88966295D01*
X162823441Y-88680581D02*
X162918680Y-88680581D01*
X163013918Y-88728200D01*
X163061537Y-88775819D01*
X163109156Y-88871057D01*
X163156775Y-89061533D01*
X163156775Y-89299629D01*
X163109156Y-89490105D01*
X163061537Y-89585343D01*
X163013918Y-89632962D01*
X162918680Y-89680581D01*
X162823441Y-89680581D01*
X162728203Y-89632962D01*
X162680584Y-89585343D01*
X162632965Y-89490105D01*
X162585346Y-89299629D01*
X162585346Y-89061533D01*
X162632965Y-88871057D01*
X162680584Y-88775819D01*
X162728203Y-88728200D01*
X162823441Y-88680581D01*
X163585346Y-89680581D02*
X163585346Y-88680581D01*
X164156775Y-89680581D02*
X163728203Y-89109152D01*
X164156775Y-88680581D02*
X163585346Y-89252010D01*
X165013918Y-88680581D02*
X164823441Y-88680581D01*
X164728203Y-88728200D01*
X164680584Y-88775819D01*
X164585346Y-88918676D01*
X164537727Y-89109152D01*
X164537727Y-89490105D01*
X164585346Y-89585343D01*
X164632965Y-89632962D01*
X164728203Y-89680581D01*
X164918680Y-89680581D01*
X165013918Y-89632962D01*
X165061537Y-89585343D01*
X165109156Y-89490105D01*
X165109156Y-89252010D01*
X165061537Y-89156771D01*
X165013918Y-89109152D01*
X164918680Y-89061533D01*
X164728203Y-89061533D01*
X164632965Y-89109152D01*
X164585346Y-89156771D01*
X164537727Y-89252010D01*
M02*
