G04 #@! TF.FileFunction,Copper,L1,Top,Signal*
%FSLAX46Y46*%
G04 Gerber Fmt 4.6, Leading zero omitted, Abs format (unit mm)*
G04 Created by KiCad (PCBNEW 4.0.6) date Sunday, July 23, 2017 'AMt' 01:12:39 AM*
%MOMM*%
%LPD*%
G01*
G04 APERTURE LIST*
%ADD10C,0.100000*%
%ADD11O,1.524000X1.900000*%
%ADD12O,1.900000X1.524000*%
%ADD13R,2.400000X1.600000*%
%ADD14O,2.400000X1.600000*%
%ADD15R,1.350000X0.400000*%
%ADD16O,0.950000X1.250000*%
%ADD17O,1.550000X1.000000*%
%ADD18C,3.000000*%
%ADD19C,0.600000*%
%ADD20C,0.400000*%
%ADD21C,0.254000*%
G04 APERTURE END LIST*
D10*
D11*
X165172000Y-79627000D03*
D12*
X160172000Y-82127000D03*
X160172000Y-77127000D03*
X160172000Y-84627000D03*
X160172000Y-74627000D03*
D13*
X141772000Y-84327000D03*
D14*
X134152000Y-76707000D03*
X141772000Y-81787000D03*
X134152000Y-79247000D03*
X141772000Y-79247000D03*
X134152000Y-81787000D03*
X141772000Y-76707000D03*
X134152000Y-84327000D03*
D15*
X114822000Y-78227000D03*
X114822000Y-78877000D03*
X114822000Y-79527000D03*
X114822000Y-80177000D03*
X114822000Y-80827000D03*
D16*
X114822000Y-77027000D03*
X114822000Y-82027000D03*
D17*
X112122000Y-76027000D03*
X112122000Y-83027000D03*
D18*
X118172000Y-97927000D03*
X123172000Y-97427000D03*
X118072000Y-115727000D03*
X123072000Y-115227000D03*
X137372000Y-98027000D03*
X142372000Y-97527000D03*
X137372000Y-115727000D03*
X142372000Y-115227000D03*
X156472000Y-98027000D03*
X161472000Y-97527000D03*
X156472000Y-115727000D03*
X161472000Y-115227000D03*
D10*
G36*
X111708940Y-93625880D02*
X111708940Y-91228120D01*
X115209060Y-91626900D01*
X115209060Y-93227100D01*
X111708940Y-93625880D01*
X111708940Y-93625880D01*
G37*
G36*
X120035060Y-91228120D02*
X120035060Y-93625880D01*
X116534940Y-93227100D01*
X116534940Y-91626900D01*
X120035060Y-91228120D01*
X120035060Y-91228120D01*
G37*
G36*
X129335060Y-91028120D02*
X129335060Y-93425880D01*
X125834940Y-93027100D01*
X125834940Y-91426900D01*
X129335060Y-91028120D01*
X129335060Y-91028120D01*
G37*
G36*
X121008940Y-93425880D02*
X121008940Y-91028120D01*
X124509060Y-91426900D01*
X124509060Y-93027100D01*
X121008940Y-93425880D01*
X121008940Y-93425880D01*
G37*
G36*
X130208940Y-93325880D02*
X130208940Y-90928120D01*
X133709060Y-91326900D01*
X133709060Y-92927100D01*
X130208940Y-93325880D01*
X130208940Y-93325880D01*
G37*
G36*
X138535060Y-90928120D02*
X138535060Y-93325880D01*
X135034940Y-92927100D01*
X135034940Y-91326900D01*
X138535060Y-90928120D01*
X138535060Y-90928120D01*
G37*
G36*
X139908940Y-93425880D02*
X139908940Y-91028120D01*
X143409060Y-91426900D01*
X143409060Y-93027100D01*
X139908940Y-93425880D01*
X139908940Y-93425880D01*
G37*
G36*
X148235060Y-91028120D02*
X148235060Y-93425880D01*
X144734940Y-93027100D01*
X144734940Y-91426900D01*
X148235060Y-91028120D01*
X148235060Y-91028120D01*
G37*
G36*
X149508940Y-93425880D02*
X149508940Y-91028120D01*
X153009060Y-91426900D01*
X153009060Y-93027100D01*
X149508940Y-93425880D01*
X149508940Y-93425880D01*
G37*
G36*
X157835060Y-91028120D02*
X157835060Y-93425880D01*
X154334940Y-93027100D01*
X154334940Y-91426900D01*
X157835060Y-91028120D01*
X157835060Y-91028120D01*
G37*
G36*
X159108940Y-93525880D02*
X159108940Y-91128120D01*
X162609060Y-91526900D01*
X162609060Y-93127100D01*
X159108940Y-93525880D01*
X159108940Y-93525880D01*
G37*
G36*
X167435060Y-91128120D02*
X167435060Y-93525880D01*
X163934940Y-93127100D01*
X163934940Y-91526900D01*
X167435060Y-91128120D01*
X167435060Y-91128120D01*
G37*
D19*
X132072000Y-89827000D03*
X151272000Y-89927000D03*
X122372000Y-84427000D03*
D20*
X131959000Y-89940000D02*
X131959000Y-92127000D01*
X132072000Y-89827000D02*
X131959000Y-89940000D01*
X151259000Y-89940000D02*
X151259000Y-92227000D01*
X151272000Y-89927000D02*
X151259000Y-89940000D01*
X122372000Y-84427000D02*
X119272000Y-84427000D01*
X114822000Y-78227000D02*
X118372000Y-78227000D01*
X118372000Y-78227000D02*
X119272000Y-79127000D01*
X119272000Y-79127000D02*
X119272000Y-84427000D01*
X119272000Y-86614000D02*
X113459000Y-92427000D01*
X119272000Y-84427000D02*
X119272000Y-86614000D01*
X134152000Y-81787000D02*
X133199000Y-81787000D01*
X133199000Y-81787000D02*
X122759000Y-92227000D01*
X123172000Y-97427000D02*
X123172000Y-92640000D01*
X123172000Y-92640000D02*
X122759000Y-92227000D01*
X122759000Y-92227000D02*
X118485000Y-92227000D01*
X118485000Y-92227000D02*
X118285000Y-92427000D01*
X127585000Y-92227000D02*
X127585000Y-110714000D01*
X127585000Y-110714000D02*
X123072000Y-115227000D01*
X141659000Y-92227000D02*
X141659000Y-89540000D01*
X143032000Y-81787000D02*
X141772000Y-81787000D01*
X144272000Y-83027000D02*
X143032000Y-81787000D01*
X144272000Y-86927000D02*
X144272000Y-83027000D01*
X141659000Y-89540000D02*
X144272000Y-86927000D01*
X136785000Y-92127000D02*
X141559000Y-92127000D01*
X141559000Y-92127000D02*
X142372000Y-92940000D01*
X142372000Y-92940000D02*
X142372000Y-97527000D01*
X146485000Y-92227000D02*
X146485000Y-111114000D01*
X146485000Y-111114000D02*
X142372000Y-115227000D01*
X161472000Y-97527000D02*
X161472000Y-92940000D01*
X161472000Y-92940000D02*
X160759000Y-92227000D01*
X160759000Y-92227000D02*
X156085000Y-92227000D01*
X156085000Y-92227000D02*
X143105000Y-79247000D01*
X143105000Y-79247000D02*
X141772000Y-79247000D01*
X165685000Y-92327000D02*
X165685000Y-111014000D01*
X165685000Y-111014000D02*
X161472000Y-115227000D01*
X160172000Y-74627000D02*
X136232000Y-74627000D01*
X136232000Y-74627000D02*
X134152000Y-76707000D01*
D21*
G36*
X168962000Y-76917000D02*
X168472000Y-76917000D01*
X168200295Y-76971046D01*
X168007301Y-77100000D01*
X167872000Y-77100000D01*
X167822590Y-77110006D01*
X167780965Y-77138447D01*
X167753685Y-77180841D01*
X167745000Y-77227000D01*
X167745000Y-82327000D01*
X167755006Y-82376410D01*
X167783447Y-82418035D01*
X167825841Y-82445315D01*
X167872000Y-82454000D01*
X168962000Y-82454000D01*
X168962000Y-130317000D01*
X110582000Y-130317000D01*
X110582000Y-117240970D01*
X116737635Y-117240970D01*
X116897418Y-117559739D01*
X117688187Y-117869723D01*
X118537387Y-117853497D01*
X119246582Y-117559739D01*
X119406365Y-117240970D01*
X118072000Y-115906605D01*
X116737635Y-117240970D01*
X110582000Y-117240970D01*
X110582000Y-115343187D01*
X115929277Y-115343187D01*
X115945503Y-116192387D01*
X116239261Y-116901582D01*
X116558030Y-117061365D01*
X117892395Y-115727000D01*
X118251605Y-115727000D01*
X119585970Y-117061365D01*
X119904739Y-116901582D01*
X120214723Y-116110813D01*
X120205915Y-115649815D01*
X120936630Y-115649815D01*
X121260980Y-116434800D01*
X121861041Y-117035909D01*
X122645459Y-117361628D01*
X123494815Y-117362370D01*
X123788624Y-117240970D01*
X136037635Y-117240970D01*
X136197418Y-117559739D01*
X136988187Y-117869723D01*
X137837387Y-117853497D01*
X138546582Y-117559739D01*
X138706365Y-117240970D01*
X137372000Y-115906605D01*
X136037635Y-117240970D01*
X123788624Y-117240970D01*
X124279800Y-117038020D01*
X124880909Y-116437959D01*
X125206628Y-115653541D01*
X125206899Y-115343187D01*
X135229277Y-115343187D01*
X135245503Y-116192387D01*
X135539261Y-116901582D01*
X135858030Y-117061365D01*
X137192395Y-115727000D01*
X137551605Y-115727000D01*
X138885970Y-117061365D01*
X139204739Y-116901582D01*
X139514723Y-116110813D01*
X139505915Y-115649815D01*
X140236630Y-115649815D01*
X140560980Y-116434800D01*
X141161041Y-117035909D01*
X141945459Y-117361628D01*
X142794815Y-117362370D01*
X143088624Y-117240970D01*
X155137635Y-117240970D01*
X155297418Y-117559739D01*
X156088187Y-117869723D01*
X156937387Y-117853497D01*
X157646582Y-117559739D01*
X157806365Y-117240970D01*
X156472000Y-115906605D01*
X155137635Y-117240970D01*
X143088624Y-117240970D01*
X143579800Y-117038020D01*
X144180909Y-116437959D01*
X144506628Y-115653541D01*
X144506899Y-115343187D01*
X154329277Y-115343187D01*
X154345503Y-116192387D01*
X154639261Y-116901582D01*
X154958030Y-117061365D01*
X156292395Y-115727000D01*
X156651605Y-115727000D01*
X157985970Y-117061365D01*
X158304739Y-116901582D01*
X158614723Y-116110813D01*
X158605915Y-115649815D01*
X159336630Y-115649815D01*
X159660980Y-116434800D01*
X160261041Y-117035909D01*
X161045459Y-117361628D01*
X161894815Y-117362370D01*
X162679800Y-117038020D01*
X163280909Y-116437959D01*
X163606628Y-115653541D01*
X163607370Y-114804185D01*
X163451914Y-114427954D01*
X166275434Y-111604434D01*
X166456440Y-111333540D01*
X166520000Y-111014000D01*
X166520000Y-94073253D01*
X167361769Y-94169158D01*
X167670377Y-94129042D01*
X167886501Y-93989970D01*
X168031491Y-93777770D01*
X168082500Y-93525880D01*
X168082500Y-91128120D01*
X168007707Y-90826037D01*
X167845063Y-90627045D01*
X167617815Y-90507009D01*
X167361769Y-90484842D01*
X163861649Y-90883622D01*
X163699623Y-90923738D01*
X163483499Y-91062810D01*
X163338509Y-91275010D01*
X163287500Y-91526900D01*
X163287500Y-93127100D01*
X163309017Y-93292626D01*
X163422730Y-93523104D01*
X163617152Y-93691183D01*
X163861649Y-93770378D01*
X164850000Y-93882984D01*
X164850000Y-110668132D01*
X162271072Y-113247060D01*
X161898541Y-113092372D01*
X161049185Y-113091630D01*
X160264200Y-113415980D01*
X159663091Y-114016041D01*
X159337372Y-114800459D01*
X159336630Y-115649815D01*
X158605915Y-115649815D01*
X158598497Y-115261613D01*
X158304739Y-114552418D01*
X157985970Y-114392635D01*
X156651605Y-115727000D01*
X156292395Y-115727000D01*
X154958030Y-114392635D01*
X154639261Y-114552418D01*
X154329277Y-115343187D01*
X144506899Y-115343187D01*
X144507370Y-114804185D01*
X144351914Y-114427954D01*
X144566838Y-114213030D01*
X155137635Y-114213030D01*
X156472000Y-115547395D01*
X157806365Y-114213030D01*
X157646582Y-113894261D01*
X156855813Y-113584277D01*
X156006613Y-113600503D01*
X155297418Y-113894261D01*
X155137635Y-114213030D01*
X144566838Y-114213030D01*
X147075434Y-111704434D01*
X147142252Y-111604434D01*
X147256439Y-111433541D01*
X147320000Y-111114000D01*
X147320000Y-99540970D01*
X155137635Y-99540970D01*
X155297418Y-99859739D01*
X156088187Y-100169723D01*
X156937387Y-100153497D01*
X157646582Y-99859739D01*
X157806365Y-99540970D01*
X156472000Y-98206605D01*
X155137635Y-99540970D01*
X147320000Y-99540970D01*
X147320000Y-97643187D01*
X154329277Y-97643187D01*
X154345503Y-98492387D01*
X154639261Y-99201582D01*
X154958030Y-99361365D01*
X156292395Y-98027000D01*
X156651605Y-98027000D01*
X157985970Y-99361365D01*
X158304739Y-99201582D01*
X158614723Y-98410813D01*
X158598497Y-97561613D01*
X158304739Y-96852418D01*
X157985970Y-96692635D01*
X156651605Y-98027000D01*
X156292395Y-98027000D01*
X154958030Y-96692635D01*
X154639261Y-96852418D01*
X154329277Y-97643187D01*
X147320000Y-97643187D01*
X147320000Y-96513030D01*
X155137635Y-96513030D01*
X156472000Y-97847395D01*
X157806365Y-96513030D01*
X157646582Y-96194261D01*
X156855813Y-95884277D01*
X156006613Y-95900503D01*
X155297418Y-96194261D01*
X155137635Y-96513030D01*
X147320000Y-96513030D01*
X147320000Y-93973253D01*
X148161769Y-94069158D01*
X148470377Y-94029042D01*
X148686501Y-93889970D01*
X148831491Y-93677770D01*
X148873052Y-93472537D01*
X148936293Y-93727963D01*
X149098937Y-93926955D01*
X149326185Y-94046991D01*
X149582231Y-94069158D01*
X153082351Y-93670378D01*
X153244377Y-93630262D01*
X153460501Y-93491190D01*
X153605491Y-93278990D01*
X153656500Y-93027100D01*
X153656500Y-91426900D01*
X153634983Y-91261374D01*
X153521270Y-91030896D01*
X153326848Y-90862817D01*
X153082351Y-90783622D01*
X152094000Y-90671016D01*
X152094000Y-90385542D01*
X152206838Y-90113799D01*
X152207162Y-89741833D01*
X152065117Y-89398057D01*
X151802327Y-89134808D01*
X151458799Y-88992162D01*
X151086833Y-88991838D01*
X150743057Y-89133883D01*
X150479808Y-89396673D01*
X150337162Y-89740201D01*
X150336838Y-90112167D01*
X150424000Y-90323116D01*
X150424000Y-90480747D01*
X149582231Y-90384842D01*
X149273623Y-90424958D01*
X149057499Y-90564030D01*
X148912509Y-90776230D01*
X148870948Y-90981463D01*
X148807707Y-90726037D01*
X148645063Y-90527045D01*
X148417815Y-90407009D01*
X148161769Y-90384842D01*
X144661649Y-90783622D01*
X144499623Y-90823738D01*
X144283499Y-90962810D01*
X144138509Y-91175010D01*
X144087500Y-91426900D01*
X144087500Y-93027100D01*
X144109017Y-93192626D01*
X144222730Y-93423104D01*
X144417152Y-93591183D01*
X144661649Y-93670378D01*
X145650000Y-93782984D01*
X145650000Y-110768132D01*
X143171072Y-113247060D01*
X142798541Y-113092372D01*
X141949185Y-113091630D01*
X141164200Y-113415980D01*
X140563091Y-114016041D01*
X140237372Y-114800459D01*
X140236630Y-115649815D01*
X139505915Y-115649815D01*
X139498497Y-115261613D01*
X139204739Y-114552418D01*
X138885970Y-114392635D01*
X137551605Y-115727000D01*
X137192395Y-115727000D01*
X135858030Y-114392635D01*
X135539261Y-114552418D01*
X135229277Y-115343187D01*
X125206899Y-115343187D01*
X125207370Y-114804185D01*
X125051914Y-114427954D01*
X125266838Y-114213030D01*
X136037635Y-114213030D01*
X137372000Y-115547395D01*
X138706365Y-114213030D01*
X138546582Y-113894261D01*
X137755813Y-113584277D01*
X136906613Y-113600503D01*
X136197418Y-113894261D01*
X136037635Y-114213030D01*
X125266838Y-114213030D01*
X128175434Y-111304434D01*
X128302678Y-111114000D01*
X128356439Y-111033541D01*
X128420000Y-110714000D01*
X128420000Y-99540970D01*
X136037635Y-99540970D01*
X136197418Y-99859739D01*
X136988187Y-100169723D01*
X137837387Y-100153497D01*
X138546582Y-99859739D01*
X138706365Y-99540970D01*
X137372000Y-98206605D01*
X136037635Y-99540970D01*
X128420000Y-99540970D01*
X128420000Y-97643187D01*
X135229277Y-97643187D01*
X135245503Y-98492387D01*
X135539261Y-99201582D01*
X135858030Y-99361365D01*
X137192395Y-98027000D01*
X137551605Y-98027000D01*
X138885970Y-99361365D01*
X139204739Y-99201582D01*
X139514723Y-98410813D01*
X139498497Y-97561613D01*
X139204739Y-96852418D01*
X138885970Y-96692635D01*
X137551605Y-98027000D01*
X137192395Y-98027000D01*
X135858030Y-96692635D01*
X135539261Y-96852418D01*
X135229277Y-97643187D01*
X128420000Y-97643187D01*
X128420000Y-96513030D01*
X136037635Y-96513030D01*
X137372000Y-97847395D01*
X138706365Y-96513030D01*
X138546582Y-96194261D01*
X137755813Y-95884277D01*
X136906613Y-95900503D01*
X136197418Y-96194261D01*
X136037635Y-96513030D01*
X128420000Y-96513030D01*
X128420000Y-93973253D01*
X129261769Y-94069158D01*
X129570377Y-94029042D01*
X129786501Y-93889970D01*
X129821437Y-93838840D01*
X130026185Y-93946991D01*
X130282231Y-93969158D01*
X133782351Y-93570378D01*
X133944377Y-93530262D01*
X134160501Y-93391190D01*
X134305491Y-93178990D01*
X134356500Y-92927100D01*
X134356500Y-91326900D01*
X134387500Y-91326900D01*
X134387500Y-92927100D01*
X134409017Y-93092626D01*
X134522730Y-93323104D01*
X134717152Y-93491183D01*
X134961649Y-93570378D01*
X138461769Y-93969158D01*
X138770377Y-93929042D01*
X138986501Y-93789970D01*
X139131491Y-93577770D01*
X139182500Y-93325880D01*
X139182500Y-92962000D01*
X139261500Y-92962000D01*
X139261500Y-93425880D01*
X139336293Y-93727963D01*
X139498937Y-93926955D01*
X139726185Y-94046991D01*
X139982231Y-94069158D01*
X141537000Y-93892018D01*
X141537000Y-95561942D01*
X141164200Y-95715980D01*
X140563091Y-96316041D01*
X140237372Y-97100459D01*
X140236630Y-97949815D01*
X140560980Y-98734800D01*
X141161041Y-99335909D01*
X141945459Y-99661628D01*
X142794815Y-99662370D01*
X143579800Y-99338020D01*
X144180909Y-98737959D01*
X144506628Y-97953541D01*
X144507370Y-97104185D01*
X144183020Y-96319200D01*
X143582959Y-95718091D01*
X143207000Y-95561979D01*
X143207000Y-93701750D01*
X143482351Y-93670378D01*
X143644377Y-93630262D01*
X143860501Y-93491190D01*
X144005491Y-93278990D01*
X144056500Y-93027100D01*
X144056500Y-91426900D01*
X144034983Y-91261374D01*
X143921270Y-91030896D01*
X143726848Y-90862817D01*
X143482351Y-90783622D01*
X142494000Y-90671016D01*
X142494000Y-89885868D01*
X144862434Y-87517434D01*
X144950630Y-87385439D01*
X145043439Y-87246541D01*
X145107000Y-86927000D01*
X145107000Y-83027000D01*
X145043439Y-82707459D01*
X144862434Y-82436566D01*
X143622434Y-81196566D01*
X143456586Y-81085750D01*
X143412328Y-81056177D01*
X143222648Y-80772302D01*
X142840562Y-80517000D01*
X143052512Y-80375380D01*
X153784635Y-91107503D01*
X153738509Y-91175010D01*
X153687500Y-91426900D01*
X153687500Y-93027100D01*
X153709017Y-93192626D01*
X153822730Y-93423104D01*
X154017152Y-93591183D01*
X154261649Y-93670378D01*
X157761769Y-94069158D01*
X158070377Y-94029042D01*
X158286501Y-93889970D01*
X158431491Y-93677770D01*
X158461912Y-93527545D01*
X158536293Y-93827963D01*
X158698937Y-94026955D01*
X158926185Y-94146991D01*
X159182231Y-94169158D01*
X160637000Y-94003411D01*
X160637000Y-95561942D01*
X160264200Y-95715980D01*
X159663091Y-96316041D01*
X159337372Y-97100459D01*
X159336630Y-97949815D01*
X159660980Y-98734800D01*
X160261041Y-99335909D01*
X161045459Y-99661628D01*
X161894815Y-99662370D01*
X162679800Y-99338020D01*
X163280909Y-98737959D01*
X163606628Y-97953541D01*
X163607370Y-97104185D01*
X163283020Y-96319200D01*
X162682959Y-95718091D01*
X162307000Y-95561979D01*
X162307000Y-93813143D01*
X162682351Y-93770378D01*
X162844377Y-93730262D01*
X163060501Y-93591190D01*
X163205491Y-93378990D01*
X163256500Y-93127100D01*
X163256500Y-91526900D01*
X163234983Y-91361374D01*
X163121270Y-91130896D01*
X162926848Y-90962817D01*
X162682351Y-90883622D01*
X159182231Y-90484842D01*
X158873623Y-90524958D01*
X158657499Y-90664030D01*
X158512509Y-90876230D01*
X158482088Y-91026455D01*
X158407707Y-90726037D01*
X158245063Y-90527045D01*
X158017815Y-90407009D01*
X157761769Y-90384842D01*
X155662847Y-90623979D01*
X147165868Y-82127000D01*
X158555948Y-82127000D01*
X158662288Y-82661609D01*
X158965120Y-83114828D01*
X159357487Y-83377000D01*
X158965120Y-83639172D01*
X158662288Y-84092391D01*
X158555948Y-84627000D01*
X158662288Y-85161609D01*
X158965120Y-85614828D01*
X159418339Y-85917660D01*
X159952948Y-86024000D01*
X160391052Y-86024000D01*
X160925661Y-85917660D01*
X161378880Y-85614828D01*
X161681712Y-85161609D01*
X161788052Y-84627000D01*
X161681712Y-84092391D01*
X161378880Y-83639172D01*
X160986513Y-83377000D01*
X161378880Y-83114828D01*
X161681712Y-82661609D01*
X161788052Y-82127000D01*
X161681712Y-81592391D01*
X161378880Y-81139172D01*
X160925661Y-80836340D01*
X160391052Y-80730000D01*
X159952948Y-80730000D01*
X159418339Y-80836340D01*
X158965120Y-81139172D01*
X158662288Y-81592391D01*
X158555948Y-82127000D01*
X147165868Y-82127000D01*
X145012591Y-79973723D01*
X163779926Y-79973723D01*
X163946632Y-80494365D01*
X164299889Y-80911579D01*
X164785917Y-81161849D01*
X164828930Y-81169220D01*
X165045000Y-81046720D01*
X165045000Y-79754000D01*
X165299000Y-79754000D01*
X165299000Y-81046720D01*
X165515070Y-81169220D01*
X165558083Y-81161849D01*
X166044111Y-80911579D01*
X166397368Y-80494365D01*
X166564074Y-79973723D01*
X166413015Y-79754000D01*
X165299000Y-79754000D01*
X165045000Y-79754000D01*
X163930985Y-79754000D01*
X163779926Y-79973723D01*
X145012591Y-79973723D01*
X144319145Y-79280277D01*
X163779926Y-79280277D01*
X163930985Y-79500000D01*
X165045000Y-79500000D01*
X165045000Y-78207280D01*
X165299000Y-78207280D01*
X165299000Y-79500000D01*
X166413015Y-79500000D01*
X166564074Y-79280277D01*
X166397368Y-78759635D01*
X166044111Y-78342421D01*
X165558083Y-78092151D01*
X165515070Y-78084780D01*
X165299000Y-78207280D01*
X165045000Y-78207280D01*
X164828930Y-78084780D01*
X164785917Y-78092151D01*
X164299889Y-78342421D01*
X163946632Y-78759635D01*
X163779926Y-79280277D01*
X144319145Y-79280277D01*
X143695434Y-78656566D01*
X143424541Y-78475561D01*
X143379157Y-78466533D01*
X143222648Y-78232302D01*
X142844293Y-77979493D01*
X143276500Y-77631896D01*
X143546367Y-77138819D01*
X143563904Y-77056039D01*
X143441915Y-76834000D01*
X141899000Y-76834000D01*
X141899000Y-76854000D01*
X141645000Y-76854000D01*
X141645000Y-76834000D01*
X140102085Y-76834000D01*
X139980096Y-77056039D01*
X139997633Y-77138819D01*
X140267500Y-77631896D01*
X140699707Y-77979493D01*
X140321352Y-78232302D01*
X140010283Y-78697849D01*
X139901050Y-79247000D01*
X140010283Y-79796151D01*
X140321352Y-80261698D01*
X140703438Y-80517000D01*
X140321352Y-80772302D01*
X140010283Y-81237849D01*
X139901050Y-81787000D01*
X140010283Y-82336151D01*
X140321352Y-82801698D01*
X140467350Y-82899251D01*
X140336683Y-82923838D01*
X140120559Y-83062910D01*
X139975569Y-83275110D01*
X139924560Y-83527000D01*
X139924560Y-85127000D01*
X139968838Y-85362317D01*
X140107910Y-85578441D01*
X140320110Y-85723431D01*
X140572000Y-85774440D01*
X142972000Y-85774440D01*
X143207317Y-85730162D01*
X143423441Y-85591090D01*
X143437000Y-85571246D01*
X143437000Y-86581132D01*
X141068566Y-88949566D01*
X140887561Y-89220459D01*
X140824000Y-89540000D01*
X140824000Y-90480747D01*
X139982231Y-90384842D01*
X139673623Y-90424958D01*
X139457499Y-90564030D01*
X139312509Y-90776230D01*
X139261500Y-91028120D01*
X139261500Y-91292000D01*
X139182500Y-91292000D01*
X139182500Y-90928120D01*
X139107707Y-90626037D01*
X138945063Y-90427045D01*
X138717815Y-90307009D01*
X138461769Y-90284842D01*
X134961649Y-90683622D01*
X134799623Y-90723738D01*
X134583499Y-90862810D01*
X134438509Y-91075010D01*
X134387500Y-91326900D01*
X134356500Y-91326900D01*
X134334983Y-91161374D01*
X134221270Y-90930896D01*
X134026848Y-90762817D01*
X133782351Y-90683622D01*
X132794000Y-90571016D01*
X132794000Y-90427397D01*
X132864192Y-90357327D01*
X133006838Y-90013799D01*
X133007162Y-89641833D01*
X132865117Y-89298057D01*
X132602327Y-89034808D01*
X132258799Y-88892162D01*
X131886833Y-88891838D01*
X131543057Y-89033883D01*
X131279808Y-89296673D01*
X131137162Y-89640201D01*
X131136958Y-89874858D01*
X131124000Y-89940000D01*
X131124000Y-90380747D01*
X130282231Y-90284842D01*
X129973623Y-90324958D01*
X129757499Y-90464030D01*
X129722563Y-90515160D01*
X129517815Y-90407009D01*
X129261769Y-90384842D01*
X125761649Y-90783622D01*
X125599623Y-90823738D01*
X125383499Y-90962810D01*
X125238509Y-91175010D01*
X125187500Y-91426900D01*
X125187500Y-93027100D01*
X125209017Y-93192626D01*
X125322730Y-93423104D01*
X125517152Y-93591183D01*
X125761649Y-93670378D01*
X126750000Y-93782984D01*
X126750000Y-110368132D01*
X123871072Y-113247060D01*
X123498541Y-113092372D01*
X122649185Y-113091630D01*
X121864200Y-113415980D01*
X121263091Y-114016041D01*
X120937372Y-114800459D01*
X120936630Y-115649815D01*
X120205915Y-115649815D01*
X120198497Y-115261613D01*
X119904739Y-114552418D01*
X119585970Y-114392635D01*
X118251605Y-115727000D01*
X117892395Y-115727000D01*
X116558030Y-114392635D01*
X116239261Y-114552418D01*
X115929277Y-115343187D01*
X110582000Y-115343187D01*
X110582000Y-114213030D01*
X116737635Y-114213030D01*
X118072000Y-115547395D01*
X119406365Y-114213030D01*
X119246582Y-113894261D01*
X118455813Y-113584277D01*
X117606613Y-113600503D01*
X116897418Y-113894261D01*
X116737635Y-114213030D01*
X110582000Y-114213030D01*
X110582000Y-99440970D01*
X116837635Y-99440970D01*
X116997418Y-99759739D01*
X117788187Y-100069723D01*
X118637387Y-100053497D01*
X119346582Y-99759739D01*
X119506365Y-99440970D01*
X118172000Y-98106605D01*
X116837635Y-99440970D01*
X110582000Y-99440970D01*
X110582000Y-97543187D01*
X116029277Y-97543187D01*
X116045503Y-98392387D01*
X116339261Y-99101582D01*
X116658030Y-99261365D01*
X117992395Y-97927000D01*
X118351605Y-97927000D01*
X119685970Y-99261365D01*
X120004739Y-99101582D01*
X120314723Y-98310813D01*
X120298497Y-97461613D01*
X120004739Y-96752418D01*
X119685970Y-96592635D01*
X118351605Y-97927000D01*
X117992395Y-97927000D01*
X116658030Y-96592635D01*
X116339261Y-96752418D01*
X116029277Y-97543187D01*
X110582000Y-97543187D01*
X110582000Y-96413030D01*
X116837635Y-96413030D01*
X118172000Y-97747395D01*
X119506365Y-96413030D01*
X119346582Y-96094261D01*
X118555813Y-95784277D01*
X117706613Y-95800503D01*
X116997418Y-96094261D01*
X116837635Y-96413030D01*
X110582000Y-96413030D01*
X110582000Y-91228120D01*
X111061500Y-91228120D01*
X111061500Y-93625880D01*
X111136293Y-93927963D01*
X111298937Y-94126955D01*
X111526185Y-94246991D01*
X111782231Y-94269158D01*
X115282351Y-93870378D01*
X115444377Y-93830262D01*
X115660501Y-93691190D01*
X115805491Y-93478990D01*
X115856500Y-93227100D01*
X115856500Y-91626900D01*
X115887500Y-91626900D01*
X115887500Y-93227100D01*
X115909017Y-93392626D01*
X116022730Y-93623104D01*
X116217152Y-93791183D01*
X116461649Y-93870378D01*
X119961769Y-94269158D01*
X120270377Y-94229042D01*
X120486501Y-94089970D01*
X120598364Y-93926254D01*
X120598937Y-93926955D01*
X120826185Y-94046991D01*
X121082231Y-94069158D01*
X122337000Y-93926198D01*
X122337000Y-95461942D01*
X121964200Y-95615980D01*
X121363091Y-96216041D01*
X121037372Y-97000459D01*
X121036630Y-97849815D01*
X121360980Y-98634800D01*
X121961041Y-99235909D01*
X122745459Y-99561628D01*
X123594815Y-99562370D01*
X124379800Y-99238020D01*
X124980909Y-98637959D01*
X125306628Y-97853541D01*
X125307370Y-97004185D01*
X124983020Y-96219200D01*
X124382959Y-95618091D01*
X124007000Y-95461979D01*
X124007000Y-93735930D01*
X124582351Y-93670378D01*
X124744377Y-93630262D01*
X124960501Y-93491190D01*
X125105491Y-93278990D01*
X125156500Y-93027100D01*
X125156500Y-91426900D01*
X125134983Y-91261374D01*
X125059165Y-91107703D01*
X132392828Y-83774040D01*
X132390283Y-83777849D01*
X132281050Y-84327000D01*
X132390283Y-84876151D01*
X132701352Y-85341698D01*
X133166899Y-85652767D01*
X133716050Y-85762000D01*
X134587950Y-85762000D01*
X135137101Y-85652767D01*
X135602648Y-85341698D01*
X135913717Y-84876151D01*
X136022950Y-84327000D01*
X135913717Y-83777849D01*
X135602648Y-83312302D01*
X135220562Y-83057000D01*
X135602648Y-82801698D01*
X135913717Y-82336151D01*
X136022950Y-81787000D01*
X135913717Y-81237849D01*
X135602648Y-80772302D01*
X135220562Y-80517000D01*
X135602648Y-80261698D01*
X135913717Y-79796151D01*
X136022950Y-79247000D01*
X135913717Y-78697849D01*
X135602648Y-78232302D01*
X135220562Y-77977000D01*
X135602648Y-77721698D01*
X135913717Y-77256151D01*
X136022950Y-76707000D01*
X135913717Y-76157849D01*
X135901021Y-76138847D01*
X136577868Y-75462000D01*
X140665521Y-75462000D01*
X140267500Y-75782104D01*
X139997633Y-76275181D01*
X139980096Y-76357961D01*
X140102085Y-76580000D01*
X141645000Y-76580000D01*
X141645000Y-76560000D01*
X141899000Y-76560000D01*
X141899000Y-76580000D01*
X143441915Y-76580000D01*
X143563904Y-76357961D01*
X143546367Y-76275181D01*
X143276500Y-75782104D01*
X142878479Y-75462000D01*
X158863003Y-75462000D01*
X158965120Y-75614828D01*
X159357487Y-75877000D01*
X158965120Y-76139172D01*
X158662288Y-76592391D01*
X158555948Y-77127000D01*
X158662288Y-77661609D01*
X158965120Y-78114828D01*
X159418339Y-78417660D01*
X159952948Y-78524000D01*
X160391052Y-78524000D01*
X160925661Y-78417660D01*
X161378880Y-78114828D01*
X161681712Y-77661609D01*
X161788052Y-77127000D01*
X161681712Y-76592391D01*
X161378880Y-76139172D01*
X160986513Y-75877000D01*
X161378880Y-75614828D01*
X161681712Y-75161609D01*
X161788052Y-74627000D01*
X161681712Y-74092391D01*
X161378880Y-73639172D01*
X160925661Y-73336340D01*
X160391052Y-73230000D01*
X159952948Y-73230000D01*
X159418339Y-73336340D01*
X158965120Y-73639172D01*
X158863003Y-73792000D01*
X136232000Y-73792000D01*
X135912459Y-73855561D01*
X135641566Y-74036566D01*
X134406132Y-75272000D01*
X133716050Y-75272000D01*
X133166899Y-75381233D01*
X132701352Y-75692302D01*
X132390283Y-76157849D01*
X132281050Y-76707000D01*
X132390283Y-77256151D01*
X132701352Y-77721698D01*
X133083438Y-77977000D01*
X132701352Y-78232302D01*
X132390283Y-78697849D01*
X132281050Y-79247000D01*
X132390283Y-79796151D01*
X132701352Y-80261698D01*
X133083438Y-80517000D01*
X132701352Y-80772302D01*
X132390283Y-81237849D01*
X132346333Y-81458799D01*
X123181153Y-90623979D01*
X121082231Y-90384842D01*
X120773623Y-90424958D01*
X120557499Y-90564030D01*
X120445636Y-90727746D01*
X120445063Y-90727045D01*
X120217815Y-90607009D01*
X119961769Y-90584842D01*
X116461649Y-90983622D01*
X116299623Y-91023738D01*
X116083499Y-91162810D01*
X115938509Y-91375010D01*
X115887500Y-91626900D01*
X115856500Y-91626900D01*
X115834983Y-91461374D01*
X115759165Y-91307703D01*
X119862434Y-87204434D01*
X120043439Y-86933541D01*
X120107000Y-86614000D01*
X120107000Y-85262000D01*
X121944766Y-85262000D01*
X122185201Y-85361838D01*
X122557167Y-85362162D01*
X122900943Y-85220117D01*
X123164192Y-84957327D01*
X123306838Y-84613799D01*
X123307162Y-84241833D01*
X123165117Y-83898057D01*
X122902327Y-83634808D01*
X122558799Y-83492162D01*
X122186833Y-83491838D01*
X121944422Y-83592000D01*
X120107000Y-83592000D01*
X120107000Y-79127000D01*
X120043439Y-78807459D01*
X119862434Y-78536566D01*
X118962434Y-77636566D01*
X118948117Y-77627000D01*
X118691541Y-77455561D01*
X118372000Y-77392000D01*
X115901157Y-77392000D01*
X115923229Y-77328131D01*
X115774563Y-77154000D01*
X114949000Y-77154000D01*
X114949000Y-77174000D01*
X114695000Y-77174000D01*
X114695000Y-77154000D01*
X113869437Y-77154000D01*
X113720771Y-77328131D01*
X113782560Y-77506926D01*
X113695559Y-77562910D01*
X113550569Y-77775110D01*
X113499560Y-78027000D01*
X113499560Y-78427000D01*
X113523944Y-78556589D01*
X113499560Y-78677000D01*
X113499560Y-79077000D01*
X113523944Y-79206589D01*
X113499560Y-79327000D01*
X113499560Y-79727000D01*
X113523944Y-79856589D01*
X113499560Y-79977000D01*
X113499560Y-80377000D01*
X113519450Y-80482705D01*
X113512000Y-80500690D01*
X113512000Y-80568250D01*
X113541004Y-80597254D01*
X113543838Y-80612317D01*
X113682910Y-80828441D01*
X113827156Y-80927000D01*
X113670750Y-80927000D01*
X113512000Y-81085750D01*
X113512000Y-81153310D01*
X113608673Y-81386699D01*
X113779090Y-81557115D01*
X113720771Y-81725869D01*
X113869437Y-81900000D01*
X114695000Y-81900000D01*
X114695000Y-81880000D01*
X114949000Y-81880000D01*
X114949000Y-81900000D01*
X115774563Y-81900000D01*
X115923229Y-81725869D01*
X115864910Y-81557115D01*
X116035327Y-81386699D01*
X116132000Y-81153310D01*
X116132000Y-81085750D01*
X115973250Y-80927000D01*
X115814933Y-80927000D01*
X115948441Y-80841090D01*
X116093431Y-80628890D01*
X116099035Y-80601215D01*
X116132000Y-80568250D01*
X116132000Y-80500690D01*
X116123532Y-80480247D01*
X116144440Y-80377000D01*
X116144440Y-79977000D01*
X116120056Y-79847411D01*
X116144440Y-79727000D01*
X116144440Y-79327000D01*
X116120056Y-79197411D01*
X116144440Y-79077000D01*
X116144440Y-79062000D01*
X118026132Y-79062000D01*
X118437000Y-79472868D01*
X118437000Y-86268132D01*
X113881153Y-90823979D01*
X111782231Y-90584842D01*
X111473623Y-90624958D01*
X111257499Y-90764030D01*
X111112509Y-90976230D01*
X111061500Y-91228120D01*
X110582000Y-91228120D01*
X110582000Y-83328874D01*
X110752881Y-83328874D01*
X110954632Y-83739763D01*
X111295322Y-84027002D01*
X111720000Y-84162000D01*
X111995000Y-84162000D01*
X111995000Y-83154000D01*
X112249000Y-83154000D01*
X112249000Y-84162000D01*
X112524000Y-84162000D01*
X112948678Y-84027002D01*
X113289368Y-83739763D01*
X113491119Y-83328874D01*
X113364954Y-83154000D01*
X112249000Y-83154000D01*
X111995000Y-83154000D01*
X110879046Y-83154000D01*
X110752881Y-83328874D01*
X110582000Y-83328874D01*
X110582000Y-82725126D01*
X110752881Y-82725126D01*
X110879046Y-82900000D01*
X111995000Y-82900000D01*
X111995000Y-81892000D01*
X112249000Y-81892000D01*
X112249000Y-82900000D01*
X113364954Y-82900000D01*
X113491119Y-82725126D01*
X113296191Y-82328131D01*
X113720771Y-82328131D01*
X113862432Y-82738049D01*
X114150179Y-83062552D01*
X114524062Y-83246268D01*
X114695000Y-83119734D01*
X114695000Y-82154000D01*
X114949000Y-82154000D01*
X114949000Y-83119734D01*
X115119938Y-83246268D01*
X115493821Y-83062552D01*
X115781568Y-82738049D01*
X115923229Y-82328131D01*
X115774563Y-82154000D01*
X114949000Y-82154000D01*
X114695000Y-82154000D01*
X113869437Y-82154000D01*
X113720771Y-82328131D01*
X113296191Y-82328131D01*
X113289368Y-82314237D01*
X112948678Y-82026998D01*
X112524000Y-81892000D01*
X112249000Y-81892000D01*
X111995000Y-81892000D01*
X111720000Y-81892000D01*
X111295322Y-82026998D01*
X110954632Y-82314237D01*
X110752881Y-82725126D01*
X110582000Y-82725126D01*
X110582000Y-76328874D01*
X110752881Y-76328874D01*
X110954632Y-76739763D01*
X111295322Y-77027002D01*
X111720000Y-77162000D01*
X111995000Y-77162000D01*
X111995000Y-76154000D01*
X112249000Y-76154000D01*
X112249000Y-77162000D01*
X112524000Y-77162000D01*
X112948678Y-77027002D01*
X113289368Y-76739763D01*
X113296190Y-76725869D01*
X113720771Y-76725869D01*
X113869437Y-76900000D01*
X114695000Y-76900000D01*
X114695000Y-75934266D01*
X114949000Y-75934266D01*
X114949000Y-76900000D01*
X115774563Y-76900000D01*
X115923229Y-76725869D01*
X115781568Y-76315951D01*
X115493821Y-75991448D01*
X115119938Y-75807732D01*
X114949000Y-75934266D01*
X114695000Y-75934266D01*
X114524062Y-75807732D01*
X114150179Y-75991448D01*
X113862432Y-76315951D01*
X113720771Y-76725869D01*
X113296190Y-76725869D01*
X113491119Y-76328874D01*
X113364954Y-76154000D01*
X112249000Y-76154000D01*
X111995000Y-76154000D01*
X110879046Y-76154000D01*
X110752881Y-76328874D01*
X110582000Y-76328874D01*
X110582000Y-75725126D01*
X110752881Y-75725126D01*
X110879046Y-75900000D01*
X111995000Y-75900000D01*
X111995000Y-74892000D01*
X112249000Y-74892000D01*
X112249000Y-75900000D01*
X113364954Y-75900000D01*
X113491119Y-75725126D01*
X113289368Y-75314237D01*
X112948678Y-75026998D01*
X112524000Y-74892000D01*
X112249000Y-74892000D01*
X111995000Y-74892000D01*
X111720000Y-74892000D01*
X111295322Y-75026998D01*
X110954632Y-75314237D01*
X110752881Y-75725126D01*
X110582000Y-75725126D01*
X110582000Y-72237000D01*
X168962000Y-72237000D01*
X168962000Y-76917000D01*
X168962000Y-76917000D01*
G37*
X168962000Y-76917000D02*
X168472000Y-76917000D01*
X168200295Y-76971046D01*
X168007301Y-77100000D01*
X167872000Y-77100000D01*
X167822590Y-77110006D01*
X167780965Y-77138447D01*
X167753685Y-77180841D01*
X167745000Y-77227000D01*
X167745000Y-82327000D01*
X167755006Y-82376410D01*
X167783447Y-82418035D01*
X167825841Y-82445315D01*
X167872000Y-82454000D01*
X168962000Y-82454000D01*
X168962000Y-130317000D01*
X110582000Y-130317000D01*
X110582000Y-117240970D01*
X116737635Y-117240970D01*
X116897418Y-117559739D01*
X117688187Y-117869723D01*
X118537387Y-117853497D01*
X119246582Y-117559739D01*
X119406365Y-117240970D01*
X118072000Y-115906605D01*
X116737635Y-117240970D01*
X110582000Y-117240970D01*
X110582000Y-115343187D01*
X115929277Y-115343187D01*
X115945503Y-116192387D01*
X116239261Y-116901582D01*
X116558030Y-117061365D01*
X117892395Y-115727000D01*
X118251605Y-115727000D01*
X119585970Y-117061365D01*
X119904739Y-116901582D01*
X120214723Y-116110813D01*
X120205915Y-115649815D01*
X120936630Y-115649815D01*
X121260980Y-116434800D01*
X121861041Y-117035909D01*
X122645459Y-117361628D01*
X123494815Y-117362370D01*
X123788624Y-117240970D01*
X136037635Y-117240970D01*
X136197418Y-117559739D01*
X136988187Y-117869723D01*
X137837387Y-117853497D01*
X138546582Y-117559739D01*
X138706365Y-117240970D01*
X137372000Y-115906605D01*
X136037635Y-117240970D01*
X123788624Y-117240970D01*
X124279800Y-117038020D01*
X124880909Y-116437959D01*
X125206628Y-115653541D01*
X125206899Y-115343187D01*
X135229277Y-115343187D01*
X135245503Y-116192387D01*
X135539261Y-116901582D01*
X135858030Y-117061365D01*
X137192395Y-115727000D01*
X137551605Y-115727000D01*
X138885970Y-117061365D01*
X139204739Y-116901582D01*
X139514723Y-116110813D01*
X139505915Y-115649815D01*
X140236630Y-115649815D01*
X140560980Y-116434800D01*
X141161041Y-117035909D01*
X141945459Y-117361628D01*
X142794815Y-117362370D01*
X143088624Y-117240970D01*
X155137635Y-117240970D01*
X155297418Y-117559739D01*
X156088187Y-117869723D01*
X156937387Y-117853497D01*
X157646582Y-117559739D01*
X157806365Y-117240970D01*
X156472000Y-115906605D01*
X155137635Y-117240970D01*
X143088624Y-117240970D01*
X143579800Y-117038020D01*
X144180909Y-116437959D01*
X144506628Y-115653541D01*
X144506899Y-115343187D01*
X154329277Y-115343187D01*
X154345503Y-116192387D01*
X154639261Y-116901582D01*
X154958030Y-117061365D01*
X156292395Y-115727000D01*
X156651605Y-115727000D01*
X157985970Y-117061365D01*
X158304739Y-116901582D01*
X158614723Y-116110813D01*
X158605915Y-115649815D01*
X159336630Y-115649815D01*
X159660980Y-116434800D01*
X160261041Y-117035909D01*
X161045459Y-117361628D01*
X161894815Y-117362370D01*
X162679800Y-117038020D01*
X163280909Y-116437959D01*
X163606628Y-115653541D01*
X163607370Y-114804185D01*
X163451914Y-114427954D01*
X166275434Y-111604434D01*
X166456440Y-111333540D01*
X166520000Y-111014000D01*
X166520000Y-94073253D01*
X167361769Y-94169158D01*
X167670377Y-94129042D01*
X167886501Y-93989970D01*
X168031491Y-93777770D01*
X168082500Y-93525880D01*
X168082500Y-91128120D01*
X168007707Y-90826037D01*
X167845063Y-90627045D01*
X167617815Y-90507009D01*
X167361769Y-90484842D01*
X163861649Y-90883622D01*
X163699623Y-90923738D01*
X163483499Y-91062810D01*
X163338509Y-91275010D01*
X163287500Y-91526900D01*
X163287500Y-93127100D01*
X163309017Y-93292626D01*
X163422730Y-93523104D01*
X163617152Y-93691183D01*
X163861649Y-93770378D01*
X164850000Y-93882984D01*
X164850000Y-110668132D01*
X162271072Y-113247060D01*
X161898541Y-113092372D01*
X161049185Y-113091630D01*
X160264200Y-113415980D01*
X159663091Y-114016041D01*
X159337372Y-114800459D01*
X159336630Y-115649815D01*
X158605915Y-115649815D01*
X158598497Y-115261613D01*
X158304739Y-114552418D01*
X157985970Y-114392635D01*
X156651605Y-115727000D01*
X156292395Y-115727000D01*
X154958030Y-114392635D01*
X154639261Y-114552418D01*
X154329277Y-115343187D01*
X144506899Y-115343187D01*
X144507370Y-114804185D01*
X144351914Y-114427954D01*
X144566838Y-114213030D01*
X155137635Y-114213030D01*
X156472000Y-115547395D01*
X157806365Y-114213030D01*
X157646582Y-113894261D01*
X156855813Y-113584277D01*
X156006613Y-113600503D01*
X155297418Y-113894261D01*
X155137635Y-114213030D01*
X144566838Y-114213030D01*
X147075434Y-111704434D01*
X147142252Y-111604434D01*
X147256439Y-111433541D01*
X147320000Y-111114000D01*
X147320000Y-99540970D01*
X155137635Y-99540970D01*
X155297418Y-99859739D01*
X156088187Y-100169723D01*
X156937387Y-100153497D01*
X157646582Y-99859739D01*
X157806365Y-99540970D01*
X156472000Y-98206605D01*
X155137635Y-99540970D01*
X147320000Y-99540970D01*
X147320000Y-97643187D01*
X154329277Y-97643187D01*
X154345503Y-98492387D01*
X154639261Y-99201582D01*
X154958030Y-99361365D01*
X156292395Y-98027000D01*
X156651605Y-98027000D01*
X157985970Y-99361365D01*
X158304739Y-99201582D01*
X158614723Y-98410813D01*
X158598497Y-97561613D01*
X158304739Y-96852418D01*
X157985970Y-96692635D01*
X156651605Y-98027000D01*
X156292395Y-98027000D01*
X154958030Y-96692635D01*
X154639261Y-96852418D01*
X154329277Y-97643187D01*
X147320000Y-97643187D01*
X147320000Y-96513030D01*
X155137635Y-96513030D01*
X156472000Y-97847395D01*
X157806365Y-96513030D01*
X157646582Y-96194261D01*
X156855813Y-95884277D01*
X156006613Y-95900503D01*
X155297418Y-96194261D01*
X155137635Y-96513030D01*
X147320000Y-96513030D01*
X147320000Y-93973253D01*
X148161769Y-94069158D01*
X148470377Y-94029042D01*
X148686501Y-93889970D01*
X148831491Y-93677770D01*
X148873052Y-93472537D01*
X148936293Y-93727963D01*
X149098937Y-93926955D01*
X149326185Y-94046991D01*
X149582231Y-94069158D01*
X153082351Y-93670378D01*
X153244377Y-93630262D01*
X153460501Y-93491190D01*
X153605491Y-93278990D01*
X153656500Y-93027100D01*
X153656500Y-91426900D01*
X153634983Y-91261374D01*
X153521270Y-91030896D01*
X153326848Y-90862817D01*
X153082351Y-90783622D01*
X152094000Y-90671016D01*
X152094000Y-90385542D01*
X152206838Y-90113799D01*
X152207162Y-89741833D01*
X152065117Y-89398057D01*
X151802327Y-89134808D01*
X151458799Y-88992162D01*
X151086833Y-88991838D01*
X150743057Y-89133883D01*
X150479808Y-89396673D01*
X150337162Y-89740201D01*
X150336838Y-90112167D01*
X150424000Y-90323116D01*
X150424000Y-90480747D01*
X149582231Y-90384842D01*
X149273623Y-90424958D01*
X149057499Y-90564030D01*
X148912509Y-90776230D01*
X148870948Y-90981463D01*
X148807707Y-90726037D01*
X148645063Y-90527045D01*
X148417815Y-90407009D01*
X148161769Y-90384842D01*
X144661649Y-90783622D01*
X144499623Y-90823738D01*
X144283499Y-90962810D01*
X144138509Y-91175010D01*
X144087500Y-91426900D01*
X144087500Y-93027100D01*
X144109017Y-93192626D01*
X144222730Y-93423104D01*
X144417152Y-93591183D01*
X144661649Y-93670378D01*
X145650000Y-93782984D01*
X145650000Y-110768132D01*
X143171072Y-113247060D01*
X142798541Y-113092372D01*
X141949185Y-113091630D01*
X141164200Y-113415980D01*
X140563091Y-114016041D01*
X140237372Y-114800459D01*
X140236630Y-115649815D01*
X139505915Y-115649815D01*
X139498497Y-115261613D01*
X139204739Y-114552418D01*
X138885970Y-114392635D01*
X137551605Y-115727000D01*
X137192395Y-115727000D01*
X135858030Y-114392635D01*
X135539261Y-114552418D01*
X135229277Y-115343187D01*
X125206899Y-115343187D01*
X125207370Y-114804185D01*
X125051914Y-114427954D01*
X125266838Y-114213030D01*
X136037635Y-114213030D01*
X137372000Y-115547395D01*
X138706365Y-114213030D01*
X138546582Y-113894261D01*
X137755813Y-113584277D01*
X136906613Y-113600503D01*
X136197418Y-113894261D01*
X136037635Y-114213030D01*
X125266838Y-114213030D01*
X128175434Y-111304434D01*
X128302678Y-111114000D01*
X128356439Y-111033541D01*
X128420000Y-110714000D01*
X128420000Y-99540970D01*
X136037635Y-99540970D01*
X136197418Y-99859739D01*
X136988187Y-100169723D01*
X137837387Y-100153497D01*
X138546582Y-99859739D01*
X138706365Y-99540970D01*
X137372000Y-98206605D01*
X136037635Y-99540970D01*
X128420000Y-99540970D01*
X128420000Y-97643187D01*
X135229277Y-97643187D01*
X135245503Y-98492387D01*
X135539261Y-99201582D01*
X135858030Y-99361365D01*
X137192395Y-98027000D01*
X137551605Y-98027000D01*
X138885970Y-99361365D01*
X139204739Y-99201582D01*
X139514723Y-98410813D01*
X139498497Y-97561613D01*
X139204739Y-96852418D01*
X138885970Y-96692635D01*
X137551605Y-98027000D01*
X137192395Y-98027000D01*
X135858030Y-96692635D01*
X135539261Y-96852418D01*
X135229277Y-97643187D01*
X128420000Y-97643187D01*
X128420000Y-96513030D01*
X136037635Y-96513030D01*
X137372000Y-97847395D01*
X138706365Y-96513030D01*
X138546582Y-96194261D01*
X137755813Y-95884277D01*
X136906613Y-95900503D01*
X136197418Y-96194261D01*
X136037635Y-96513030D01*
X128420000Y-96513030D01*
X128420000Y-93973253D01*
X129261769Y-94069158D01*
X129570377Y-94029042D01*
X129786501Y-93889970D01*
X129821437Y-93838840D01*
X130026185Y-93946991D01*
X130282231Y-93969158D01*
X133782351Y-93570378D01*
X133944377Y-93530262D01*
X134160501Y-93391190D01*
X134305491Y-93178990D01*
X134356500Y-92927100D01*
X134356500Y-91326900D01*
X134387500Y-91326900D01*
X134387500Y-92927100D01*
X134409017Y-93092626D01*
X134522730Y-93323104D01*
X134717152Y-93491183D01*
X134961649Y-93570378D01*
X138461769Y-93969158D01*
X138770377Y-93929042D01*
X138986501Y-93789970D01*
X139131491Y-93577770D01*
X139182500Y-93325880D01*
X139182500Y-92962000D01*
X139261500Y-92962000D01*
X139261500Y-93425880D01*
X139336293Y-93727963D01*
X139498937Y-93926955D01*
X139726185Y-94046991D01*
X139982231Y-94069158D01*
X141537000Y-93892018D01*
X141537000Y-95561942D01*
X141164200Y-95715980D01*
X140563091Y-96316041D01*
X140237372Y-97100459D01*
X140236630Y-97949815D01*
X140560980Y-98734800D01*
X141161041Y-99335909D01*
X141945459Y-99661628D01*
X142794815Y-99662370D01*
X143579800Y-99338020D01*
X144180909Y-98737959D01*
X144506628Y-97953541D01*
X144507370Y-97104185D01*
X144183020Y-96319200D01*
X143582959Y-95718091D01*
X143207000Y-95561979D01*
X143207000Y-93701750D01*
X143482351Y-93670378D01*
X143644377Y-93630262D01*
X143860501Y-93491190D01*
X144005491Y-93278990D01*
X144056500Y-93027100D01*
X144056500Y-91426900D01*
X144034983Y-91261374D01*
X143921270Y-91030896D01*
X143726848Y-90862817D01*
X143482351Y-90783622D01*
X142494000Y-90671016D01*
X142494000Y-89885868D01*
X144862434Y-87517434D01*
X144950630Y-87385439D01*
X145043439Y-87246541D01*
X145107000Y-86927000D01*
X145107000Y-83027000D01*
X145043439Y-82707459D01*
X144862434Y-82436566D01*
X143622434Y-81196566D01*
X143456586Y-81085750D01*
X143412328Y-81056177D01*
X143222648Y-80772302D01*
X142840562Y-80517000D01*
X143052512Y-80375380D01*
X153784635Y-91107503D01*
X153738509Y-91175010D01*
X153687500Y-91426900D01*
X153687500Y-93027100D01*
X153709017Y-93192626D01*
X153822730Y-93423104D01*
X154017152Y-93591183D01*
X154261649Y-93670378D01*
X157761769Y-94069158D01*
X158070377Y-94029042D01*
X158286501Y-93889970D01*
X158431491Y-93677770D01*
X158461912Y-93527545D01*
X158536293Y-93827963D01*
X158698937Y-94026955D01*
X158926185Y-94146991D01*
X159182231Y-94169158D01*
X160637000Y-94003411D01*
X160637000Y-95561942D01*
X160264200Y-95715980D01*
X159663091Y-96316041D01*
X159337372Y-97100459D01*
X159336630Y-97949815D01*
X159660980Y-98734800D01*
X160261041Y-99335909D01*
X161045459Y-99661628D01*
X161894815Y-99662370D01*
X162679800Y-99338020D01*
X163280909Y-98737959D01*
X163606628Y-97953541D01*
X163607370Y-97104185D01*
X163283020Y-96319200D01*
X162682959Y-95718091D01*
X162307000Y-95561979D01*
X162307000Y-93813143D01*
X162682351Y-93770378D01*
X162844377Y-93730262D01*
X163060501Y-93591190D01*
X163205491Y-93378990D01*
X163256500Y-93127100D01*
X163256500Y-91526900D01*
X163234983Y-91361374D01*
X163121270Y-91130896D01*
X162926848Y-90962817D01*
X162682351Y-90883622D01*
X159182231Y-90484842D01*
X158873623Y-90524958D01*
X158657499Y-90664030D01*
X158512509Y-90876230D01*
X158482088Y-91026455D01*
X158407707Y-90726037D01*
X158245063Y-90527045D01*
X158017815Y-90407009D01*
X157761769Y-90384842D01*
X155662847Y-90623979D01*
X147165868Y-82127000D01*
X158555948Y-82127000D01*
X158662288Y-82661609D01*
X158965120Y-83114828D01*
X159357487Y-83377000D01*
X158965120Y-83639172D01*
X158662288Y-84092391D01*
X158555948Y-84627000D01*
X158662288Y-85161609D01*
X158965120Y-85614828D01*
X159418339Y-85917660D01*
X159952948Y-86024000D01*
X160391052Y-86024000D01*
X160925661Y-85917660D01*
X161378880Y-85614828D01*
X161681712Y-85161609D01*
X161788052Y-84627000D01*
X161681712Y-84092391D01*
X161378880Y-83639172D01*
X160986513Y-83377000D01*
X161378880Y-83114828D01*
X161681712Y-82661609D01*
X161788052Y-82127000D01*
X161681712Y-81592391D01*
X161378880Y-81139172D01*
X160925661Y-80836340D01*
X160391052Y-80730000D01*
X159952948Y-80730000D01*
X159418339Y-80836340D01*
X158965120Y-81139172D01*
X158662288Y-81592391D01*
X158555948Y-82127000D01*
X147165868Y-82127000D01*
X145012591Y-79973723D01*
X163779926Y-79973723D01*
X163946632Y-80494365D01*
X164299889Y-80911579D01*
X164785917Y-81161849D01*
X164828930Y-81169220D01*
X165045000Y-81046720D01*
X165045000Y-79754000D01*
X165299000Y-79754000D01*
X165299000Y-81046720D01*
X165515070Y-81169220D01*
X165558083Y-81161849D01*
X166044111Y-80911579D01*
X166397368Y-80494365D01*
X166564074Y-79973723D01*
X166413015Y-79754000D01*
X165299000Y-79754000D01*
X165045000Y-79754000D01*
X163930985Y-79754000D01*
X163779926Y-79973723D01*
X145012591Y-79973723D01*
X144319145Y-79280277D01*
X163779926Y-79280277D01*
X163930985Y-79500000D01*
X165045000Y-79500000D01*
X165045000Y-78207280D01*
X165299000Y-78207280D01*
X165299000Y-79500000D01*
X166413015Y-79500000D01*
X166564074Y-79280277D01*
X166397368Y-78759635D01*
X166044111Y-78342421D01*
X165558083Y-78092151D01*
X165515070Y-78084780D01*
X165299000Y-78207280D01*
X165045000Y-78207280D01*
X164828930Y-78084780D01*
X164785917Y-78092151D01*
X164299889Y-78342421D01*
X163946632Y-78759635D01*
X163779926Y-79280277D01*
X144319145Y-79280277D01*
X143695434Y-78656566D01*
X143424541Y-78475561D01*
X143379157Y-78466533D01*
X143222648Y-78232302D01*
X142844293Y-77979493D01*
X143276500Y-77631896D01*
X143546367Y-77138819D01*
X143563904Y-77056039D01*
X143441915Y-76834000D01*
X141899000Y-76834000D01*
X141899000Y-76854000D01*
X141645000Y-76854000D01*
X141645000Y-76834000D01*
X140102085Y-76834000D01*
X139980096Y-77056039D01*
X139997633Y-77138819D01*
X140267500Y-77631896D01*
X140699707Y-77979493D01*
X140321352Y-78232302D01*
X140010283Y-78697849D01*
X139901050Y-79247000D01*
X140010283Y-79796151D01*
X140321352Y-80261698D01*
X140703438Y-80517000D01*
X140321352Y-80772302D01*
X140010283Y-81237849D01*
X139901050Y-81787000D01*
X140010283Y-82336151D01*
X140321352Y-82801698D01*
X140467350Y-82899251D01*
X140336683Y-82923838D01*
X140120559Y-83062910D01*
X139975569Y-83275110D01*
X139924560Y-83527000D01*
X139924560Y-85127000D01*
X139968838Y-85362317D01*
X140107910Y-85578441D01*
X140320110Y-85723431D01*
X140572000Y-85774440D01*
X142972000Y-85774440D01*
X143207317Y-85730162D01*
X143423441Y-85591090D01*
X143437000Y-85571246D01*
X143437000Y-86581132D01*
X141068566Y-88949566D01*
X140887561Y-89220459D01*
X140824000Y-89540000D01*
X140824000Y-90480747D01*
X139982231Y-90384842D01*
X139673623Y-90424958D01*
X139457499Y-90564030D01*
X139312509Y-90776230D01*
X139261500Y-91028120D01*
X139261500Y-91292000D01*
X139182500Y-91292000D01*
X139182500Y-90928120D01*
X139107707Y-90626037D01*
X138945063Y-90427045D01*
X138717815Y-90307009D01*
X138461769Y-90284842D01*
X134961649Y-90683622D01*
X134799623Y-90723738D01*
X134583499Y-90862810D01*
X134438509Y-91075010D01*
X134387500Y-91326900D01*
X134356500Y-91326900D01*
X134334983Y-91161374D01*
X134221270Y-90930896D01*
X134026848Y-90762817D01*
X133782351Y-90683622D01*
X132794000Y-90571016D01*
X132794000Y-90427397D01*
X132864192Y-90357327D01*
X133006838Y-90013799D01*
X133007162Y-89641833D01*
X132865117Y-89298057D01*
X132602327Y-89034808D01*
X132258799Y-88892162D01*
X131886833Y-88891838D01*
X131543057Y-89033883D01*
X131279808Y-89296673D01*
X131137162Y-89640201D01*
X131136958Y-89874858D01*
X131124000Y-89940000D01*
X131124000Y-90380747D01*
X130282231Y-90284842D01*
X129973623Y-90324958D01*
X129757499Y-90464030D01*
X129722563Y-90515160D01*
X129517815Y-90407009D01*
X129261769Y-90384842D01*
X125761649Y-90783622D01*
X125599623Y-90823738D01*
X125383499Y-90962810D01*
X125238509Y-91175010D01*
X125187500Y-91426900D01*
X125187500Y-93027100D01*
X125209017Y-93192626D01*
X125322730Y-93423104D01*
X125517152Y-93591183D01*
X125761649Y-93670378D01*
X126750000Y-93782984D01*
X126750000Y-110368132D01*
X123871072Y-113247060D01*
X123498541Y-113092372D01*
X122649185Y-113091630D01*
X121864200Y-113415980D01*
X121263091Y-114016041D01*
X120937372Y-114800459D01*
X120936630Y-115649815D01*
X120205915Y-115649815D01*
X120198497Y-115261613D01*
X119904739Y-114552418D01*
X119585970Y-114392635D01*
X118251605Y-115727000D01*
X117892395Y-115727000D01*
X116558030Y-114392635D01*
X116239261Y-114552418D01*
X115929277Y-115343187D01*
X110582000Y-115343187D01*
X110582000Y-114213030D01*
X116737635Y-114213030D01*
X118072000Y-115547395D01*
X119406365Y-114213030D01*
X119246582Y-113894261D01*
X118455813Y-113584277D01*
X117606613Y-113600503D01*
X116897418Y-113894261D01*
X116737635Y-114213030D01*
X110582000Y-114213030D01*
X110582000Y-99440970D01*
X116837635Y-99440970D01*
X116997418Y-99759739D01*
X117788187Y-100069723D01*
X118637387Y-100053497D01*
X119346582Y-99759739D01*
X119506365Y-99440970D01*
X118172000Y-98106605D01*
X116837635Y-99440970D01*
X110582000Y-99440970D01*
X110582000Y-97543187D01*
X116029277Y-97543187D01*
X116045503Y-98392387D01*
X116339261Y-99101582D01*
X116658030Y-99261365D01*
X117992395Y-97927000D01*
X118351605Y-97927000D01*
X119685970Y-99261365D01*
X120004739Y-99101582D01*
X120314723Y-98310813D01*
X120298497Y-97461613D01*
X120004739Y-96752418D01*
X119685970Y-96592635D01*
X118351605Y-97927000D01*
X117992395Y-97927000D01*
X116658030Y-96592635D01*
X116339261Y-96752418D01*
X116029277Y-97543187D01*
X110582000Y-97543187D01*
X110582000Y-96413030D01*
X116837635Y-96413030D01*
X118172000Y-97747395D01*
X119506365Y-96413030D01*
X119346582Y-96094261D01*
X118555813Y-95784277D01*
X117706613Y-95800503D01*
X116997418Y-96094261D01*
X116837635Y-96413030D01*
X110582000Y-96413030D01*
X110582000Y-91228120D01*
X111061500Y-91228120D01*
X111061500Y-93625880D01*
X111136293Y-93927963D01*
X111298937Y-94126955D01*
X111526185Y-94246991D01*
X111782231Y-94269158D01*
X115282351Y-93870378D01*
X115444377Y-93830262D01*
X115660501Y-93691190D01*
X115805491Y-93478990D01*
X115856500Y-93227100D01*
X115856500Y-91626900D01*
X115887500Y-91626900D01*
X115887500Y-93227100D01*
X115909017Y-93392626D01*
X116022730Y-93623104D01*
X116217152Y-93791183D01*
X116461649Y-93870378D01*
X119961769Y-94269158D01*
X120270377Y-94229042D01*
X120486501Y-94089970D01*
X120598364Y-93926254D01*
X120598937Y-93926955D01*
X120826185Y-94046991D01*
X121082231Y-94069158D01*
X122337000Y-93926198D01*
X122337000Y-95461942D01*
X121964200Y-95615980D01*
X121363091Y-96216041D01*
X121037372Y-97000459D01*
X121036630Y-97849815D01*
X121360980Y-98634800D01*
X121961041Y-99235909D01*
X122745459Y-99561628D01*
X123594815Y-99562370D01*
X124379800Y-99238020D01*
X124980909Y-98637959D01*
X125306628Y-97853541D01*
X125307370Y-97004185D01*
X124983020Y-96219200D01*
X124382959Y-95618091D01*
X124007000Y-95461979D01*
X124007000Y-93735930D01*
X124582351Y-93670378D01*
X124744377Y-93630262D01*
X124960501Y-93491190D01*
X125105491Y-93278990D01*
X125156500Y-93027100D01*
X125156500Y-91426900D01*
X125134983Y-91261374D01*
X125059165Y-91107703D01*
X132392828Y-83774040D01*
X132390283Y-83777849D01*
X132281050Y-84327000D01*
X132390283Y-84876151D01*
X132701352Y-85341698D01*
X133166899Y-85652767D01*
X133716050Y-85762000D01*
X134587950Y-85762000D01*
X135137101Y-85652767D01*
X135602648Y-85341698D01*
X135913717Y-84876151D01*
X136022950Y-84327000D01*
X135913717Y-83777849D01*
X135602648Y-83312302D01*
X135220562Y-83057000D01*
X135602648Y-82801698D01*
X135913717Y-82336151D01*
X136022950Y-81787000D01*
X135913717Y-81237849D01*
X135602648Y-80772302D01*
X135220562Y-80517000D01*
X135602648Y-80261698D01*
X135913717Y-79796151D01*
X136022950Y-79247000D01*
X135913717Y-78697849D01*
X135602648Y-78232302D01*
X135220562Y-77977000D01*
X135602648Y-77721698D01*
X135913717Y-77256151D01*
X136022950Y-76707000D01*
X135913717Y-76157849D01*
X135901021Y-76138847D01*
X136577868Y-75462000D01*
X140665521Y-75462000D01*
X140267500Y-75782104D01*
X139997633Y-76275181D01*
X139980096Y-76357961D01*
X140102085Y-76580000D01*
X141645000Y-76580000D01*
X141645000Y-76560000D01*
X141899000Y-76560000D01*
X141899000Y-76580000D01*
X143441915Y-76580000D01*
X143563904Y-76357961D01*
X143546367Y-76275181D01*
X143276500Y-75782104D01*
X142878479Y-75462000D01*
X158863003Y-75462000D01*
X158965120Y-75614828D01*
X159357487Y-75877000D01*
X158965120Y-76139172D01*
X158662288Y-76592391D01*
X158555948Y-77127000D01*
X158662288Y-77661609D01*
X158965120Y-78114828D01*
X159418339Y-78417660D01*
X159952948Y-78524000D01*
X160391052Y-78524000D01*
X160925661Y-78417660D01*
X161378880Y-78114828D01*
X161681712Y-77661609D01*
X161788052Y-77127000D01*
X161681712Y-76592391D01*
X161378880Y-76139172D01*
X160986513Y-75877000D01*
X161378880Y-75614828D01*
X161681712Y-75161609D01*
X161788052Y-74627000D01*
X161681712Y-74092391D01*
X161378880Y-73639172D01*
X160925661Y-73336340D01*
X160391052Y-73230000D01*
X159952948Y-73230000D01*
X159418339Y-73336340D01*
X158965120Y-73639172D01*
X158863003Y-73792000D01*
X136232000Y-73792000D01*
X135912459Y-73855561D01*
X135641566Y-74036566D01*
X134406132Y-75272000D01*
X133716050Y-75272000D01*
X133166899Y-75381233D01*
X132701352Y-75692302D01*
X132390283Y-76157849D01*
X132281050Y-76707000D01*
X132390283Y-77256151D01*
X132701352Y-77721698D01*
X133083438Y-77977000D01*
X132701352Y-78232302D01*
X132390283Y-78697849D01*
X132281050Y-79247000D01*
X132390283Y-79796151D01*
X132701352Y-80261698D01*
X133083438Y-80517000D01*
X132701352Y-80772302D01*
X132390283Y-81237849D01*
X132346333Y-81458799D01*
X123181153Y-90623979D01*
X121082231Y-90384842D01*
X120773623Y-90424958D01*
X120557499Y-90564030D01*
X120445636Y-90727746D01*
X120445063Y-90727045D01*
X120217815Y-90607009D01*
X119961769Y-90584842D01*
X116461649Y-90983622D01*
X116299623Y-91023738D01*
X116083499Y-91162810D01*
X115938509Y-91375010D01*
X115887500Y-91626900D01*
X115856500Y-91626900D01*
X115834983Y-91461374D01*
X115759165Y-91307703D01*
X119862434Y-87204434D01*
X120043439Y-86933541D01*
X120107000Y-86614000D01*
X120107000Y-85262000D01*
X121944766Y-85262000D01*
X122185201Y-85361838D01*
X122557167Y-85362162D01*
X122900943Y-85220117D01*
X123164192Y-84957327D01*
X123306838Y-84613799D01*
X123307162Y-84241833D01*
X123165117Y-83898057D01*
X122902327Y-83634808D01*
X122558799Y-83492162D01*
X122186833Y-83491838D01*
X121944422Y-83592000D01*
X120107000Y-83592000D01*
X120107000Y-79127000D01*
X120043439Y-78807459D01*
X119862434Y-78536566D01*
X118962434Y-77636566D01*
X118948117Y-77627000D01*
X118691541Y-77455561D01*
X118372000Y-77392000D01*
X115901157Y-77392000D01*
X115923229Y-77328131D01*
X115774563Y-77154000D01*
X114949000Y-77154000D01*
X114949000Y-77174000D01*
X114695000Y-77174000D01*
X114695000Y-77154000D01*
X113869437Y-77154000D01*
X113720771Y-77328131D01*
X113782560Y-77506926D01*
X113695559Y-77562910D01*
X113550569Y-77775110D01*
X113499560Y-78027000D01*
X113499560Y-78427000D01*
X113523944Y-78556589D01*
X113499560Y-78677000D01*
X113499560Y-79077000D01*
X113523944Y-79206589D01*
X113499560Y-79327000D01*
X113499560Y-79727000D01*
X113523944Y-79856589D01*
X113499560Y-79977000D01*
X113499560Y-80377000D01*
X113519450Y-80482705D01*
X113512000Y-80500690D01*
X113512000Y-80568250D01*
X113541004Y-80597254D01*
X113543838Y-80612317D01*
X113682910Y-80828441D01*
X113827156Y-80927000D01*
X113670750Y-80927000D01*
X113512000Y-81085750D01*
X113512000Y-81153310D01*
X113608673Y-81386699D01*
X113779090Y-81557115D01*
X113720771Y-81725869D01*
X113869437Y-81900000D01*
X114695000Y-81900000D01*
X114695000Y-81880000D01*
X114949000Y-81880000D01*
X114949000Y-81900000D01*
X115774563Y-81900000D01*
X115923229Y-81725869D01*
X115864910Y-81557115D01*
X116035327Y-81386699D01*
X116132000Y-81153310D01*
X116132000Y-81085750D01*
X115973250Y-80927000D01*
X115814933Y-80927000D01*
X115948441Y-80841090D01*
X116093431Y-80628890D01*
X116099035Y-80601215D01*
X116132000Y-80568250D01*
X116132000Y-80500690D01*
X116123532Y-80480247D01*
X116144440Y-80377000D01*
X116144440Y-79977000D01*
X116120056Y-79847411D01*
X116144440Y-79727000D01*
X116144440Y-79327000D01*
X116120056Y-79197411D01*
X116144440Y-79077000D01*
X116144440Y-79062000D01*
X118026132Y-79062000D01*
X118437000Y-79472868D01*
X118437000Y-86268132D01*
X113881153Y-90823979D01*
X111782231Y-90584842D01*
X111473623Y-90624958D01*
X111257499Y-90764030D01*
X111112509Y-90976230D01*
X111061500Y-91228120D01*
X110582000Y-91228120D01*
X110582000Y-83328874D01*
X110752881Y-83328874D01*
X110954632Y-83739763D01*
X111295322Y-84027002D01*
X111720000Y-84162000D01*
X111995000Y-84162000D01*
X111995000Y-83154000D01*
X112249000Y-83154000D01*
X112249000Y-84162000D01*
X112524000Y-84162000D01*
X112948678Y-84027002D01*
X113289368Y-83739763D01*
X113491119Y-83328874D01*
X113364954Y-83154000D01*
X112249000Y-83154000D01*
X111995000Y-83154000D01*
X110879046Y-83154000D01*
X110752881Y-83328874D01*
X110582000Y-83328874D01*
X110582000Y-82725126D01*
X110752881Y-82725126D01*
X110879046Y-82900000D01*
X111995000Y-82900000D01*
X111995000Y-81892000D01*
X112249000Y-81892000D01*
X112249000Y-82900000D01*
X113364954Y-82900000D01*
X113491119Y-82725126D01*
X113296191Y-82328131D01*
X113720771Y-82328131D01*
X113862432Y-82738049D01*
X114150179Y-83062552D01*
X114524062Y-83246268D01*
X114695000Y-83119734D01*
X114695000Y-82154000D01*
X114949000Y-82154000D01*
X114949000Y-83119734D01*
X115119938Y-83246268D01*
X115493821Y-83062552D01*
X115781568Y-82738049D01*
X115923229Y-82328131D01*
X115774563Y-82154000D01*
X114949000Y-82154000D01*
X114695000Y-82154000D01*
X113869437Y-82154000D01*
X113720771Y-82328131D01*
X113296191Y-82328131D01*
X113289368Y-82314237D01*
X112948678Y-82026998D01*
X112524000Y-81892000D01*
X112249000Y-81892000D01*
X111995000Y-81892000D01*
X111720000Y-81892000D01*
X111295322Y-82026998D01*
X110954632Y-82314237D01*
X110752881Y-82725126D01*
X110582000Y-82725126D01*
X110582000Y-76328874D01*
X110752881Y-76328874D01*
X110954632Y-76739763D01*
X111295322Y-77027002D01*
X111720000Y-77162000D01*
X111995000Y-77162000D01*
X111995000Y-76154000D01*
X112249000Y-76154000D01*
X112249000Y-77162000D01*
X112524000Y-77162000D01*
X112948678Y-77027002D01*
X113289368Y-76739763D01*
X113296190Y-76725869D01*
X113720771Y-76725869D01*
X113869437Y-76900000D01*
X114695000Y-76900000D01*
X114695000Y-75934266D01*
X114949000Y-75934266D01*
X114949000Y-76900000D01*
X115774563Y-76900000D01*
X115923229Y-76725869D01*
X115781568Y-76315951D01*
X115493821Y-75991448D01*
X115119938Y-75807732D01*
X114949000Y-75934266D01*
X114695000Y-75934266D01*
X114524062Y-75807732D01*
X114150179Y-75991448D01*
X113862432Y-76315951D01*
X113720771Y-76725869D01*
X113296190Y-76725869D01*
X113491119Y-76328874D01*
X113364954Y-76154000D01*
X112249000Y-76154000D01*
X111995000Y-76154000D01*
X110879046Y-76154000D01*
X110752881Y-76328874D01*
X110582000Y-76328874D01*
X110582000Y-75725126D01*
X110752881Y-75725126D01*
X110879046Y-75900000D01*
X111995000Y-75900000D01*
X111995000Y-74892000D01*
X112249000Y-74892000D01*
X112249000Y-75900000D01*
X113364954Y-75900000D01*
X113491119Y-75725126D01*
X113289368Y-75314237D01*
X112948678Y-75026998D01*
X112524000Y-74892000D01*
X112249000Y-74892000D01*
X111995000Y-74892000D01*
X111720000Y-74892000D01*
X111295322Y-75026998D01*
X110954632Y-75314237D01*
X110752881Y-75725126D01*
X110582000Y-75725126D01*
X110582000Y-72237000D01*
X168962000Y-72237000D01*
X168962000Y-76917000D01*
M02*
