G04 #@! TF.FileFunction,Soldermask,Bot*
%FSLAX46Y46*%
G04 Gerber Fmt 4.6, Leading zero omitted, Abs format (unit mm)*
G04 Created by KiCad (PCBNEW 4.0.6) date Sunday, July 23, 2017 'AMt' 03:34:07 AM*
%MOMM*%
%LPD*%
G01*
G04 APERTURE LIST*
%ADD10C,0.100000*%
%ADD11C,0.010000*%
%ADD12C,2.686000*%
%ADD13O,1.924000X2.300000*%
%ADD14O,2.300000X1.924000*%
%ADD15R,2.800000X2.000000*%
%ADD16O,2.800000X2.000000*%
%ADD17C,2.000000*%
%ADD18O,2.000000X2.000000*%
%ADD19C,1.300000*%
G04 APERTURE END LIST*
D10*
D11*
G36*
X146654771Y-103460166D02*
X146503222Y-103564500D01*
X146437442Y-103684774D01*
X146325020Y-103939603D01*
X146176049Y-104303998D01*
X146000619Y-104752966D01*
X145808823Y-105261517D01*
X145715214Y-105515880D01*
X145524586Y-106028226D01*
X145350305Y-106478106D01*
X145201225Y-106844154D01*
X145086200Y-107105006D01*
X145014082Y-107239297D01*
X144995982Y-107251547D01*
X144955302Y-107153648D01*
X144875573Y-106917503D01*
X144764508Y-106567613D01*
X144629820Y-106128481D01*
X144479224Y-105624608D01*
X144414967Y-105406000D01*
X144233077Y-104801705D01*
X144069956Y-104294313D01*
X143931510Y-103900640D01*
X143823651Y-103637500D01*
X143752916Y-103522167D01*
X143510472Y-103425264D01*
X143253403Y-103446112D01*
X143032698Y-103564130D01*
X142899344Y-103758741D01*
X142881333Y-103873938D01*
X142904199Y-103982486D01*
X142969794Y-104237429D01*
X143073609Y-104622552D01*
X143211139Y-105121636D01*
X143377875Y-105718466D01*
X143569313Y-106396825D01*
X143780943Y-107140497D01*
X144008260Y-107933264D01*
X144043797Y-108056677D01*
X144327177Y-109035697D01*
X144569990Y-109863817D01*
X144776238Y-110553500D01*
X144949926Y-111117209D01*
X145095058Y-111567405D01*
X145215638Y-111916550D01*
X145315671Y-112177108D01*
X145399160Y-112361539D01*
X145461964Y-112470525D01*
X145734158Y-112777874D01*
X146078042Y-113027361D01*
X146455140Y-113204179D01*
X146826973Y-113293521D01*
X147155063Y-113280579D01*
X147347500Y-113196131D01*
X147497794Y-112996018D01*
X147548248Y-112729532D01*
X147498694Y-112464362D01*
X147349828Y-112268801D01*
X147154156Y-112168227D01*
X147015145Y-112137000D01*
X146705835Y-112061281D01*
X146420980Y-111860604D01*
X146276782Y-111677962D01*
X146192410Y-111497092D01*
X146076839Y-111194728D01*
X145945004Y-110812307D01*
X145811841Y-110391263D01*
X145806054Y-110372061D01*
X145491717Y-109326788D01*
X146186797Y-107451061D01*
X146403728Y-106866633D01*
X146619944Y-106285891D01*
X146822231Y-105744197D01*
X146997375Y-105276915D01*
X147132162Y-104919408D01*
X147170704Y-104817980D01*
X147334513Y-104334244D01*
X147405613Y-103973682D01*
X147384383Y-103718016D01*
X147271202Y-103548968D01*
X147198017Y-103500296D01*
X146920129Y-103421290D01*
X146654771Y-103460166D01*
X146654771Y-103460166D01*
G37*
X146654771Y-103460166D02*
X146503222Y-103564500D01*
X146437442Y-103684774D01*
X146325020Y-103939603D01*
X146176049Y-104303998D01*
X146000619Y-104752966D01*
X145808823Y-105261517D01*
X145715214Y-105515880D01*
X145524586Y-106028226D01*
X145350305Y-106478106D01*
X145201225Y-106844154D01*
X145086200Y-107105006D01*
X145014082Y-107239297D01*
X144995982Y-107251547D01*
X144955302Y-107153648D01*
X144875573Y-106917503D01*
X144764508Y-106567613D01*
X144629820Y-106128481D01*
X144479224Y-105624608D01*
X144414967Y-105406000D01*
X144233077Y-104801705D01*
X144069956Y-104294313D01*
X143931510Y-103900640D01*
X143823651Y-103637500D01*
X143752916Y-103522167D01*
X143510472Y-103425264D01*
X143253403Y-103446112D01*
X143032698Y-103564130D01*
X142899344Y-103758741D01*
X142881333Y-103873938D01*
X142904199Y-103982486D01*
X142969794Y-104237429D01*
X143073609Y-104622552D01*
X143211139Y-105121636D01*
X143377875Y-105718466D01*
X143569313Y-106396825D01*
X143780943Y-107140497D01*
X144008260Y-107933264D01*
X144043797Y-108056677D01*
X144327177Y-109035697D01*
X144569990Y-109863817D01*
X144776238Y-110553500D01*
X144949926Y-111117209D01*
X145095058Y-111567405D01*
X145215638Y-111916550D01*
X145315671Y-112177108D01*
X145399160Y-112361539D01*
X145461964Y-112470525D01*
X145734158Y-112777874D01*
X146078042Y-113027361D01*
X146455140Y-113204179D01*
X146826973Y-113293521D01*
X147155063Y-113280579D01*
X147347500Y-113196131D01*
X147497794Y-112996018D01*
X147548248Y-112729532D01*
X147498694Y-112464362D01*
X147349828Y-112268801D01*
X147154156Y-112168227D01*
X147015145Y-112137000D01*
X146705835Y-112061281D01*
X146420980Y-111860604D01*
X146276782Y-111677962D01*
X146192410Y-111497092D01*
X146076839Y-111194728D01*
X145945004Y-110812307D01*
X145811841Y-110391263D01*
X145806054Y-110372061D01*
X145491717Y-109326788D01*
X146186797Y-107451061D01*
X146403728Y-106866633D01*
X146619944Y-106285891D01*
X146822231Y-105744197D01*
X146997375Y-105276915D01*
X147132162Y-104919408D01*
X147170704Y-104817980D01*
X147334513Y-104334244D01*
X147405613Y-103973682D01*
X147384383Y-103718016D01*
X147271202Y-103548968D01*
X147198017Y-103500296D01*
X146920129Y-103421290D01*
X146654771Y-103460166D01*
G36*
X151005003Y-103374061D02*
X150613745Y-103508062D01*
X150386660Y-103609810D01*
X150252855Y-103635287D01*
X150156895Y-103589201D01*
X150115300Y-103550395D01*
X149924108Y-103441899D01*
X149781666Y-103416333D01*
X149662823Y-103420904D01*
X149567021Y-103445839D01*
X149491255Y-103507968D01*
X149432520Y-103624123D01*
X149387810Y-103811134D01*
X149354120Y-104085833D01*
X149328446Y-104465051D01*
X149307782Y-104965618D01*
X149289123Y-105604367D01*
X149272622Y-106267383D01*
X149249723Y-107419496D01*
X149240929Y-108409587D01*
X149246435Y-109244393D01*
X149266437Y-109930652D01*
X149301130Y-110475103D01*
X149350710Y-110884483D01*
X149414649Y-111163333D01*
X149585725Y-111496789D01*
X149857457Y-111827504D01*
X150180179Y-112106047D01*
X150504223Y-112282986D01*
X150556258Y-112299513D01*
X151089129Y-112378249D01*
X151674910Y-112348056D01*
X152030516Y-112275432D01*
X152475103Y-112107150D01*
X152797079Y-111883144D01*
X152983367Y-111618942D01*
X153020892Y-111330073D01*
X152970291Y-111159425D01*
X152801541Y-110956011D01*
X152558776Y-110895448D01*
X152262680Y-110980209D01*
X152128692Y-111058863D01*
X151670937Y-111280795D01*
X151204168Y-111335109D01*
X150906797Y-111285522D01*
X150653948Y-111182229D01*
X150501490Y-111009797D01*
X150452595Y-110907065D01*
X150403352Y-110722958D01*
X150364470Y-110458144D01*
X150338460Y-110159121D01*
X150327830Y-109872388D01*
X150335091Y-109644445D01*
X150362753Y-109521789D01*
X150377312Y-109512333D01*
X150472685Y-109554126D01*
X150640465Y-109655079D01*
X150646601Y-109659089D01*
X150939562Y-109769115D01*
X151343307Y-109805844D01*
X151869710Y-109724457D01*
X152346226Y-109491238D01*
X152742115Y-109122604D01*
X152821171Y-109016592D01*
X153093407Y-108501137D01*
X153290574Y-107873303D01*
X153409953Y-107173808D01*
X153444959Y-106516055D01*
X152401956Y-106516055D01*
X152366147Y-107104497D01*
X152268478Y-107657623D01*
X152111629Y-108135005D01*
X151898281Y-108496214D01*
X151873937Y-108524394D01*
X151617044Y-108738396D01*
X151335426Y-108812478D01*
X150991321Y-108752971D01*
X150839243Y-108697818D01*
X150606741Y-108578121D01*
X150441795Y-108445470D01*
X150414196Y-108407051D01*
X150389060Y-108277827D01*
X150367083Y-108006927D01*
X150349468Y-107621995D01*
X150337419Y-107150679D01*
X150332139Y-106620622D01*
X150332000Y-106518378D01*
X150332000Y-104783290D01*
X150547642Y-104613666D01*
X150906227Y-104426857D01*
X151286634Y-104387293D01*
X151649604Y-104486703D01*
X151955880Y-104716815D01*
X152111412Y-104943101D01*
X152277269Y-105394929D01*
X152373224Y-105932722D01*
X152401956Y-106516055D01*
X153444959Y-106516055D01*
X153448828Y-106443371D01*
X153404479Y-105722711D01*
X153274189Y-105052546D01*
X153115852Y-104601667D01*
X152820892Y-104104921D01*
X152437608Y-103722984D01*
X151990719Y-103466659D01*
X151504945Y-103346750D01*
X151005003Y-103374061D01*
X151005003Y-103374061D01*
G37*
X151005003Y-103374061D02*
X150613745Y-103508062D01*
X150386660Y-103609810D01*
X150252855Y-103635287D01*
X150156895Y-103589201D01*
X150115300Y-103550395D01*
X149924108Y-103441899D01*
X149781666Y-103416333D01*
X149662823Y-103420904D01*
X149567021Y-103445839D01*
X149491255Y-103507968D01*
X149432520Y-103624123D01*
X149387810Y-103811134D01*
X149354120Y-104085833D01*
X149328446Y-104465051D01*
X149307782Y-104965618D01*
X149289123Y-105604367D01*
X149272622Y-106267383D01*
X149249723Y-107419496D01*
X149240929Y-108409587D01*
X149246435Y-109244393D01*
X149266437Y-109930652D01*
X149301130Y-110475103D01*
X149350710Y-110884483D01*
X149414649Y-111163333D01*
X149585725Y-111496789D01*
X149857457Y-111827504D01*
X150180179Y-112106047D01*
X150504223Y-112282986D01*
X150556258Y-112299513D01*
X151089129Y-112378249D01*
X151674910Y-112348056D01*
X152030516Y-112275432D01*
X152475103Y-112107150D01*
X152797079Y-111883144D01*
X152983367Y-111618942D01*
X153020892Y-111330073D01*
X152970291Y-111159425D01*
X152801541Y-110956011D01*
X152558776Y-110895448D01*
X152262680Y-110980209D01*
X152128692Y-111058863D01*
X151670937Y-111280795D01*
X151204168Y-111335109D01*
X150906797Y-111285522D01*
X150653948Y-111182229D01*
X150501490Y-111009797D01*
X150452595Y-110907065D01*
X150403352Y-110722958D01*
X150364470Y-110458144D01*
X150338460Y-110159121D01*
X150327830Y-109872388D01*
X150335091Y-109644445D01*
X150362753Y-109521789D01*
X150377312Y-109512333D01*
X150472685Y-109554126D01*
X150640465Y-109655079D01*
X150646601Y-109659089D01*
X150939562Y-109769115D01*
X151343307Y-109805844D01*
X151869710Y-109724457D01*
X152346226Y-109491238D01*
X152742115Y-109122604D01*
X152821171Y-109016592D01*
X153093407Y-108501137D01*
X153290574Y-107873303D01*
X153409953Y-107173808D01*
X153444959Y-106516055D01*
X152401956Y-106516055D01*
X152366147Y-107104497D01*
X152268478Y-107657623D01*
X152111629Y-108135005D01*
X151898281Y-108496214D01*
X151873937Y-108524394D01*
X151617044Y-108738396D01*
X151335426Y-108812478D01*
X150991321Y-108752971D01*
X150839243Y-108697818D01*
X150606741Y-108578121D01*
X150441795Y-108445470D01*
X150414196Y-108407051D01*
X150389060Y-108277827D01*
X150367083Y-108006927D01*
X150349468Y-107621995D01*
X150337419Y-107150679D01*
X150332139Y-106620622D01*
X150332000Y-106518378D01*
X150332000Y-104783290D01*
X150547642Y-104613666D01*
X150906227Y-104426857D01*
X151286634Y-104387293D01*
X151649604Y-104486703D01*
X151955880Y-104716815D01*
X152111412Y-104943101D01*
X152277269Y-105394929D01*
X152373224Y-105932722D01*
X152401956Y-106516055D01*
X153444959Y-106516055D01*
X153448828Y-106443371D01*
X153404479Y-105722711D01*
X153274189Y-105052546D01*
X153115852Y-104601667D01*
X152820892Y-104104921D01*
X152437608Y-103722984D01*
X151990719Y-103466659D01*
X151504945Y-103346750D01*
X151005003Y-103374061D01*
G36*
X137883653Y-103558764D02*
X137447429Y-103821987D01*
X137399166Y-103864329D01*
X137231113Y-104098704D01*
X137203324Y-104331726D01*
X137288682Y-104536405D01*
X137460071Y-104685752D01*
X137690373Y-104752778D01*
X137952471Y-104710494D01*
X138140000Y-104601667D01*
X138441353Y-104462870D01*
X138797070Y-104438499D01*
X139137490Y-104527685D01*
X139281842Y-104615882D01*
X139417065Y-104732986D01*
X139523463Y-104861024D01*
X139604457Y-105020887D01*
X139663467Y-105233463D01*
X139703913Y-105519644D01*
X139729214Y-105900318D01*
X139742792Y-106396377D01*
X139748065Y-107028708D01*
X139748666Y-107467247D01*
X139750922Y-108168138D01*
X139758172Y-108714749D01*
X139771139Y-109122078D01*
X139790547Y-109405124D01*
X139817120Y-109578886D01*
X139851581Y-109658362D01*
X139854500Y-109660937D01*
X140127895Y-109797470D01*
X140396361Y-109764834D01*
X140539696Y-109677004D01*
X140764666Y-109500043D01*
X140764666Y-106627521D01*
X140764288Y-105853253D01*
X140762492Y-105230524D01*
X140758288Y-104741540D01*
X140750686Y-104368508D01*
X140738695Y-104093634D01*
X140721324Y-103899125D01*
X140697584Y-103767186D01*
X140666483Y-103680025D01*
X140627030Y-103619848D01*
X140595333Y-103585667D01*
X140363541Y-103437905D01*
X140116495Y-103453660D01*
X139896913Y-103584080D01*
X139745100Y-103688760D01*
X139620459Y-103703058D01*
X139442401Y-103631063D01*
X139398662Y-103609357D01*
X138900159Y-103447235D01*
X138381526Y-103432108D01*
X137883653Y-103558764D01*
X137883653Y-103558764D01*
G37*
X137883653Y-103558764D02*
X137447429Y-103821987D01*
X137399166Y-103864329D01*
X137231113Y-104098704D01*
X137203324Y-104331726D01*
X137288682Y-104536405D01*
X137460071Y-104685752D01*
X137690373Y-104752778D01*
X137952471Y-104710494D01*
X138140000Y-104601667D01*
X138441353Y-104462870D01*
X138797070Y-104438499D01*
X139137490Y-104527685D01*
X139281842Y-104615882D01*
X139417065Y-104732986D01*
X139523463Y-104861024D01*
X139604457Y-105020887D01*
X139663467Y-105233463D01*
X139703913Y-105519644D01*
X139729214Y-105900318D01*
X139742792Y-106396377D01*
X139748065Y-107028708D01*
X139748666Y-107467247D01*
X139750922Y-108168138D01*
X139758172Y-108714749D01*
X139771139Y-109122078D01*
X139790547Y-109405124D01*
X139817120Y-109578886D01*
X139851581Y-109658362D01*
X139854500Y-109660937D01*
X140127895Y-109797470D01*
X140396361Y-109764834D01*
X140539696Y-109677004D01*
X140764666Y-109500043D01*
X140764666Y-106627521D01*
X140764288Y-105853253D01*
X140762492Y-105230524D01*
X140758288Y-104741540D01*
X140750686Y-104368508D01*
X140738695Y-104093634D01*
X140721324Y-103899125D01*
X140697584Y-103767186D01*
X140666483Y-103680025D01*
X140627030Y-103619848D01*
X140595333Y-103585667D01*
X140363541Y-103437905D01*
X140116495Y-103453660D01*
X139896913Y-103584080D01*
X139745100Y-103688760D01*
X139620459Y-103703058D01*
X139442401Y-103631063D01*
X139398662Y-103609357D01*
X138900159Y-103447235D01*
X138381526Y-103432108D01*
X137883653Y-103558764D01*
G36*
X132925596Y-103426370D02*
X132443380Y-103577631D01*
X132024025Y-103850313D01*
X131787166Y-104111015D01*
X131589431Y-104414210D01*
X131443992Y-104721153D01*
X131343703Y-105064925D01*
X131281417Y-105478609D01*
X131249987Y-105995287D01*
X131242237Y-106633667D01*
X131254626Y-107303221D01*
X131294833Y-107834065D01*
X131371815Y-108255765D01*
X131494533Y-108597891D01*
X131671944Y-108890011D01*
X131913007Y-109161694D01*
X132045934Y-109286327D01*
X132520344Y-109626634D01*
X133014540Y-109802850D01*
X133550062Y-109820208D01*
X133939768Y-109746349D01*
X134291709Y-109581561D01*
X134645443Y-109293074D01*
X134961755Y-108921481D01*
X135201431Y-108507377D01*
X135248703Y-108391416D01*
X135443743Y-107652216D01*
X135526280Y-106814252D01*
X135515425Y-106461140D01*
X134444479Y-106461140D01*
X134430886Y-107106311D01*
X134365213Y-107616189D01*
X134240517Y-108018686D01*
X134049859Y-108341714D01*
X133946921Y-108462019D01*
X133638605Y-108692436D01*
X133313157Y-108755984D01*
X132982574Y-108651874D01*
X132818579Y-108536259D01*
X132587590Y-108285057D01*
X132423366Y-107963418D01*
X132318711Y-107545870D01*
X132266430Y-107006943D01*
X132257133Y-106549000D01*
X132262465Y-106099272D01*
X132281235Y-105772848D01*
X132319982Y-105523839D01*
X132385247Y-105306354D01*
X132459839Y-105126695D01*
X132682128Y-104750052D01*
X132948442Y-104530158D01*
X133274861Y-104456749D01*
X133481779Y-104474404D01*
X133824381Y-104594698D01*
X134086944Y-104832327D01*
X134274242Y-105197145D01*
X134391052Y-105699008D01*
X134442148Y-106347770D01*
X134444479Y-106461140D01*
X135515425Y-106461140D01*
X135501038Y-105993176D01*
X135409880Y-105323786D01*
X135259226Y-104783423D01*
X135037336Y-104338652D01*
X134818353Y-104049109D01*
X134417054Y-103707899D01*
X133945670Y-103490825D01*
X133437439Y-103397209D01*
X132925596Y-103426370D01*
X132925596Y-103426370D01*
G37*
X132925596Y-103426370D02*
X132443380Y-103577631D01*
X132024025Y-103850313D01*
X131787166Y-104111015D01*
X131589431Y-104414210D01*
X131443992Y-104721153D01*
X131343703Y-105064925D01*
X131281417Y-105478609D01*
X131249987Y-105995287D01*
X131242237Y-106633667D01*
X131254626Y-107303221D01*
X131294833Y-107834065D01*
X131371815Y-108255765D01*
X131494533Y-108597891D01*
X131671944Y-108890011D01*
X131913007Y-109161694D01*
X132045934Y-109286327D01*
X132520344Y-109626634D01*
X133014540Y-109802850D01*
X133550062Y-109820208D01*
X133939768Y-109746349D01*
X134291709Y-109581561D01*
X134645443Y-109293074D01*
X134961755Y-108921481D01*
X135201431Y-108507377D01*
X135248703Y-108391416D01*
X135443743Y-107652216D01*
X135526280Y-106814252D01*
X135515425Y-106461140D01*
X134444479Y-106461140D01*
X134430886Y-107106311D01*
X134365213Y-107616189D01*
X134240517Y-108018686D01*
X134049859Y-108341714D01*
X133946921Y-108462019D01*
X133638605Y-108692436D01*
X133313157Y-108755984D01*
X132982574Y-108651874D01*
X132818579Y-108536259D01*
X132587590Y-108285057D01*
X132423366Y-107963418D01*
X132318711Y-107545870D01*
X132266430Y-107006943D01*
X132257133Y-106549000D01*
X132262465Y-106099272D01*
X132281235Y-105772848D01*
X132319982Y-105523839D01*
X132385247Y-105306354D01*
X132459839Y-105126695D01*
X132682128Y-104750052D01*
X132948442Y-104530158D01*
X133274861Y-104456749D01*
X133481779Y-104474404D01*
X133824381Y-104594698D01*
X134086944Y-104832327D01*
X134274242Y-105197145D01*
X134391052Y-105699008D01*
X134442148Y-106347770D01*
X134444479Y-106461140D01*
X135515425Y-106461140D01*
X135501038Y-105993176D01*
X135409880Y-105323786D01*
X135259226Y-104783423D01*
X135037336Y-104338652D01*
X134818353Y-104049109D01*
X134417054Y-103707899D01*
X133945670Y-103490825D01*
X133437439Y-103397209D01*
X132925596Y-103426370D01*
G36*
X127583954Y-107159705D02*
X127394776Y-107235823D01*
X127191976Y-107403028D01*
X127123372Y-107470372D01*
X126927849Y-107684084D01*
X126830503Y-107863471D01*
X126798995Y-108082095D01*
X126797667Y-108211206D01*
X126821708Y-108500411D01*
X126878823Y-108747986D01*
X126909209Y-108818934D01*
X127157379Y-109105018D01*
X127496947Y-109280882D01*
X127883344Y-109337239D01*
X128272004Y-109264801D01*
X128496646Y-109149740D01*
X128789159Y-108868153D01*
X128945118Y-108533584D01*
X128974878Y-108177257D01*
X128888797Y-107830393D01*
X128697233Y-107524217D01*
X128410544Y-107289949D01*
X128039085Y-107158814D01*
X127830518Y-107141666D01*
X127583954Y-107159705D01*
X127583954Y-107159705D01*
G37*
X127583954Y-107159705D02*
X127394776Y-107235823D01*
X127191976Y-107403028D01*
X127123372Y-107470372D01*
X126927849Y-107684084D01*
X126830503Y-107863471D01*
X126798995Y-108082095D01*
X126797667Y-108211206D01*
X126821708Y-108500411D01*
X126878823Y-108747986D01*
X126909209Y-108818934D01*
X127157379Y-109105018D01*
X127496947Y-109280882D01*
X127883344Y-109337239D01*
X128272004Y-109264801D01*
X128496646Y-109149740D01*
X128789159Y-108868153D01*
X128945118Y-108533584D01*
X128974878Y-108177257D01*
X128888797Y-107830393D01*
X128697233Y-107524217D01*
X128410544Y-107289949D01*
X128039085Y-107158814D01*
X127830518Y-107141666D01*
X127583954Y-107159705D01*
G36*
X127617320Y-103668639D02*
X127265699Y-103828022D01*
X127083045Y-103980266D01*
X126908974Y-104175675D01*
X126823357Y-104356777D01*
X126796037Y-104600930D01*
X126794666Y-104720071D01*
X126855756Y-105157687D01*
X127044024Y-105487513D01*
X127366969Y-105721551D01*
X127441163Y-105754926D01*
X127805729Y-105859196D01*
X128132152Y-105830156D01*
X128398112Y-105716958D01*
X128638662Y-105531515D01*
X128831759Y-105290902D01*
X128841291Y-105273779D01*
X128974102Y-104881765D01*
X128962671Y-104513319D01*
X128832010Y-104186841D01*
X128607132Y-103920733D01*
X128313049Y-103733395D01*
X127974774Y-103643230D01*
X127617320Y-103668639D01*
X127617320Y-103668639D01*
G37*
X127617320Y-103668639D02*
X127265699Y-103828022D01*
X127083045Y-103980266D01*
X126908974Y-104175675D01*
X126823357Y-104356777D01*
X126796037Y-104600930D01*
X126794666Y-104720071D01*
X126855756Y-105157687D01*
X127044024Y-105487513D01*
X127366969Y-105721551D01*
X127441163Y-105754926D01*
X127805729Y-105859196D01*
X128132152Y-105830156D01*
X128398112Y-105716958D01*
X128638662Y-105531515D01*
X128831759Y-105290902D01*
X128841291Y-105273779D01*
X128974102Y-104881765D01*
X128962671Y-104513319D01*
X128832010Y-104186841D01*
X128607132Y-103920733D01*
X128313049Y-103733395D01*
X127974774Y-103643230D01*
X127617320Y-103668639D01*
D12*
X123412000Y-113947000D03*
X117062000Y-116487000D03*
X142412000Y-94947000D03*
X136062000Y-97487000D03*
D13*
X165172000Y-79627000D03*
D14*
X160172000Y-82127000D03*
X160172000Y-77127000D03*
X160172000Y-84627000D03*
X160172000Y-74627000D03*
D15*
X138772000Y-76627000D03*
D16*
X146392000Y-84247000D03*
X138772000Y-79167000D03*
X146392000Y-81707000D03*
X138772000Y-81707000D03*
X146392000Y-79167000D03*
X138772000Y-84247000D03*
X146392000Y-76627000D03*
D17*
X126572000Y-85427000D03*
D18*
X126572000Y-75267000D03*
D17*
X123172000Y-85427000D03*
D18*
X123172000Y-75267000D03*
D17*
X130072000Y-85427000D03*
D18*
X130072000Y-75267000D03*
D17*
X133472000Y-75327000D03*
D18*
X133472000Y-85487000D03*
D17*
X154172000Y-75527000D03*
D18*
X154172000Y-85687000D03*
D17*
X150672000Y-75527000D03*
D18*
X150672000Y-85687000D03*
D19*
X114772000Y-78027000D03*
X114772000Y-82427000D03*
D12*
X123412000Y-94947000D03*
X117062000Y-97487000D03*
X142412000Y-113947000D03*
X136062000Y-116487000D03*
X161412000Y-94947000D03*
X155062000Y-97487000D03*
X161412000Y-113947000D03*
X155062000Y-116487000D03*
M02*
