M48
;DRILL file {KiCad 4.0.6} date Sunday, July 23, 2017 'AMt' 03:29:42 AM
;FORMAT={-:-/ absolute / inch / decimal}
FMAT,2
INCH,TZ
T1C0.016
T2C0.030
T3C0.031
T4C0.040
T5C0.059
T6C0.072
T7C0.162
%
G90
G05
M72
T1
X4.7194Y-3.0995
T3
X4.8493Y-2.9633
X4.8493Y-3.3633
X4.9831Y-2.9633
X4.9831Y-3.3633
X5.1209Y-2.9633
X5.1209Y-3.3633
X5.2548Y-2.9656
X5.2548Y-3.3656
X5.4635Y-3.0168
X5.4635Y-3.1168
X5.4635Y-3.2168
X5.4635Y-3.3168
X5.7635Y-3.0168
X5.7635Y-3.1168
X5.7635Y-3.2168
X5.7635Y-3.3168
X5.932Y-2.9735
X5.932Y-3.3735
X6.0698Y-2.9735
X6.0698Y-3.3735
T4
X4.5186Y-3.0719
X4.5186Y-3.2452
T5
X4.6087Y-3.8381
X4.6087Y-4.5861
X4.8587Y-3.7381
X4.8587Y-4.4861
X5.3568Y-3.8381
X5.3568Y-4.5861
X5.6068Y-3.7381
X5.6068Y-4.4861
X6.1048Y-3.8381
X6.1048Y-4.5861
X6.3548Y-3.7381
X6.3548Y-4.4861
T6
X4.5587Y-3.9381
X4.5587Y-4.6861
X4.9587Y-3.9381
X4.9587Y-4.6861
X5.3068Y-3.9381
X5.3068Y-4.6861
X5.7068Y-3.9381
X5.7068Y-4.6861
X6.0548Y-3.9381
X6.0548Y-4.6861
X6.4548Y-3.9381
X6.4548Y-4.6861
T7
X4.7587Y-3.9381
X4.7587Y-4.6861
X5.5068Y-3.9381
X5.5068Y-4.6861
X6.2548Y-3.9381
X6.2548Y-4.6861
T2
X6.3146Y-2.9381G85X6.2974Y-2.9381
G05
X6.3146Y-3.0365G85X6.2974Y-3.0365
G05
X6.3146Y-3.2333G85X6.2974Y-3.2333
G05
X6.3146Y-3.3318G85X6.2974Y-3.3318
G05
X6.5028Y-3.1435G85X6.5028Y-3.1263
G05
T0
M30
