G04 #@! TF.FileFunction,Legend,Top*
%FSLAX46Y46*%
G04 Gerber Fmt 4.6, Leading zero omitted, Abs format (unit mm)*
G04 Created by KiCad (PCBNEW 4.0.6) date Sunday, July 23, 2017 'AMt' 03:34:07 AM*
%MOMM*%
%LPD*%
G01*
G04 APERTURE LIST*
%ADD10C,0.100000*%
%ADD11C,0.381000*%
%ADD12C,0.150000*%
%ADD13C,0.120000*%
%ADD14C,0.203200*%
G04 APERTURE END LIST*
D10*
D11*
X114522000Y-112677000D02*
X116300000Y-112677000D01*
X125444000Y-112677000D02*
X127222000Y-112677000D01*
X127222000Y-112677000D02*
X127222000Y-114455000D01*
X127222000Y-123599000D02*
X127222000Y-125377000D01*
X127222000Y-125377000D02*
X125444000Y-125377000D01*
X116300000Y-125377000D02*
X114522000Y-125377000D01*
X114522000Y-125377000D02*
X114522000Y-123599000D01*
X114522000Y-114455000D02*
X114522000Y-112677000D01*
X133522000Y-93677000D02*
X135300000Y-93677000D01*
X144444000Y-93677000D02*
X146222000Y-93677000D01*
X146222000Y-93677000D02*
X146222000Y-95455000D01*
X146222000Y-104599000D02*
X146222000Y-106377000D01*
X146222000Y-106377000D02*
X144444000Y-106377000D01*
X135300000Y-106377000D02*
X133522000Y-106377000D01*
X133522000Y-106377000D02*
X133522000Y-104599000D01*
X133522000Y-95455000D02*
X133522000Y-93677000D01*
D12*
X168472000Y-73627000D02*
X168472000Y-85627000D01*
X169672000Y-73627000D02*
X156472000Y-73627000D01*
X156472000Y-73627000D02*
X156372000Y-85627000D01*
X156372000Y-85627000D02*
X169672000Y-85627000D01*
X169672000Y-85627000D02*
X169672000Y-81727000D01*
X169672000Y-77627000D02*
X169672000Y-73627000D01*
X169672000Y-81627000D02*
X168472000Y-81627000D01*
X168472000Y-81627000D02*
X168472000Y-77627000D01*
X168472000Y-77627000D02*
X169672000Y-77627000D01*
D13*
X141582000Y-75237000D02*
X140212000Y-75237000D01*
X140212000Y-75237000D02*
X140212000Y-85637000D01*
X140212000Y-85637000D02*
X144952000Y-85637000D01*
X144952000Y-85637000D02*
X144952000Y-75237000D01*
X144952000Y-75237000D02*
X143582000Y-75237000D01*
X143582000Y-75237000D02*
G75*
G02X141582000Y-75237000I-1000000J0D01*
G01*
X125262000Y-83557000D02*
X127882000Y-83557000D01*
X127882000Y-83557000D02*
X127882000Y-77137000D01*
X127882000Y-77137000D02*
X125262000Y-77137000D01*
X125262000Y-77137000D02*
X125262000Y-83557000D01*
X126572000Y-84447000D02*
X126572000Y-83557000D01*
X126572000Y-76247000D02*
X126572000Y-77137000D01*
X121862000Y-83557000D02*
X124482000Y-83557000D01*
X124482000Y-83557000D02*
X124482000Y-77137000D01*
X124482000Y-77137000D02*
X121862000Y-77137000D01*
X121862000Y-77137000D02*
X121862000Y-83557000D01*
X123172000Y-84447000D02*
X123172000Y-83557000D01*
X123172000Y-76247000D02*
X123172000Y-77137000D01*
X128762000Y-83557000D02*
X131382000Y-83557000D01*
X131382000Y-83557000D02*
X131382000Y-77137000D01*
X131382000Y-77137000D02*
X128762000Y-77137000D01*
X128762000Y-77137000D02*
X128762000Y-83557000D01*
X130072000Y-84447000D02*
X130072000Y-83557000D01*
X130072000Y-76247000D02*
X130072000Y-77137000D01*
X134782000Y-77197000D02*
X132162000Y-77197000D01*
X132162000Y-77197000D02*
X132162000Y-83617000D01*
X132162000Y-83617000D02*
X134782000Y-83617000D01*
X134782000Y-83617000D02*
X134782000Y-77197000D01*
X133472000Y-76307000D02*
X133472000Y-77197000D01*
X133472000Y-84507000D02*
X133472000Y-83617000D01*
X155482000Y-77397000D02*
X152862000Y-77397000D01*
X152862000Y-77397000D02*
X152862000Y-83817000D01*
X152862000Y-83817000D02*
X155482000Y-83817000D01*
X155482000Y-83817000D02*
X155482000Y-77397000D01*
X154172000Y-76507000D02*
X154172000Y-77397000D01*
X154172000Y-84707000D02*
X154172000Y-83817000D01*
X151982000Y-77397000D02*
X149362000Y-77397000D01*
X149362000Y-77397000D02*
X149362000Y-83817000D01*
X149362000Y-83817000D02*
X151982000Y-83817000D01*
X151982000Y-83817000D02*
X151982000Y-77397000D01*
X150672000Y-76507000D02*
X150672000Y-77397000D01*
X150672000Y-84707000D02*
X150672000Y-83817000D01*
X110322000Y-76377000D02*
X110322000Y-84077000D01*
X109322000Y-76377000D02*
X109322000Y-84077000D01*
X109322000Y-84077000D02*
X118522000Y-84077000D01*
X118522000Y-84077000D02*
X118522000Y-76377000D01*
X118522000Y-76377000D02*
X109322000Y-76377000D01*
D11*
X114522000Y-93677000D02*
X116300000Y-93677000D01*
X125444000Y-93677000D02*
X127222000Y-93677000D01*
X127222000Y-93677000D02*
X127222000Y-95455000D01*
X127222000Y-104599000D02*
X127222000Y-106377000D01*
X127222000Y-106377000D02*
X125444000Y-106377000D01*
X116300000Y-106377000D02*
X114522000Y-106377000D01*
X114522000Y-106377000D02*
X114522000Y-104599000D01*
X114522000Y-95455000D02*
X114522000Y-93677000D01*
X133522000Y-112677000D02*
X135300000Y-112677000D01*
X144444000Y-112677000D02*
X146222000Y-112677000D01*
X146222000Y-112677000D02*
X146222000Y-114455000D01*
X146222000Y-123599000D02*
X146222000Y-125377000D01*
X146222000Y-125377000D02*
X144444000Y-125377000D01*
X135300000Y-125377000D02*
X133522000Y-125377000D01*
X133522000Y-125377000D02*
X133522000Y-123599000D01*
X133522000Y-114455000D02*
X133522000Y-112677000D01*
X152522000Y-93677000D02*
X154300000Y-93677000D01*
X163444000Y-93677000D02*
X165222000Y-93677000D01*
X165222000Y-93677000D02*
X165222000Y-95455000D01*
X165222000Y-104599000D02*
X165222000Y-106377000D01*
X165222000Y-106377000D02*
X163444000Y-106377000D01*
X154300000Y-106377000D02*
X152522000Y-106377000D01*
X152522000Y-106377000D02*
X152522000Y-104599000D01*
X152522000Y-95455000D02*
X152522000Y-93677000D01*
X152522000Y-112677000D02*
X154300000Y-112677000D01*
X163444000Y-112677000D02*
X165222000Y-112677000D01*
X165222000Y-112677000D02*
X165222000Y-114455000D01*
X165222000Y-123599000D02*
X165222000Y-125377000D01*
X165222000Y-125377000D02*
X163444000Y-125377000D01*
X154300000Y-125377000D02*
X152522000Y-125377000D01*
X152522000Y-125377000D02*
X152522000Y-123599000D01*
X152522000Y-114455000D02*
X152522000Y-112677000D01*
D14*
X118840000Y-122716048D02*
X119057714Y-122776524D01*
X119420571Y-122776524D01*
X119565714Y-122716048D01*
X119638285Y-122655571D01*
X119710857Y-122534619D01*
X119710857Y-122413667D01*
X119638285Y-122292714D01*
X119565714Y-122232238D01*
X119420571Y-122171762D01*
X119130285Y-122111286D01*
X118985143Y-122050810D01*
X118912571Y-121990333D01*
X118840000Y-121869381D01*
X118840000Y-121748429D01*
X118912571Y-121627476D01*
X118985143Y-121567000D01*
X119130285Y-121506524D01*
X119493143Y-121506524D01*
X119710857Y-121567000D01*
X120218857Y-121506524D02*
X120581714Y-122776524D01*
X120872000Y-121869381D01*
X121162286Y-122776524D01*
X121525143Y-121506524D01*
X122033143Y-121627476D02*
X122105714Y-121567000D01*
X122250857Y-121506524D01*
X122613714Y-121506524D01*
X122758857Y-121567000D01*
X122831428Y-121627476D01*
X122904000Y-121748429D01*
X122904000Y-121869381D01*
X122831428Y-122050810D01*
X121960571Y-122776524D01*
X122904000Y-122776524D01*
X137840000Y-103716048D02*
X138057714Y-103776524D01*
X138420571Y-103776524D01*
X138565714Y-103716048D01*
X138638285Y-103655571D01*
X138710857Y-103534619D01*
X138710857Y-103413667D01*
X138638285Y-103292714D01*
X138565714Y-103232238D01*
X138420571Y-103171762D01*
X138130285Y-103111286D01*
X137985143Y-103050810D01*
X137912571Y-102990333D01*
X137840000Y-102869381D01*
X137840000Y-102748429D01*
X137912571Y-102627476D01*
X137985143Y-102567000D01*
X138130285Y-102506524D01*
X138493143Y-102506524D01*
X138710857Y-102567000D01*
X139218857Y-102506524D02*
X139581714Y-103776524D01*
X139872000Y-102869381D01*
X140162286Y-103776524D01*
X140525143Y-102506524D01*
X140960571Y-102506524D02*
X141904000Y-102506524D01*
X141396000Y-102990333D01*
X141613714Y-102990333D01*
X141758857Y-103050810D01*
X141831428Y-103111286D01*
X141904000Y-103232238D01*
X141904000Y-103534619D01*
X141831428Y-103655571D01*
X141758857Y-103716048D01*
X141613714Y-103776524D01*
X141178286Y-103776524D01*
X141033143Y-103716048D01*
X140960571Y-103655571D01*
D12*
X162224381Y-79960333D02*
X162938667Y-79960333D01*
X163081524Y-80007953D01*
X163176762Y-80103191D01*
X163224381Y-80246048D01*
X163224381Y-80341286D01*
X163224381Y-78960333D02*
X163224381Y-79531762D01*
X163224381Y-79246048D02*
X162224381Y-79246048D01*
X162367238Y-79341286D01*
X162462476Y-79436524D01*
X162510095Y-79531762D01*
X141820095Y-73689381D02*
X141820095Y-74498905D01*
X141867714Y-74594143D01*
X141915333Y-74641762D01*
X142010571Y-74689381D01*
X142201048Y-74689381D01*
X142296286Y-74641762D01*
X142343905Y-74594143D01*
X142391524Y-74498905D01*
X142391524Y-73689381D01*
X143391524Y-74689381D02*
X142820095Y-74689381D01*
X143105809Y-74689381D02*
X143105809Y-73689381D01*
X143010571Y-73832238D01*
X142915333Y-73927476D01*
X142820095Y-73975095D01*
X127024381Y-81293666D02*
X127024381Y-81865095D01*
X127024381Y-81579381D02*
X126024381Y-81579381D01*
X126167238Y-81674619D01*
X126262476Y-81769857D01*
X126310095Y-81865095D01*
X126024381Y-80674619D02*
X126024381Y-80579380D01*
X126072000Y-80484142D01*
X126119619Y-80436523D01*
X126214857Y-80388904D01*
X126405333Y-80341285D01*
X126643429Y-80341285D01*
X126833905Y-80388904D01*
X126929143Y-80436523D01*
X126976762Y-80484142D01*
X127024381Y-80579380D01*
X127024381Y-80674619D01*
X126976762Y-80769857D01*
X126929143Y-80817476D01*
X126833905Y-80865095D01*
X126643429Y-80912714D01*
X126405333Y-80912714D01*
X126214857Y-80865095D01*
X126119619Y-80817476D01*
X126072000Y-80769857D01*
X126024381Y-80674619D01*
X127024381Y-79912714D02*
X126024381Y-79912714D01*
X127024381Y-79341285D02*
X126452952Y-79769857D01*
X126024381Y-79341285D02*
X126595810Y-79912714D01*
X127024381Y-78388904D02*
X127024381Y-78960333D01*
X127024381Y-78674619D02*
X126024381Y-78674619D01*
X126167238Y-78769857D01*
X126262476Y-78865095D01*
X126310095Y-78960333D01*
X123624381Y-81293666D02*
X123624381Y-81865095D01*
X123624381Y-81579381D02*
X122624381Y-81579381D01*
X122767238Y-81674619D01*
X122862476Y-81769857D01*
X122910095Y-81865095D01*
X122624381Y-80674619D02*
X122624381Y-80579380D01*
X122672000Y-80484142D01*
X122719619Y-80436523D01*
X122814857Y-80388904D01*
X123005333Y-80341285D01*
X123243429Y-80341285D01*
X123433905Y-80388904D01*
X123529143Y-80436523D01*
X123576762Y-80484142D01*
X123624381Y-80579380D01*
X123624381Y-80674619D01*
X123576762Y-80769857D01*
X123529143Y-80817476D01*
X123433905Y-80865095D01*
X123243429Y-80912714D01*
X123005333Y-80912714D01*
X122814857Y-80865095D01*
X122719619Y-80817476D01*
X122672000Y-80769857D01*
X122624381Y-80674619D01*
X123624381Y-79912714D02*
X122624381Y-79912714D01*
X123624381Y-79341285D02*
X123052952Y-79769857D01*
X122624381Y-79341285D02*
X123195810Y-79912714D01*
X122719619Y-78960333D02*
X122672000Y-78912714D01*
X122624381Y-78817476D01*
X122624381Y-78579380D01*
X122672000Y-78484142D01*
X122719619Y-78436523D01*
X122814857Y-78388904D01*
X122910095Y-78388904D01*
X123052952Y-78436523D01*
X123624381Y-79007952D01*
X123624381Y-78388904D01*
X130524381Y-81293666D02*
X130524381Y-81865095D01*
X130524381Y-81579381D02*
X129524381Y-81579381D01*
X129667238Y-81674619D01*
X129762476Y-81769857D01*
X129810095Y-81865095D01*
X129524381Y-80674619D02*
X129524381Y-80579380D01*
X129572000Y-80484142D01*
X129619619Y-80436523D01*
X129714857Y-80388904D01*
X129905333Y-80341285D01*
X130143429Y-80341285D01*
X130333905Y-80388904D01*
X130429143Y-80436523D01*
X130476762Y-80484142D01*
X130524381Y-80579380D01*
X130524381Y-80674619D01*
X130476762Y-80769857D01*
X130429143Y-80817476D01*
X130333905Y-80865095D01*
X130143429Y-80912714D01*
X129905333Y-80912714D01*
X129714857Y-80865095D01*
X129619619Y-80817476D01*
X129572000Y-80769857D01*
X129524381Y-80674619D01*
X130524381Y-79912714D02*
X129524381Y-79912714D01*
X130524381Y-79341285D02*
X129952952Y-79769857D01*
X129524381Y-79341285D02*
X130095810Y-79912714D01*
X129524381Y-79007952D02*
X129524381Y-78388904D01*
X129905333Y-78722238D01*
X129905333Y-78579380D01*
X129952952Y-78484142D01*
X130000571Y-78436523D01*
X130095810Y-78388904D01*
X130333905Y-78388904D01*
X130429143Y-78436523D01*
X130476762Y-78484142D01*
X130524381Y-78579380D01*
X130524381Y-78865095D01*
X130476762Y-78960333D01*
X130429143Y-79007952D01*
X134024381Y-81293666D02*
X134024381Y-81865095D01*
X134024381Y-81579381D02*
X133024381Y-81579381D01*
X133167238Y-81674619D01*
X133262476Y-81769857D01*
X133310095Y-81865095D01*
X133024381Y-80674619D02*
X133024381Y-80579380D01*
X133072000Y-80484142D01*
X133119619Y-80436523D01*
X133214857Y-80388904D01*
X133405333Y-80341285D01*
X133643429Y-80341285D01*
X133833905Y-80388904D01*
X133929143Y-80436523D01*
X133976762Y-80484142D01*
X134024381Y-80579380D01*
X134024381Y-80674619D01*
X133976762Y-80769857D01*
X133929143Y-80817476D01*
X133833905Y-80865095D01*
X133643429Y-80912714D01*
X133405333Y-80912714D01*
X133214857Y-80865095D01*
X133119619Y-80817476D01*
X133072000Y-80769857D01*
X133024381Y-80674619D01*
X134024381Y-79912714D02*
X133024381Y-79912714D01*
X134024381Y-79341285D02*
X133452952Y-79769857D01*
X133024381Y-79341285D02*
X133595810Y-79912714D01*
X133357714Y-78484142D02*
X134024381Y-78484142D01*
X132976762Y-78722238D02*
X133691048Y-78960333D01*
X133691048Y-78341285D01*
X154624381Y-81693666D02*
X154624381Y-82265095D01*
X154624381Y-81979381D02*
X153624381Y-81979381D01*
X153767238Y-82074619D01*
X153862476Y-82169857D01*
X153910095Y-82265095D01*
X153624381Y-81074619D02*
X153624381Y-80979380D01*
X153672000Y-80884142D01*
X153719619Y-80836523D01*
X153814857Y-80788904D01*
X154005333Y-80741285D01*
X154243429Y-80741285D01*
X154433905Y-80788904D01*
X154529143Y-80836523D01*
X154576762Y-80884142D01*
X154624381Y-80979380D01*
X154624381Y-81074619D01*
X154576762Y-81169857D01*
X154529143Y-81217476D01*
X154433905Y-81265095D01*
X154243429Y-81312714D01*
X154005333Y-81312714D01*
X153814857Y-81265095D01*
X153719619Y-81217476D01*
X153672000Y-81169857D01*
X153624381Y-81074619D01*
X154624381Y-80312714D02*
X153624381Y-80312714D01*
X154624381Y-79741285D02*
X154052952Y-80169857D01*
X153624381Y-79741285D02*
X154195810Y-80312714D01*
X153624381Y-78836523D02*
X153624381Y-79312714D01*
X154100571Y-79360333D01*
X154052952Y-79312714D01*
X154005333Y-79217476D01*
X154005333Y-78979380D01*
X154052952Y-78884142D01*
X154100571Y-78836523D01*
X154195810Y-78788904D01*
X154433905Y-78788904D01*
X154529143Y-78836523D01*
X154576762Y-78884142D01*
X154624381Y-78979380D01*
X154624381Y-79217476D01*
X154576762Y-79312714D01*
X154529143Y-79360333D01*
X151124381Y-81693666D02*
X151124381Y-82265095D01*
X151124381Y-81979381D02*
X150124381Y-81979381D01*
X150267238Y-82074619D01*
X150362476Y-82169857D01*
X150410095Y-82265095D01*
X150124381Y-81074619D02*
X150124381Y-80979380D01*
X150172000Y-80884142D01*
X150219619Y-80836523D01*
X150314857Y-80788904D01*
X150505333Y-80741285D01*
X150743429Y-80741285D01*
X150933905Y-80788904D01*
X151029143Y-80836523D01*
X151076762Y-80884142D01*
X151124381Y-80979380D01*
X151124381Y-81074619D01*
X151076762Y-81169857D01*
X151029143Y-81217476D01*
X150933905Y-81265095D01*
X150743429Y-81312714D01*
X150505333Y-81312714D01*
X150314857Y-81265095D01*
X150219619Y-81217476D01*
X150172000Y-81169857D01*
X150124381Y-81074619D01*
X151124381Y-80312714D02*
X150124381Y-80312714D01*
X151124381Y-79741285D02*
X150552952Y-80169857D01*
X150124381Y-79741285D02*
X150695810Y-80312714D01*
X150124381Y-78884142D02*
X150124381Y-79074619D01*
X150172000Y-79169857D01*
X150219619Y-79217476D01*
X150362476Y-79312714D01*
X150552952Y-79360333D01*
X150933905Y-79360333D01*
X151029143Y-79312714D01*
X151076762Y-79265095D01*
X151124381Y-79169857D01*
X151124381Y-78979380D01*
X151076762Y-78884142D01*
X151029143Y-78836523D01*
X150933905Y-78788904D01*
X150695810Y-78788904D01*
X150600571Y-78836523D01*
X150552952Y-78884142D01*
X150505333Y-78979380D01*
X150505333Y-79169857D01*
X150552952Y-79265095D01*
X150600571Y-79312714D01*
X150695810Y-79360333D01*
X112338667Y-79679381D02*
X112338667Y-80393667D01*
X112291047Y-80536524D01*
X112195809Y-80631762D01*
X112052952Y-80679381D01*
X111957714Y-80679381D01*
X112767238Y-79774619D02*
X112814857Y-79727000D01*
X112910095Y-79679381D01*
X113148191Y-79679381D01*
X113243429Y-79727000D01*
X113291048Y-79774619D01*
X113338667Y-79869857D01*
X113338667Y-79965095D01*
X113291048Y-80107952D01*
X112719619Y-80679381D01*
X113338667Y-80679381D01*
D14*
X118840000Y-103716048D02*
X119057714Y-103776524D01*
X119420571Y-103776524D01*
X119565714Y-103716048D01*
X119638285Y-103655571D01*
X119710857Y-103534619D01*
X119710857Y-103413667D01*
X119638285Y-103292714D01*
X119565714Y-103232238D01*
X119420571Y-103171762D01*
X119130285Y-103111286D01*
X118985143Y-103050810D01*
X118912571Y-102990333D01*
X118840000Y-102869381D01*
X118840000Y-102748429D01*
X118912571Y-102627476D01*
X118985143Y-102567000D01*
X119130285Y-102506524D01*
X119493143Y-102506524D01*
X119710857Y-102567000D01*
X120218857Y-102506524D02*
X120581714Y-103776524D01*
X120872000Y-102869381D01*
X121162286Y-103776524D01*
X121525143Y-102506524D01*
X122904000Y-103776524D02*
X122033143Y-103776524D01*
X122468571Y-103776524D02*
X122468571Y-102506524D01*
X122323428Y-102687952D01*
X122178286Y-102808905D01*
X122033143Y-102869381D01*
X137840000Y-122716048D02*
X138057714Y-122776524D01*
X138420571Y-122776524D01*
X138565714Y-122716048D01*
X138638285Y-122655571D01*
X138710857Y-122534619D01*
X138710857Y-122413667D01*
X138638285Y-122292714D01*
X138565714Y-122232238D01*
X138420571Y-122171762D01*
X138130285Y-122111286D01*
X137985143Y-122050810D01*
X137912571Y-121990333D01*
X137840000Y-121869381D01*
X137840000Y-121748429D01*
X137912571Y-121627476D01*
X137985143Y-121567000D01*
X138130285Y-121506524D01*
X138493143Y-121506524D01*
X138710857Y-121567000D01*
X139218857Y-121506524D02*
X139581714Y-122776524D01*
X139872000Y-121869381D01*
X140162286Y-122776524D01*
X140525143Y-121506524D01*
X141758857Y-121929857D02*
X141758857Y-122776524D01*
X141396000Y-121446048D02*
X141033143Y-122353190D01*
X141976571Y-122353190D01*
X156840000Y-103716048D02*
X157057714Y-103776524D01*
X157420571Y-103776524D01*
X157565714Y-103716048D01*
X157638285Y-103655571D01*
X157710857Y-103534619D01*
X157710857Y-103413667D01*
X157638285Y-103292714D01*
X157565714Y-103232238D01*
X157420571Y-103171762D01*
X157130285Y-103111286D01*
X156985143Y-103050810D01*
X156912571Y-102990333D01*
X156840000Y-102869381D01*
X156840000Y-102748429D01*
X156912571Y-102627476D01*
X156985143Y-102567000D01*
X157130285Y-102506524D01*
X157493143Y-102506524D01*
X157710857Y-102567000D01*
X158218857Y-102506524D02*
X158581714Y-103776524D01*
X158872000Y-102869381D01*
X159162286Y-103776524D01*
X159525143Y-102506524D01*
X160831428Y-102506524D02*
X160105714Y-102506524D01*
X160033143Y-103111286D01*
X160105714Y-103050810D01*
X160250857Y-102990333D01*
X160613714Y-102990333D01*
X160758857Y-103050810D01*
X160831428Y-103111286D01*
X160904000Y-103232238D01*
X160904000Y-103534619D01*
X160831428Y-103655571D01*
X160758857Y-103716048D01*
X160613714Y-103776524D01*
X160250857Y-103776524D01*
X160105714Y-103716048D01*
X160033143Y-103655571D01*
X156840000Y-122716048D02*
X157057714Y-122776524D01*
X157420571Y-122776524D01*
X157565714Y-122716048D01*
X157638285Y-122655571D01*
X157710857Y-122534619D01*
X157710857Y-122413667D01*
X157638285Y-122292714D01*
X157565714Y-122232238D01*
X157420571Y-122171762D01*
X157130285Y-122111286D01*
X156985143Y-122050810D01*
X156912571Y-121990333D01*
X156840000Y-121869381D01*
X156840000Y-121748429D01*
X156912571Y-121627476D01*
X156985143Y-121567000D01*
X157130285Y-121506524D01*
X157493143Y-121506524D01*
X157710857Y-121567000D01*
X158218857Y-121506524D02*
X158581714Y-122776524D01*
X158872000Y-121869381D01*
X159162286Y-122776524D01*
X159525143Y-121506524D01*
X160758857Y-121506524D02*
X160468571Y-121506524D01*
X160323428Y-121567000D01*
X160250857Y-121627476D01*
X160105714Y-121808905D01*
X160033143Y-122050810D01*
X160033143Y-122534619D01*
X160105714Y-122655571D01*
X160178286Y-122716048D01*
X160323428Y-122776524D01*
X160613714Y-122776524D01*
X160758857Y-122716048D01*
X160831428Y-122655571D01*
X160904000Y-122534619D01*
X160904000Y-122232238D01*
X160831428Y-122111286D01*
X160758857Y-122050810D01*
X160613714Y-121990333D01*
X160323428Y-121990333D01*
X160178286Y-122050810D01*
X160105714Y-122111286D01*
X160033143Y-122232238D01*
M02*
