G04 #@! TF.FileFunction,Copper,L1,Top,Signal*
%FSLAX46Y46*%
G04 Gerber Fmt 4.6, Leading zero omitted, Abs format (unit mm)*
G04 Created by KiCad (PCBNEW 4.0.6) date Sunday, July 23, 2017 'AMt' 03:34:07 AM*
%MOMM*%
%LPD*%
G01*
G04 APERTURE LIST*
%ADD10C,0.100000*%
%ADD11C,2.286000*%
%ADD12O,1.524000X1.900000*%
%ADD13O,1.900000X1.524000*%
%ADD14R,2.400000X1.600000*%
%ADD15O,2.400000X1.600000*%
%ADD16C,1.600000*%
%ADD17O,1.600000X1.600000*%
%ADD18R,2.300000X0.500000*%
%ADD19R,2.500000X2.000000*%
%ADD20C,0.600000*%
%ADD21C,0.400000*%
%ADD22C,0.254000*%
G04 APERTURE END LIST*
D10*
D11*
X123412000Y-113947000D03*
X117062000Y-116487000D03*
X142412000Y-94947000D03*
X136062000Y-97487000D03*
D12*
X165172000Y-79627000D03*
D13*
X160172000Y-82127000D03*
X160172000Y-77127000D03*
X160172000Y-84627000D03*
X160172000Y-74627000D03*
D14*
X138772000Y-76627000D03*
D15*
X146392000Y-84247000D03*
X138772000Y-79167000D03*
X146392000Y-81707000D03*
X138772000Y-81707000D03*
X146392000Y-79167000D03*
X138772000Y-84247000D03*
X146392000Y-76627000D03*
D16*
X126572000Y-85427000D03*
D17*
X126572000Y-75267000D03*
D16*
X123172000Y-85427000D03*
D17*
X123172000Y-75267000D03*
D16*
X130072000Y-85427000D03*
D17*
X130072000Y-75267000D03*
D16*
X133472000Y-75327000D03*
D17*
X133472000Y-85487000D03*
D16*
X154172000Y-75527000D03*
D17*
X154172000Y-85687000D03*
D16*
X150672000Y-75527000D03*
D17*
X150672000Y-85687000D03*
D18*
X117372000Y-78627000D03*
X117372000Y-79427000D03*
X117372000Y-80227000D03*
X117372000Y-81027000D03*
X117372000Y-81827000D03*
D19*
X117272000Y-75777000D03*
X111772000Y-75777000D03*
X117272000Y-84677000D03*
X111772000Y-84677000D03*
D11*
X123412000Y-94947000D03*
X117062000Y-97487000D03*
X142412000Y-113947000D03*
X136062000Y-116487000D03*
X161412000Y-94947000D03*
X155062000Y-97487000D03*
X161412000Y-113947000D03*
X155062000Y-116487000D03*
D20*
X119872000Y-78727000D03*
D21*
X117372000Y-78627000D02*
X119772000Y-78627000D01*
X119772000Y-78627000D02*
X119872000Y-78727000D01*
X123172000Y-75267000D02*
X126472000Y-75367000D01*
X126472000Y-75367000D02*
X126572000Y-75267000D01*
X146392000Y-79167000D02*
X144212000Y-79167000D01*
X128712000Y-73127000D02*
X126572000Y-75267000D01*
X140572000Y-73127000D02*
X128712000Y-73127000D01*
X142772000Y-75327000D02*
X140572000Y-73127000D01*
X142772000Y-77727000D02*
X142772000Y-75327000D01*
X144212000Y-79167000D02*
X142772000Y-77727000D01*
X123172000Y-75267000D02*
X123172000Y-79527000D01*
X120272000Y-94277000D02*
X117062000Y-97487000D01*
X120272000Y-82427000D02*
X120272000Y-94277000D01*
X123172000Y-79527000D02*
X120272000Y-82427000D01*
X123172000Y-85427000D02*
X123172000Y-87227000D01*
X128172000Y-105377000D02*
X117062000Y-116487000D01*
X128172000Y-92227000D02*
X128172000Y-105377000D01*
X123172000Y-87227000D02*
X128172000Y-92227000D01*
X130072000Y-75267000D02*
X133212000Y-75067000D01*
X133212000Y-75067000D02*
X137712000Y-79167000D01*
X137712000Y-79167000D02*
X138772000Y-79167000D01*
X138772000Y-79167000D02*
X137832000Y-79167000D01*
X137832000Y-79167000D02*
X136062000Y-80937000D01*
X136062000Y-80937000D02*
X136062000Y-97487000D01*
X133472000Y-85487000D02*
X133412000Y-85487000D01*
X133412000Y-85487000D02*
X132672000Y-86627000D01*
X132672000Y-86627000D02*
X132672000Y-113097000D01*
X132672000Y-113097000D02*
X136062000Y-116487000D01*
X150672000Y-75527000D02*
X150672000Y-82187000D01*
X150672000Y-82187000D02*
X154172000Y-85687000D01*
X154172000Y-85687000D02*
X154172000Y-96597000D01*
X154172000Y-96597000D02*
X155062000Y-97487000D01*
X150672000Y-85687000D02*
X150672000Y-112097000D01*
X150672000Y-112097000D02*
X155062000Y-116487000D01*
D22*
G36*
X168962000Y-76917000D02*
X168472000Y-76917000D01*
X168200295Y-76971046D01*
X168007301Y-77100000D01*
X167872000Y-77100000D01*
X167822590Y-77110006D01*
X167780965Y-77138447D01*
X167753685Y-77180841D01*
X167745000Y-77227000D01*
X167745000Y-82327000D01*
X167755006Y-82376410D01*
X167783447Y-82418035D01*
X167825841Y-82445315D01*
X167872000Y-82454000D01*
X168962000Y-82454000D01*
X168962000Y-130317000D01*
X110582000Y-130317000D01*
X110582000Y-119321267D01*
X114305842Y-119321267D01*
X114531580Y-119867595D01*
X114949206Y-120285951D01*
X115495139Y-120512642D01*
X116086267Y-120513158D01*
X116632595Y-120287420D01*
X117050951Y-119869794D01*
X117184726Y-119547626D01*
X118242645Y-119547626D01*
X118642028Y-120514207D01*
X119380904Y-121254373D01*
X120346785Y-121655442D01*
X121392626Y-121656355D01*
X122359207Y-121256972D01*
X123099373Y-120518096D01*
X123500442Y-119552215D01*
X123500643Y-119321267D01*
X124465842Y-119321267D01*
X124691580Y-119867595D01*
X125109206Y-120285951D01*
X125655139Y-120512642D01*
X126246267Y-120513158D01*
X126792595Y-120287420D01*
X127210951Y-119869794D01*
X127437642Y-119323861D01*
X127438158Y-118732733D01*
X127212420Y-118186405D01*
X126794794Y-117768049D01*
X126248861Y-117541358D01*
X125657733Y-117540842D01*
X125111405Y-117766580D01*
X124693049Y-118184206D01*
X124466358Y-118730139D01*
X124465842Y-119321267D01*
X123500643Y-119321267D01*
X123501355Y-118506374D01*
X123101972Y-117539793D01*
X122363096Y-116799627D01*
X121397215Y-116398558D01*
X120351374Y-116397645D01*
X119384793Y-116797028D01*
X118644627Y-117535904D01*
X118243558Y-118501785D01*
X118242645Y-119547626D01*
X117184726Y-119547626D01*
X117277642Y-119323861D01*
X117278158Y-118732733D01*
X117084903Y-118265021D01*
X117414114Y-118265308D01*
X118067840Y-117995194D01*
X118568436Y-117495471D01*
X118839691Y-116842218D01*
X118840308Y-116134886D01*
X118768579Y-115961289D01*
X119526905Y-115202963D01*
X122335642Y-115202963D01*
X122451806Y-115484658D01*
X123113333Y-115735062D01*
X123820329Y-115713249D01*
X124372194Y-115484658D01*
X124488358Y-115202963D01*
X123412000Y-114126605D01*
X122335642Y-115202963D01*
X119526905Y-115202963D01*
X121081535Y-113648333D01*
X121623938Y-113648333D01*
X121645751Y-114355329D01*
X121874342Y-114907194D01*
X122156037Y-115023358D01*
X123232395Y-113947000D01*
X123591605Y-113947000D01*
X124667963Y-115023358D01*
X124949658Y-114907194D01*
X125200062Y-114245667D01*
X125178249Y-113538671D01*
X124949658Y-112986806D01*
X124667963Y-112870642D01*
X123591605Y-113947000D01*
X123232395Y-113947000D01*
X122156037Y-112870642D01*
X121874342Y-112986806D01*
X121623938Y-113648333D01*
X121081535Y-113648333D01*
X122038831Y-112691037D01*
X122335642Y-112691037D01*
X123412000Y-113767395D01*
X124488358Y-112691037D01*
X124372194Y-112409342D01*
X123710667Y-112158938D01*
X123003671Y-112180751D01*
X122451806Y-112409342D01*
X122335642Y-112691037D01*
X122038831Y-112691037D01*
X128762434Y-105967434D01*
X128943440Y-105696540D01*
X129007000Y-105377000D01*
X129007000Y-92227000D01*
X128943439Y-91907459D01*
X128762434Y-91636566D01*
X124007000Y-86881132D01*
X124007000Y-86621083D01*
X124387824Y-86240923D01*
X124606750Y-85713691D01*
X124606752Y-85711187D01*
X125136752Y-85711187D01*
X125354757Y-86238800D01*
X125758077Y-86642824D01*
X126285309Y-86861750D01*
X126856187Y-86862248D01*
X127383800Y-86644243D01*
X127787824Y-86240923D01*
X128006750Y-85713691D01*
X128006752Y-85711187D01*
X128636752Y-85711187D01*
X128854757Y-86238800D01*
X129258077Y-86642824D01*
X129785309Y-86861750D01*
X130356187Y-86862248D01*
X130883800Y-86644243D01*
X131287824Y-86240923D01*
X131506750Y-85713691D01*
X131507248Y-85142813D01*
X131289243Y-84615200D01*
X130885923Y-84211176D01*
X130358691Y-83992250D01*
X129787813Y-83991752D01*
X129260200Y-84209757D01*
X128856176Y-84613077D01*
X128637250Y-85140309D01*
X128636752Y-85711187D01*
X128006752Y-85711187D01*
X128007248Y-85142813D01*
X127789243Y-84615200D01*
X127385923Y-84211176D01*
X126858691Y-83992250D01*
X126287813Y-83991752D01*
X125760200Y-84209757D01*
X125356176Y-84613077D01*
X125137250Y-85140309D01*
X125136752Y-85711187D01*
X124606752Y-85711187D01*
X124607248Y-85142813D01*
X124389243Y-84615200D01*
X123985923Y-84211176D01*
X123458691Y-83992250D01*
X122887813Y-83991752D01*
X122360200Y-84209757D01*
X121956176Y-84613077D01*
X121737250Y-85140309D01*
X121736752Y-85711187D01*
X121954757Y-86238800D01*
X122337000Y-86621710D01*
X122337000Y-87227000D01*
X122400561Y-87546541D01*
X122581566Y-87817434D01*
X127337000Y-92572868D01*
X127337000Y-99487912D01*
X127212420Y-99186405D01*
X126794794Y-98768049D01*
X126248861Y-98541358D01*
X125657733Y-98540842D01*
X125111405Y-98766580D01*
X124693049Y-99184206D01*
X124466358Y-99730139D01*
X124465842Y-100321267D01*
X124691580Y-100867595D01*
X125109206Y-101285951D01*
X125655139Y-101512642D01*
X126246267Y-101513158D01*
X126792595Y-101287420D01*
X127210951Y-100869794D01*
X127337000Y-100566234D01*
X127337000Y-105031132D01*
X117587935Y-114780197D01*
X117417218Y-114709309D01*
X116709886Y-114708692D01*
X116056160Y-114978806D01*
X115555564Y-115478529D01*
X115284309Y-116131782D01*
X115283692Y-116839114D01*
X115553806Y-117492840D01*
X115601815Y-117540933D01*
X115497733Y-117540842D01*
X114951405Y-117766580D01*
X114533049Y-118184206D01*
X114306358Y-118730139D01*
X114305842Y-119321267D01*
X110582000Y-119321267D01*
X110582000Y-100321267D01*
X114305842Y-100321267D01*
X114531580Y-100867595D01*
X114949206Y-101285951D01*
X115495139Y-101512642D01*
X116086267Y-101513158D01*
X116632595Y-101287420D01*
X117050951Y-100869794D01*
X117184726Y-100547626D01*
X118242645Y-100547626D01*
X118642028Y-101514207D01*
X119380904Y-102254373D01*
X120346785Y-102655442D01*
X121392626Y-102656355D01*
X122359207Y-102256972D01*
X123099373Y-101518096D01*
X123500442Y-100552215D01*
X123501355Y-99506374D01*
X123101972Y-98539793D01*
X122363096Y-97799627D01*
X121397215Y-97398558D01*
X120351374Y-97397645D01*
X119384793Y-97797028D01*
X118644627Y-98535904D01*
X118243558Y-99501785D01*
X118242645Y-100547626D01*
X117184726Y-100547626D01*
X117277642Y-100323861D01*
X117278158Y-99732733D01*
X117084903Y-99265021D01*
X117414114Y-99265308D01*
X118067840Y-98995194D01*
X118568436Y-98495471D01*
X118839691Y-97842218D01*
X118840308Y-97134886D01*
X118768579Y-96961289D01*
X119526905Y-96202963D01*
X122335642Y-96202963D01*
X122451806Y-96484658D01*
X123113333Y-96735062D01*
X123820329Y-96713249D01*
X124372194Y-96484658D01*
X124488358Y-96202963D01*
X123412000Y-95126605D01*
X122335642Y-96202963D01*
X119526905Y-96202963D01*
X120862434Y-94867434D01*
X121008832Y-94648333D01*
X121623938Y-94648333D01*
X121645751Y-95355329D01*
X121874342Y-95907194D01*
X122156037Y-96023358D01*
X123232395Y-94947000D01*
X123591605Y-94947000D01*
X124667963Y-96023358D01*
X124949658Y-95907194D01*
X125200062Y-95245667D01*
X125178249Y-94538671D01*
X124949658Y-93986806D01*
X124667963Y-93870642D01*
X123591605Y-94947000D01*
X123232395Y-94947000D01*
X122156037Y-93870642D01*
X121874342Y-93986806D01*
X121623938Y-94648333D01*
X121008832Y-94648333D01*
X121043440Y-94596540D01*
X121107000Y-94277000D01*
X121107000Y-93691037D01*
X122335642Y-93691037D01*
X123412000Y-94767395D01*
X124488358Y-93691037D01*
X124372194Y-93409342D01*
X123710667Y-93158938D01*
X123003671Y-93180751D01*
X122451806Y-93409342D01*
X122335642Y-93691037D01*
X121107000Y-93691037D01*
X121107000Y-82772868D01*
X123762434Y-80117434D01*
X123772747Y-80102000D01*
X123943439Y-79846541D01*
X124007000Y-79527000D01*
X124007000Y-76429882D01*
X124186698Y-76309811D01*
X124302409Y-76136638D01*
X125465134Y-76171872D01*
X125557302Y-76309811D01*
X126022849Y-76620880D01*
X126572000Y-76730113D01*
X127121151Y-76620880D01*
X127586698Y-76309811D01*
X127897767Y-75844264D01*
X128007000Y-75295113D01*
X128007000Y-75238887D01*
X127969501Y-75050367D01*
X129057868Y-73962000D01*
X129449695Y-73962000D01*
X129057302Y-74224189D01*
X128746233Y-74689736D01*
X128637000Y-75238887D01*
X128637000Y-75295113D01*
X128746233Y-75844264D01*
X129057302Y-76309811D01*
X129522849Y-76620880D01*
X130072000Y-76730113D01*
X130621151Y-76620880D01*
X131086698Y-76309811D01*
X131275649Y-76027026D01*
X132184650Y-75969128D01*
X132254757Y-76138800D01*
X132658077Y-76542824D01*
X133185309Y-76761750D01*
X133756187Y-76762248D01*
X133808915Y-76740461D01*
X136565822Y-79252310D01*
X135471566Y-80346566D01*
X135290561Y-80617459D01*
X135227000Y-80937000D01*
X135227000Y-95908216D01*
X135056160Y-95978806D01*
X134555564Y-96478529D01*
X134284309Y-97131782D01*
X134283692Y-97839114D01*
X134553806Y-98492840D01*
X134601815Y-98540933D01*
X134497733Y-98540842D01*
X133951405Y-98766580D01*
X133533049Y-99184206D01*
X133507000Y-99246939D01*
X133507000Y-86943151D01*
X134021151Y-86840880D01*
X134486698Y-86529811D01*
X134797767Y-86064264D01*
X134907000Y-85515113D01*
X134907000Y-85458887D01*
X134797767Y-84909736D01*
X134486698Y-84444189D01*
X134021151Y-84133120D01*
X133472000Y-84023887D01*
X132922849Y-84133120D01*
X132457302Y-84444189D01*
X132146233Y-84909736D01*
X132037000Y-85458887D01*
X132037000Y-85515113D01*
X132121735Y-85941107D01*
X131971619Y-86172367D01*
X131943196Y-86243651D01*
X131900561Y-86307459D01*
X131883445Y-86393506D01*
X131850952Y-86474998D01*
X131851972Y-86551732D01*
X131837000Y-86627000D01*
X131837000Y-113097000D01*
X131900561Y-113416541D01*
X131982166Y-113538671D01*
X132081566Y-113687434D01*
X134355197Y-115961065D01*
X134284309Y-116131782D01*
X134283692Y-116839114D01*
X134553806Y-117492840D01*
X134601815Y-117540933D01*
X134497733Y-117540842D01*
X133951405Y-117766580D01*
X133533049Y-118184206D01*
X133306358Y-118730139D01*
X133305842Y-119321267D01*
X133531580Y-119867595D01*
X133949206Y-120285951D01*
X134495139Y-120512642D01*
X135086267Y-120513158D01*
X135632595Y-120287420D01*
X136050951Y-119869794D01*
X136184726Y-119547626D01*
X137242645Y-119547626D01*
X137642028Y-120514207D01*
X138380904Y-121254373D01*
X139346785Y-121655442D01*
X140392626Y-121656355D01*
X141359207Y-121256972D01*
X142099373Y-120518096D01*
X142500442Y-119552215D01*
X142500643Y-119321267D01*
X143465842Y-119321267D01*
X143691580Y-119867595D01*
X144109206Y-120285951D01*
X144655139Y-120512642D01*
X145246267Y-120513158D01*
X145792595Y-120287420D01*
X146210951Y-119869794D01*
X146437642Y-119323861D01*
X146438158Y-118732733D01*
X146212420Y-118186405D01*
X145794794Y-117768049D01*
X145248861Y-117541358D01*
X144657733Y-117540842D01*
X144111405Y-117766580D01*
X143693049Y-118184206D01*
X143466358Y-118730139D01*
X143465842Y-119321267D01*
X142500643Y-119321267D01*
X142501355Y-118506374D01*
X142101972Y-117539793D01*
X141363096Y-116799627D01*
X140397215Y-116398558D01*
X139351374Y-116397645D01*
X138384793Y-116797028D01*
X137644627Y-117535904D01*
X137243558Y-118501785D01*
X137242645Y-119547626D01*
X136184726Y-119547626D01*
X136277642Y-119323861D01*
X136278158Y-118732733D01*
X136084903Y-118265021D01*
X136414114Y-118265308D01*
X137067840Y-117995194D01*
X137568436Y-117495471D01*
X137839691Y-116842218D01*
X137840308Y-116134886D01*
X137570194Y-115481160D01*
X137292483Y-115202963D01*
X141335642Y-115202963D01*
X141451806Y-115484658D01*
X142113333Y-115735062D01*
X142820329Y-115713249D01*
X143372194Y-115484658D01*
X143488358Y-115202963D01*
X142412000Y-114126605D01*
X141335642Y-115202963D01*
X137292483Y-115202963D01*
X137070471Y-114980564D01*
X136417218Y-114709309D01*
X135709886Y-114708692D01*
X135536289Y-114780421D01*
X134404201Y-113648333D01*
X140623938Y-113648333D01*
X140645751Y-114355329D01*
X140874342Y-114907194D01*
X141156037Y-115023358D01*
X142232395Y-113947000D01*
X142591605Y-113947000D01*
X143667963Y-115023358D01*
X143949658Y-114907194D01*
X144200062Y-114245667D01*
X144178249Y-113538671D01*
X143949658Y-112986806D01*
X143667963Y-112870642D01*
X142591605Y-113947000D01*
X142232395Y-113947000D01*
X141156037Y-112870642D01*
X140874342Y-112986806D01*
X140623938Y-113648333D01*
X134404201Y-113648333D01*
X133507000Y-112751132D01*
X133507000Y-112691037D01*
X141335642Y-112691037D01*
X142412000Y-113767395D01*
X143488358Y-112691037D01*
X143372194Y-112409342D01*
X142710667Y-112158938D01*
X142003671Y-112180751D01*
X141451806Y-112409342D01*
X141335642Y-112691037D01*
X133507000Y-112691037D01*
X133507000Y-100808107D01*
X133531580Y-100867595D01*
X133949206Y-101285951D01*
X134495139Y-101512642D01*
X135086267Y-101513158D01*
X135632595Y-101287420D01*
X136050951Y-100869794D01*
X136184726Y-100547626D01*
X137242645Y-100547626D01*
X137642028Y-101514207D01*
X138380904Y-102254373D01*
X139346785Y-102655442D01*
X140392626Y-102656355D01*
X141359207Y-102256972D01*
X142099373Y-101518096D01*
X142500442Y-100552215D01*
X142500643Y-100321267D01*
X143465842Y-100321267D01*
X143691580Y-100867595D01*
X144109206Y-101285951D01*
X144655139Y-101512642D01*
X145246267Y-101513158D01*
X145792595Y-101287420D01*
X146210951Y-100869794D01*
X146437642Y-100323861D01*
X146438158Y-99732733D01*
X146212420Y-99186405D01*
X145794794Y-98768049D01*
X145248861Y-98541358D01*
X144657733Y-98540842D01*
X144111405Y-98766580D01*
X143693049Y-99184206D01*
X143466358Y-99730139D01*
X143465842Y-100321267D01*
X142500643Y-100321267D01*
X142501355Y-99506374D01*
X142101972Y-98539793D01*
X141363096Y-97799627D01*
X140397215Y-97398558D01*
X139351374Y-97397645D01*
X138384793Y-97797028D01*
X137644627Y-98535904D01*
X137243558Y-99501785D01*
X137242645Y-100547626D01*
X136184726Y-100547626D01*
X136277642Y-100323861D01*
X136278158Y-99732733D01*
X136084903Y-99265021D01*
X136414114Y-99265308D01*
X137067840Y-98995194D01*
X137568436Y-98495471D01*
X137839691Y-97842218D01*
X137840308Y-97134886D01*
X137570194Y-96481160D01*
X137292483Y-96202963D01*
X141335642Y-96202963D01*
X141451806Y-96484658D01*
X142113333Y-96735062D01*
X142820329Y-96713249D01*
X143372194Y-96484658D01*
X143488358Y-96202963D01*
X142412000Y-95126605D01*
X141335642Y-96202963D01*
X137292483Y-96202963D01*
X137070471Y-95980564D01*
X136897000Y-95908532D01*
X136897000Y-94648333D01*
X140623938Y-94648333D01*
X140645751Y-95355329D01*
X140874342Y-95907194D01*
X141156037Y-96023358D01*
X142232395Y-94947000D01*
X142591605Y-94947000D01*
X143667963Y-96023358D01*
X143949658Y-95907194D01*
X144200062Y-95245667D01*
X144178249Y-94538671D01*
X143949658Y-93986806D01*
X143667963Y-93870642D01*
X142591605Y-94947000D01*
X142232395Y-94947000D01*
X141156037Y-93870642D01*
X140874342Y-93986806D01*
X140623938Y-94648333D01*
X136897000Y-94648333D01*
X136897000Y-93691037D01*
X141335642Y-93691037D01*
X142412000Y-94767395D01*
X143488358Y-93691037D01*
X143372194Y-93409342D01*
X142710667Y-93158938D01*
X142003671Y-93180751D01*
X141451806Y-93409342D01*
X141335642Y-93691037D01*
X136897000Y-93691037D01*
X136897000Y-84596039D01*
X136980096Y-84596039D01*
X136997633Y-84678819D01*
X137267500Y-85171896D01*
X137705517Y-85524166D01*
X138245000Y-85682000D01*
X138645000Y-85682000D01*
X138645000Y-84374000D01*
X138899000Y-84374000D01*
X138899000Y-85682000D01*
X139299000Y-85682000D01*
X139838483Y-85524166D01*
X140276500Y-85171896D01*
X140546367Y-84678819D01*
X140563904Y-84596039D01*
X140441915Y-84374000D01*
X138899000Y-84374000D01*
X138645000Y-84374000D01*
X137102085Y-84374000D01*
X136980096Y-84596039D01*
X136897000Y-84596039D01*
X136897000Y-81282868D01*
X137007369Y-81172499D01*
X136901050Y-81707000D01*
X137010283Y-82256151D01*
X137321352Y-82721698D01*
X137699707Y-82974507D01*
X137267500Y-83322104D01*
X136997633Y-83815181D01*
X136980096Y-83897961D01*
X137102085Y-84120000D01*
X138645000Y-84120000D01*
X138645000Y-84100000D01*
X138899000Y-84100000D01*
X138899000Y-84120000D01*
X140441915Y-84120000D01*
X140563904Y-83897961D01*
X140546367Y-83815181D01*
X140276500Y-83322104D01*
X139844293Y-82974507D01*
X140222648Y-82721698D01*
X140533717Y-82256151D01*
X140642950Y-81707000D01*
X140533717Y-81157849D01*
X140222648Y-80692302D01*
X139840562Y-80437000D01*
X140222648Y-80181698D01*
X140533717Y-79716151D01*
X140642950Y-79167000D01*
X140533717Y-78617849D01*
X140222648Y-78152302D01*
X140076650Y-78054749D01*
X140207317Y-78030162D01*
X140423441Y-77891090D01*
X140568431Y-77678890D01*
X140619440Y-77427000D01*
X140619440Y-75827000D01*
X140575162Y-75591683D01*
X140436090Y-75375559D01*
X140223890Y-75230569D01*
X139972000Y-75179560D01*
X137572000Y-75179560D01*
X137336683Y-75223838D01*
X137120559Y-75362910D01*
X136975569Y-75575110D01*
X136924560Y-75827000D01*
X136924560Y-77319949D01*
X134906865Y-75481605D01*
X134907248Y-75042813D01*
X134689243Y-74515200D01*
X134285923Y-74111176D01*
X133926668Y-73962000D01*
X140226132Y-73962000D01*
X141937000Y-75672868D01*
X141937000Y-77727000D01*
X142000561Y-78046541D01*
X142131078Y-78241873D01*
X142181566Y-78317434D01*
X143621566Y-79757434D01*
X143892460Y-79938440D01*
X144212000Y-80002000D01*
X144821281Y-80002000D01*
X144941352Y-80181698D01*
X145323438Y-80437000D01*
X144941352Y-80692302D01*
X144630283Y-81157849D01*
X144521050Y-81707000D01*
X144630283Y-82256151D01*
X144941352Y-82721698D01*
X145323438Y-82977000D01*
X144941352Y-83232302D01*
X144630283Y-83697849D01*
X144521050Y-84247000D01*
X144630283Y-84796151D01*
X144941352Y-85261698D01*
X145406899Y-85572767D01*
X145956050Y-85682000D01*
X146827950Y-85682000D01*
X146944146Y-85658887D01*
X149237000Y-85658887D01*
X149237000Y-85715113D01*
X149346233Y-86264264D01*
X149657302Y-86729811D01*
X149837000Y-86849882D01*
X149837000Y-112097000D01*
X149900561Y-112416541D01*
X149960714Y-112506566D01*
X150081566Y-112687434D01*
X153355197Y-115961065D01*
X153284309Y-116131782D01*
X153283692Y-116839114D01*
X153553806Y-117492840D01*
X153601815Y-117540933D01*
X153497733Y-117540842D01*
X152951405Y-117766580D01*
X152533049Y-118184206D01*
X152306358Y-118730139D01*
X152305842Y-119321267D01*
X152531580Y-119867595D01*
X152949206Y-120285951D01*
X153495139Y-120512642D01*
X154086267Y-120513158D01*
X154632595Y-120287420D01*
X155050951Y-119869794D01*
X155184726Y-119547626D01*
X156242645Y-119547626D01*
X156642028Y-120514207D01*
X157380904Y-121254373D01*
X158346785Y-121655442D01*
X159392626Y-121656355D01*
X160359207Y-121256972D01*
X161099373Y-120518096D01*
X161500442Y-119552215D01*
X161500643Y-119321267D01*
X162465842Y-119321267D01*
X162691580Y-119867595D01*
X163109206Y-120285951D01*
X163655139Y-120512642D01*
X164246267Y-120513158D01*
X164792595Y-120287420D01*
X165210951Y-119869794D01*
X165437642Y-119323861D01*
X165438158Y-118732733D01*
X165212420Y-118186405D01*
X164794794Y-117768049D01*
X164248861Y-117541358D01*
X163657733Y-117540842D01*
X163111405Y-117766580D01*
X162693049Y-118184206D01*
X162466358Y-118730139D01*
X162465842Y-119321267D01*
X161500643Y-119321267D01*
X161501355Y-118506374D01*
X161101972Y-117539793D01*
X160363096Y-116799627D01*
X159397215Y-116398558D01*
X158351374Y-116397645D01*
X157384793Y-116797028D01*
X156644627Y-117535904D01*
X156243558Y-118501785D01*
X156242645Y-119547626D01*
X155184726Y-119547626D01*
X155277642Y-119323861D01*
X155278158Y-118732733D01*
X155084903Y-118265021D01*
X155414114Y-118265308D01*
X156067840Y-117995194D01*
X156568436Y-117495471D01*
X156839691Y-116842218D01*
X156840308Y-116134886D01*
X156570194Y-115481160D01*
X156292483Y-115202963D01*
X160335642Y-115202963D01*
X160451806Y-115484658D01*
X161113333Y-115735062D01*
X161820329Y-115713249D01*
X162372194Y-115484658D01*
X162488358Y-115202963D01*
X161412000Y-114126605D01*
X160335642Y-115202963D01*
X156292483Y-115202963D01*
X156070471Y-114980564D01*
X155417218Y-114709309D01*
X154709886Y-114708692D01*
X154536289Y-114780421D01*
X153404201Y-113648333D01*
X159623938Y-113648333D01*
X159645751Y-114355329D01*
X159874342Y-114907194D01*
X160156037Y-115023358D01*
X161232395Y-113947000D01*
X161591605Y-113947000D01*
X162667963Y-115023358D01*
X162949658Y-114907194D01*
X163200062Y-114245667D01*
X163178249Y-113538671D01*
X162949658Y-112986806D01*
X162667963Y-112870642D01*
X161591605Y-113947000D01*
X161232395Y-113947000D01*
X160156037Y-112870642D01*
X159874342Y-112986806D01*
X159623938Y-113648333D01*
X153404201Y-113648333D01*
X152446905Y-112691037D01*
X160335642Y-112691037D01*
X161412000Y-113767395D01*
X162488358Y-112691037D01*
X162372194Y-112409342D01*
X161710667Y-112158938D01*
X161003671Y-112180751D01*
X160451806Y-112409342D01*
X160335642Y-112691037D01*
X152446905Y-112691037D01*
X151507000Y-111751132D01*
X151507000Y-86849882D01*
X151686698Y-86729811D01*
X151997767Y-86264264D01*
X152107000Y-85715113D01*
X152107000Y-85658887D01*
X151997767Y-85109736D01*
X151686698Y-84644189D01*
X151221151Y-84333120D01*
X150672000Y-84223887D01*
X150122849Y-84333120D01*
X149657302Y-84644189D01*
X149346233Y-85109736D01*
X149237000Y-85658887D01*
X146944146Y-85658887D01*
X147377101Y-85572767D01*
X147842648Y-85261698D01*
X148153717Y-84796151D01*
X148262950Y-84247000D01*
X148153717Y-83697849D01*
X147842648Y-83232302D01*
X147460562Y-82977000D01*
X147842648Y-82721698D01*
X148153717Y-82256151D01*
X148262950Y-81707000D01*
X148153717Y-81157849D01*
X147842648Y-80692302D01*
X147460562Y-80437000D01*
X147842648Y-80181698D01*
X148153717Y-79716151D01*
X148262950Y-79167000D01*
X148153717Y-78617849D01*
X147842648Y-78152302D01*
X147460562Y-77897000D01*
X147842648Y-77641698D01*
X148153717Y-77176151D01*
X148262950Y-76627000D01*
X148153717Y-76077849D01*
X147975539Y-75811187D01*
X149236752Y-75811187D01*
X149454757Y-76338800D01*
X149837000Y-76721710D01*
X149837000Y-82187000D01*
X149900561Y-82506541D01*
X150060923Y-82746540D01*
X150081566Y-82777434D01*
X152774499Y-85470367D01*
X152737000Y-85658887D01*
X152737000Y-85715113D01*
X152846233Y-86264264D01*
X153157302Y-86729811D01*
X153337000Y-86849882D01*
X153337000Y-96597000D01*
X153391856Y-96872780D01*
X153284309Y-97131782D01*
X153283692Y-97839114D01*
X153553806Y-98492840D01*
X153601815Y-98540933D01*
X153497733Y-98540842D01*
X152951405Y-98766580D01*
X152533049Y-99184206D01*
X152306358Y-99730139D01*
X152305842Y-100321267D01*
X152531580Y-100867595D01*
X152949206Y-101285951D01*
X153495139Y-101512642D01*
X154086267Y-101513158D01*
X154632595Y-101287420D01*
X155050951Y-100869794D01*
X155184726Y-100547626D01*
X156242645Y-100547626D01*
X156642028Y-101514207D01*
X157380904Y-102254373D01*
X158346785Y-102655442D01*
X159392626Y-102656355D01*
X160359207Y-102256972D01*
X161099373Y-101518096D01*
X161500442Y-100552215D01*
X161500643Y-100321267D01*
X162465842Y-100321267D01*
X162691580Y-100867595D01*
X163109206Y-101285951D01*
X163655139Y-101512642D01*
X164246267Y-101513158D01*
X164792595Y-101287420D01*
X165210951Y-100869794D01*
X165437642Y-100323861D01*
X165438158Y-99732733D01*
X165212420Y-99186405D01*
X164794794Y-98768049D01*
X164248861Y-98541358D01*
X163657733Y-98540842D01*
X163111405Y-98766580D01*
X162693049Y-99184206D01*
X162466358Y-99730139D01*
X162465842Y-100321267D01*
X161500643Y-100321267D01*
X161501355Y-99506374D01*
X161101972Y-98539793D01*
X160363096Y-97799627D01*
X159397215Y-97398558D01*
X158351374Y-97397645D01*
X157384793Y-97797028D01*
X156644627Y-98535904D01*
X156243558Y-99501785D01*
X156242645Y-100547626D01*
X155184726Y-100547626D01*
X155277642Y-100323861D01*
X155278158Y-99732733D01*
X155084903Y-99265021D01*
X155414114Y-99265308D01*
X156067840Y-98995194D01*
X156568436Y-98495471D01*
X156839691Y-97842218D01*
X156840308Y-97134886D01*
X156570194Y-96481160D01*
X156292483Y-96202963D01*
X160335642Y-96202963D01*
X160451806Y-96484658D01*
X161113333Y-96735062D01*
X161820329Y-96713249D01*
X162372194Y-96484658D01*
X162488358Y-96202963D01*
X161412000Y-95126605D01*
X160335642Y-96202963D01*
X156292483Y-96202963D01*
X156070471Y-95980564D01*
X155417218Y-95709309D01*
X155007000Y-95708951D01*
X155007000Y-94648333D01*
X159623938Y-94648333D01*
X159645751Y-95355329D01*
X159874342Y-95907194D01*
X160156037Y-96023358D01*
X161232395Y-94947000D01*
X161591605Y-94947000D01*
X162667963Y-96023358D01*
X162949658Y-95907194D01*
X163200062Y-95245667D01*
X163178249Y-94538671D01*
X162949658Y-93986806D01*
X162667963Y-93870642D01*
X161591605Y-94947000D01*
X161232395Y-94947000D01*
X160156037Y-93870642D01*
X159874342Y-93986806D01*
X159623938Y-94648333D01*
X155007000Y-94648333D01*
X155007000Y-93691037D01*
X160335642Y-93691037D01*
X161412000Y-94767395D01*
X162488358Y-93691037D01*
X162372194Y-93409342D01*
X161710667Y-93158938D01*
X161003671Y-93180751D01*
X160451806Y-93409342D01*
X160335642Y-93691037D01*
X155007000Y-93691037D01*
X155007000Y-86849882D01*
X155186698Y-86729811D01*
X155497767Y-86264264D01*
X155607000Y-85715113D01*
X155607000Y-85658887D01*
X155497767Y-85109736D01*
X155186698Y-84644189D01*
X154721151Y-84333120D01*
X154172000Y-84223887D01*
X153936582Y-84270714D01*
X151792868Y-82127000D01*
X158555948Y-82127000D01*
X158662288Y-82661609D01*
X158965120Y-83114828D01*
X159357487Y-83377000D01*
X158965120Y-83639172D01*
X158662288Y-84092391D01*
X158555948Y-84627000D01*
X158662288Y-85161609D01*
X158965120Y-85614828D01*
X159418339Y-85917660D01*
X159952948Y-86024000D01*
X160391052Y-86024000D01*
X160925661Y-85917660D01*
X161378880Y-85614828D01*
X161681712Y-85161609D01*
X161788052Y-84627000D01*
X161681712Y-84092391D01*
X161378880Y-83639172D01*
X160986513Y-83377000D01*
X161378880Y-83114828D01*
X161681712Y-82661609D01*
X161788052Y-82127000D01*
X161681712Y-81592391D01*
X161378880Y-81139172D01*
X160925661Y-80836340D01*
X160391052Y-80730000D01*
X159952948Y-80730000D01*
X159418339Y-80836340D01*
X158965120Y-81139172D01*
X158662288Y-81592391D01*
X158555948Y-82127000D01*
X151792868Y-82127000D01*
X151507000Y-81841132D01*
X151507000Y-79973723D01*
X163779926Y-79973723D01*
X163946632Y-80494365D01*
X164299889Y-80911579D01*
X164785917Y-81161849D01*
X164828930Y-81169220D01*
X165045000Y-81046720D01*
X165045000Y-79754000D01*
X165299000Y-79754000D01*
X165299000Y-81046720D01*
X165515070Y-81169220D01*
X165558083Y-81161849D01*
X166044111Y-80911579D01*
X166397368Y-80494365D01*
X166564074Y-79973723D01*
X166413015Y-79754000D01*
X165299000Y-79754000D01*
X165045000Y-79754000D01*
X163930985Y-79754000D01*
X163779926Y-79973723D01*
X151507000Y-79973723D01*
X151507000Y-79280277D01*
X163779926Y-79280277D01*
X163930985Y-79500000D01*
X165045000Y-79500000D01*
X165045000Y-78207280D01*
X165299000Y-78207280D01*
X165299000Y-79500000D01*
X166413015Y-79500000D01*
X166564074Y-79280277D01*
X166397368Y-78759635D01*
X166044111Y-78342421D01*
X165558083Y-78092151D01*
X165515070Y-78084780D01*
X165299000Y-78207280D01*
X165045000Y-78207280D01*
X164828930Y-78084780D01*
X164785917Y-78092151D01*
X164299889Y-78342421D01*
X163946632Y-78759635D01*
X163779926Y-79280277D01*
X151507000Y-79280277D01*
X151507000Y-76721083D01*
X151887824Y-76340923D01*
X152106750Y-75813691D01*
X152106752Y-75811187D01*
X152736752Y-75811187D01*
X152954757Y-76338800D01*
X153358077Y-76742824D01*
X153885309Y-76961750D01*
X154456187Y-76962248D01*
X154983800Y-76744243D01*
X155387824Y-76340923D01*
X155606750Y-75813691D01*
X155607248Y-75242813D01*
X155389243Y-74715200D01*
X155301197Y-74627000D01*
X158555948Y-74627000D01*
X158662288Y-75161609D01*
X158965120Y-75614828D01*
X159357487Y-75877000D01*
X158965120Y-76139172D01*
X158662288Y-76592391D01*
X158555948Y-77127000D01*
X158662288Y-77661609D01*
X158965120Y-78114828D01*
X159418339Y-78417660D01*
X159952948Y-78524000D01*
X160391052Y-78524000D01*
X160925661Y-78417660D01*
X161378880Y-78114828D01*
X161681712Y-77661609D01*
X161788052Y-77127000D01*
X161681712Y-76592391D01*
X161378880Y-76139172D01*
X160986513Y-75877000D01*
X161378880Y-75614828D01*
X161681712Y-75161609D01*
X161788052Y-74627000D01*
X161681712Y-74092391D01*
X161378880Y-73639172D01*
X160925661Y-73336340D01*
X160391052Y-73230000D01*
X159952948Y-73230000D01*
X159418339Y-73336340D01*
X158965120Y-73639172D01*
X158662288Y-74092391D01*
X158555948Y-74627000D01*
X155301197Y-74627000D01*
X154985923Y-74311176D01*
X154458691Y-74092250D01*
X153887813Y-74091752D01*
X153360200Y-74309757D01*
X152956176Y-74713077D01*
X152737250Y-75240309D01*
X152736752Y-75811187D01*
X152106752Y-75811187D01*
X152107248Y-75242813D01*
X151889243Y-74715200D01*
X151485923Y-74311176D01*
X150958691Y-74092250D01*
X150387813Y-74091752D01*
X149860200Y-74309757D01*
X149456176Y-74713077D01*
X149237250Y-75240309D01*
X149236752Y-75811187D01*
X147975539Y-75811187D01*
X147842648Y-75612302D01*
X147377101Y-75301233D01*
X146827950Y-75192000D01*
X145956050Y-75192000D01*
X145406899Y-75301233D01*
X144941352Y-75612302D01*
X144630283Y-76077849D01*
X144521050Y-76627000D01*
X144630283Y-77176151D01*
X144941352Y-77641698D01*
X145323438Y-77897000D01*
X144941352Y-78152302D01*
X144821281Y-78332000D01*
X144557868Y-78332000D01*
X143607000Y-77381132D01*
X143607000Y-75327000D01*
X143543439Y-75007459D01*
X143362434Y-74736566D01*
X141162434Y-72536566D01*
X140891541Y-72355561D01*
X140572000Y-72292000D01*
X128712000Y-72292000D01*
X128392459Y-72355561D01*
X128121566Y-72536566D01*
X126807418Y-73850714D01*
X126572000Y-73803887D01*
X126022849Y-73913120D01*
X125557302Y-74224189D01*
X125374115Y-74498347D01*
X124349131Y-74467287D01*
X124186698Y-74224189D01*
X123721151Y-73913120D01*
X123172000Y-73803887D01*
X122622849Y-73913120D01*
X122157302Y-74224189D01*
X121846233Y-74689736D01*
X121737000Y-75238887D01*
X121737000Y-75295113D01*
X121846233Y-75844264D01*
X122157302Y-76309811D01*
X122337000Y-76429882D01*
X122337000Y-79181132D01*
X119681566Y-81836566D01*
X119500561Y-82107459D01*
X119437000Y-82427000D01*
X119437000Y-93931132D01*
X117587935Y-95780197D01*
X117417218Y-95709309D01*
X116709886Y-95708692D01*
X116056160Y-95978806D01*
X115555564Y-96478529D01*
X115284309Y-97131782D01*
X115283692Y-97839114D01*
X115553806Y-98492840D01*
X115601815Y-98540933D01*
X115497733Y-98540842D01*
X114951405Y-98766580D01*
X114533049Y-99184206D01*
X114306358Y-99730139D01*
X114305842Y-100321267D01*
X110582000Y-100321267D01*
X110582000Y-86312000D01*
X111486250Y-86312000D01*
X111645000Y-86153250D01*
X111645000Y-84804000D01*
X111899000Y-84804000D01*
X111899000Y-86153250D01*
X112057750Y-86312000D01*
X113148309Y-86312000D01*
X113381698Y-86215327D01*
X113560327Y-86036699D01*
X113657000Y-85803310D01*
X113657000Y-84962750D01*
X115387000Y-84962750D01*
X115387000Y-85803310D01*
X115483673Y-86036699D01*
X115662302Y-86215327D01*
X115895691Y-86312000D01*
X116986250Y-86312000D01*
X117145000Y-86153250D01*
X117145000Y-84804000D01*
X117399000Y-84804000D01*
X117399000Y-86153250D01*
X117557750Y-86312000D01*
X118648309Y-86312000D01*
X118881698Y-86215327D01*
X119060327Y-86036699D01*
X119157000Y-85803310D01*
X119157000Y-84962750D01*
X118998250Y-84804000D01*
X117399000Y-84804000D01*
X117145000Y-84804000D01*
X115545750Y-84804000D01*
X115387000Y-84962750D01*
X113657000Y-84962750D01*
X113498250Y-84804000D01*
X111899000Y-84804000D01*
X111645000Y-84804000D01*
X111625000Y-84804000D01*
X111625000Y-84550000D01*
X111645000Y-84550000D01*
X111645000Y-83200750D01*
X111899000Y-83200750D01*
X111899000Y-84550000D01*
X113498250Y-84550000D01*
X113657000Y-84391250D01*
X113657000Y-83550690D01*
X115387000Y-83550690D01*
X115387000Y-84391250D01*
X115545750Y-84550000D01*
X117145000Y-84550000D01*
X117145000Y-83200750D01*
X117399000Y-83200750D01*
X117399000Y-84550000D01*
X118998250Y-84550000D01*
X119157000Y-84391250D01*
X119157000Y-83550690D01*
X119060327Y-83317301D01*
X118881698Y-83138673D01*
X118648309Y-83042000D01*
X117557750Y-83042000D01*
X117399000Y-83200750D01*
X117145000Y-83200750D01*
X116986250Y-83042000D01*
X115895691Y-83042000D01*
X115662302Y-83138673D01*
X115483673Y-83317301D01*
X115387000Y-83550690D01*
X113657000Y-83550690D01*
X113560327Y-83317301D01*
X113381698Y-83138673D01*
X113148309Y-83042000D01*
X112057750Y-83042000D01*
X111899000Y-83200750D01*
X111645000Y-83200750D01*
X111486250Y-83042000D01*
X110582000Y-83042000D01*
X110582000Y-78241873D01*
X113686812Y-78241873D01*
X113851646Y-78640800D01*
X114156595Y-78946282D01*
X114555233Y-79111811D01*
X114986873Y-79112188D01*
X115385800Y-78947354D01*
X115574560Y-78758923D01*
X115574560Y-78877000D01*
X115603821Y-79032507D01*
X115574560Y-79177000D01*
X115574560Y-79677000D01*
X115603821Y-79832507D01*
X115574560Y-79977000D01*
X115574560Y-80477000D01*
X115603821Y-80632507D01*
X115574560Y-80777000D01*
X115574560Y-81277000D01*
X115600919Y-81417086D01*
X115587000Y-81450690D01*
X115587000Y-81543250D01*
X115732134Y-81688384D01*
X115739607Y-81699998D01*
X115587000Y-81699998D01*
X115587000Y-81707662D01*
X115387405Y-81507718D01*
X114988767Y-81342189D01*
X114557127Y-81341812D01*
X114158200Y-81506646D01*
X113852718Y-81811595D01*
X113687189Y-82210233D01*
X113686812Y-82641873D01*
X113851646Y-83040800D01*
X114156595Y-83346282D01*
X114555233Y-83511811D01*
X114986873Y-83512188D01*
X115385800Y-83347354D01*
X115691282Y-83042405D01*
X115856811Y-82643767D01*
X115856841Y-82609866D01*
X115862302Y-82615327D01*
X116095691Y-82712000D01*
X117086250Y-82712000D01*
X117245000Y-82553250D01*
X117245000Y-81952000D01*
X117499000Y-81952000D01*
X117499000Y-82553250D01*
X117657750Y-82712000D01*
X118648309Y-82712000D01*
X118881698Y-82615327D01*
X119060327Y-82436699D01*
X119157000Y-82203310D01*
X119157000Y-82110750D01*
X118998250Y-81952000D01*
X117499000Y-81952000D01*
X117245000Y-81952000D01*
X117225000Y-81952000D01*
X117225000Y-81924440D01*
X118522000Y-81924440D01*
X118757317Y-81880162D01*
X118973441Y-81741090D01*
X119004249Y-81696001D01*
X119157000Y-81543250D01*
X119157000Y-81450690D01*
X119141732Y-81413829D01*
X119169440Y-81277000D01*
X119169440Y-80777000D01*
X119140179Y-80621493D01*
X119169440Y-80477000D01*
X119169440Y-79977000D01*
X119140179Y-79821493D01*
X119169440Y-79677000D01*
X119169440Y-79462000D01*
X119284581Y-79462000D01*
X119341673Y-79519192D01*
X119685201Y-79661838D01*
X120057167Y-79662162D01*
X120400943Y-79520117D01*
X120664192Y-79257327D01*
X120806838Y-78913799D01*
X120807162Y-78541833D01*
X120665117Y-78198057D01*
X120402327Y-77934808D01*
X120058799Y-77792162D01*
X119686833Y-77791838D01*
X119686441Y-77792000D01*
X118790620Y-77792000D01*
X118773890Y-77780569D01*
X118522000Y-77729560D01*
X116222000Y-77729560D01*
X115986683Y-77773838D01*
X115857149Y-77857191D01*
X115857188Y-77812127D01*
X115692354Y-77413200D01*
X115387405Y-77107718D01*
X114988767Y-76942189D01*
X114557127Y-76941812D01*
X114158200Y-77106646D01*
X113852718Y-77411595D01*
X113687189Y-77810233D01*
X113686812Y-78241873D01*
X110582000Y-78241873D01*
X110582000Y-77412000D01*
X111486250Y-77412000D01*
X111645000Y-77253250D01*
X111645000Y-75904000D01*
X111899000Y-75904000D01*
X111899000Y-77253250D01*
X112057750Y-77412000D01*
X113148309Y-77412000D01*
X113381698Y-77315327D01*
X113560327Y-77136699D01*
X113657000Y-76903310D01*
X113657000Y-76062750D01*
X115387000Y-76062750D01*
X115387000Y-76903310D01*
X115483673Y-77136699D01*
X115662302Y-77315327D01*
X115895691Y-77412000D01*
X116986250Y-77412000D01*
X117145000Y-77253250D01*
X117145000Y-75904000D01*
X117399000Y-75904000D01*
X117399000Y-77253250D01*
X117557750Y-77412000D01*
X118648309Y-77412000D01*
X118881698Y-77315327D01*
X119060327Y-77136699D01*
X119157000Y-76903310D01*
X119157000Y-76062750D01*
X118998250Y-75904000D01*
X117399000Y-75904000D01*
X117145000Y-75904000D01*
X115545750Y-75904000D01*
X115387000Y-76062750D01*
X113657000Y-76062750D01*
X113498250Y-75904000D01*
X111899000Y-75904000D01*
X111645000Y-75904000D01*
X111625000Y-75904000D01*
X111625000Y-75650000D01*
X111645000Y-75650000D01*
X111645000Y-74300750D01*
X111899000Y-74300750D01*
X111899000Y-75650000D01*
X113498250Y-75650000D01*
X113657000Y-75491250D01*
X113657000Y-74650690D01*
X115387000Y-74650690D01*
X115387000Y-75491250D01*
X115545750Y-75650000D01*
X117145000Y-75650000D01*
X117145000Y-74300750D01*
X117399000Y-74300750D01*
X117399000Y-75650000D01*
X118998250Y-75650000D01*
X119157000Y-75491250D01*
X119157000Y-74650690D01*
X119060327Y-74417301D01*
X118881698Y-74238673D01*
X118648309Y-74142000D01*
X117557750Y-74142000D01*
X117399000Y-74300750D01*
X117145000Y-74300750D01*
X116986250Y-74142000D01*
X115895691Y-74142000D01*
X115662302Y-74238673D01*
X115483673Y-74417301D01*
X115387000Y-74650690D01*
X113657000Y-74650690D01*
X113560327Y-74417301D01*
X113381698Y-74238673D01*
X113148309Y-74142000D01*
X112057750Y-74142000D01*
X111899000Y-74300750D01*
X111645000Y-74300750D01*
X111486250Y-74142000D01*
X110582000Y-74142000D01*
X110582000Y-72237000D01*
X168962000Y-72237000D01*
X168962000Y-76917000D01*
X168962000Y-76917000D01*
G37*
X168962000Y-76917000D02*
X168472000Y-76917000D01*
X168200295Y-76971046D01*
X168007301Y-77100000D01*
X167872000Y-77100000D01*
X167822590Y-77110006D01*
X167780965Y-77138447D01*
X167753685Y-77180841D01*
X167745000Y-77227000D01*
X167745000Y-82327000D01*
X167755006Y-82376410D01*
X167783447Y-82418035D01*
X167825841Y-82445315D01*
X167872000Y-82454000D01*
X168962000Y-82454000D01*
X168962000Y-130317000D01*
X110582000Y-130317000D01*
X110582000Y-119321267D01*
X114305842Y-119321267D01*
X114531580Y-119867595D01*
X114949206Y-120285951D01*
X115495139Y-120512642D01*
X116086267Y-120513158D01*
X116632595Y-120287420D01*
X117050951Y-119869794D01*
X117184726Y-119547626D01*
X118242645Y-119547626D01*
X118642028Y-120514207D01*
X119380904Y-121254373D01*
X120346785Y-121655442D01*
X121392626Y-121656355D01*
X122359207Y-121256972D01*
X123099373Y-120518096D01*
X123500442Y-119552215D01*
X123500643Y-119321267D01*
X124465842Y-119321267D01*
X124691580Y-119867595D01*
X125109206Y-120285951D01*
X125655139Y-120512642D01*
X126246267Y-120513158D01*
X126792595Y-120287420D01*
X127210951Y-119869794D01*
X127437642Y-119323861D01*
X127438158Y-118732733D01*
X127212420Y-118186405D01*
X126794794Y-117768049D01*
X126248861Y-117541358D01*
X125657733Y-117540842D01*
X125111405Y-117766580D01*
X124693049Y-118184206D01*
X124466358Y-118730139D01*
X124465842Y-119321267D01*
X123500643Y-119321267D01*
X123501355Y-118506374D01*
X123101972Y-117539793D01*
X122363096Y-116799627D01*
X121397215Y-116398558D01*
X120351374Y-116397645D01*
X119384793Y-116797028D01*
X118644627Y-117535904D01*
X118243558Y-118501785D01*
X118242645Y-119547626D01*
X117184726Y-119547626D01*
X117277642Y-119323861D01*
X117278158Y-118732733D01*
X117084903Y-118265021D01*
X117414114Y-118265308D01*
X118067840Y-117995194D01*
X118568436Y-117495471D01*
X118839691Y-116842218D01*
X118840308Y-116134886D01*
X118768579Y-115961289D01*
X119526905Y-115202963D01*
X122335642Y-115202963D01*
X122451806Y-115484658D01*
X123113333Y-115735062D01*
X123820329Y-115713249D01*
X124372194Y-115484658D01*
X124488358Y-115202963D01*
X123412000Y-114126605D01*
X122335642Y-115202963D01*
X119526905Y-115202963D01*
X121081535Y-113648333D01*
X121623938Y-113648333D01*
X121645751Y-114355329D01*
X121874342Y-114907194D01*
X122156037Y-115023358D01*
X123232395Y-113947000D01*
X123591605Y-113947000D01*
X124667963Y-115023358D01*
X124949658Y-114907194D01*
X125200062Y-114245667D01*
X125178249Y-113538671D01*
X124949658Y-112986806D01*
X124667963Y-112870642D01*
X123591605Y-113947000D01*
X123232395Y-113947000D01*
X122156037Y-112870642D01*
X121874342Y-112986806D01*
X121623938Y-113648333D01*
X121081535Y-113648333D01*
X122038831Y-112691037D01*
X122335642Y-112691037D01*
X123412000Y-113767395D01*
X124488358Y-112691037D01*
X124372194Y-112409342D01*
X123710667Y-112158938D01*
X123003671Y-112180751D01*
X122451806Y-112409342D01*
X122335642Y-112691037D01*
X122038831Y-112691037D01*
X128762434Y-105967434D01*
X128943440Y-105696540D01*
X129007000Y-105377000D01*
X129007000Y-92227000D01*
X128943439Y-91907459D01*
X128762434Y-91636566D01*
X124007000Y-86881132D01*
X124007000Y-86621083D01*
X124387824Y-86240923D01*
X124606750Y-85713691D01*
X124606752Y-85711187D01*
X125136752Y-85711187D01*
X125354757Y-86238800D01*
X125758077Y-86642824D01*
X126285309Y-86861750D01*
X126856187Y-86862248D01*
X127383800Y-86644243D01*
X127787824Y-86240923D01*
X128006750Y-85713691D01*
X128006752Y-85711187D01*
X128636752Y-85711187D01*
X128854757Y-86238800D01*
X129258077Y-86642824D01*
X129785309Y-86861750D01*
X130356187Y-86862248D01*
X130883800Y-86644243D01*
X131287824Y-86240923D01*
X131506750Y-85713691D01*
X131507248Y-85142813D01*
X131289243Y-84615200D01*
X130885923Y-84211176D01*
X130358691Y-83992250D01*
X129787813Y-83991752D01*
X129260200Y-84209757D01*
X128856176Y-84613077D01*
X128637250Y-85140309D01*
X128636752Y-85711187D01*
X128006752Y-85711187D01*
X128007248Y-85142813D01*
X127789243Y-84615200D01*
X127385923Y-84211176D01*
X126858691Y-83992250D01*
X126287813Y-83991752D01*
X125760200Y-84209757D01*
X125356176Y-84613077D01*
X125137250Y-85140309D01*
X125136752Y-85711187D01*
X124606752Y-85711187D01*
X124607248Y-85142813D01*
X124389243Y-84615200D01*
X123985923Y-84211176D01*
X123458691Y-83992250D01*
X122887813Y-83991752D01*
X122360200Y-84209757D01*
X121956176Y-84613077D01*
X121737250Y-85140309D01*
X121736752Y-85711187D01*
X121954757Y-86238800D01*
X122337000Y-86621710D01*
X122337000Y-87227000D01*
X122400561Y-87546541D01*
X122581566Y-87817434D01*
X127337000Y-92572868D01*
X127337000Y-99487912D01*
X127212420Y-99186405D01*
X126794794Y-98768049D01*
X126248861Y-98541358D01*
X125657733Y-98540842D01*
X125111405Y-98766580D01*
X124693049Y-99184206D01*
X124466358Y-99730139D01*
X124465842Y-100321267D01*
X124691580Y-100867595D01*
X125109206Y-101285951D01*
X125655139Y-101512642D01*
X126246267Y-101513158D01*
X126792595Y-101287420D01*
X127210951Y-100869794D01*
X127337000Y-100566234D01*
X127337000Y-105031132D01*
X117587935Y-114780197D01*
X117417218Y-114709309D01*
X116709886Y-114708692D01*
X116056160Y-114978806D01*
X115555564Y-115478529D01*
X115284309Y-116131782D01*
X115283692Y-116839114D01*
X115553806Y-117492840D01*
X115601815Y-117540933D01*
X115497733Y-117540842D01*
X114951405Y-117766580D01*
X114533049Y-118184206D01*
X114306358Y-118730139D01*
X114305842Y-119321267D01*
X110582000Y-119321267D01*
X110582000Y-100321267D01*
X114305842Y-100321267D01*
X114531580Y-100867595D01*
X114949206Y-101285951D01*
X115495139Y-101512642D01*
X116086267Y-101513158D01*
X116632595Y-101287420D01*
X117050951Y-100869794D01*
X117184726Y-100547626D01*
X118242645Y-100547626D01*
X118642028Y-101514207D01*
X119380904Y-102254373D01*
X120346785Y-102655442D01*
X121392626Y-102656355D01*
X122359207Y-102256972D01*
X123099373Y-101518096D01*
X123500442Y-100552215D01*
X123501355Y-99506374D01*
X123101972Y-98539793D01*
X122363096Y-97799627D01*
X121397215Y-97398558D01*
X120351374Y-97397645D01*
X119384793Y-97797028D01*
X118644627Y-98535904D01*
X118243558Y-99501785D01*
X118242645Y-100547626D01*
X117184726Y-100547626D01*
X117277642Y-100323861D01*
X117278158Y-99732733D01*
X117084903Y-99265021D01*
X117414114Y-99265308D01*
X118067840Y-98995194D01*
X118568436Y-98495471D01*
X118839691Y-97842218D01*
X118840308Y-97134886D01*
X118768579Y-96961289D01*
X119526905Y-96202963D01*
X122335642Y-96202963D01*
X122451806Y-96484658D01*
X123113333Y-96735062D01*
X123820329Y-96713249D01*
X124372194Y-96484658D01*
X124488358Y-96202963D01*
X123412000Y-95126605D01*
X122335642Y-96202963D01*
X119526905Y-96202963D01*
X120862434Y-94867434D01*
X121008832Y-94648333D01*
X121623938Y-94648333D01*
X121645751Y-95355329D01*
X121874342Y-95907194D01*
X122156037Y-96023358D01*
X123232395Y-94947000D01*
X123591605Y-94947000D01*
X124667963Y-96023358D01*
X124949658Y-95907194D01*
X125200062Y-95245667D01*
X125178249Y-94538671D01*
X124949658Y-93986806D01*
X124667963Y-93870642D01*
X123591605Y-94947000D01*
X123232395Y-94947000D01*
X122156037Y-93870642D01*
X121874342Y-93986806D01*
X121623938Y-94648333D01*
X121008832Y-94648333D01*
X121043440Y-94596540D01*
X121107000Y-94277000D01*
X121107000Y-93691037D01*
X122335642Y-93691037D01*
X123412000Y-94767395D01*
X124488358Y-93691037D01*
X124372194Y-93409342D01*
X123710667Y-93158938D01*
X123003671Y-93180751D01*
X122451806Y-93409342D01*
X122335642Y-93691037D01*
X121107000Y-93691037D01*
X121107000Y-82772868D01*
X123762434Y-80117434D01*
X123772747Y-80102000D01*
X123943439Y-79846541D01*
X124007000Y-79527000D01*
X124007000Y-76429882D01*
X124186698Y-76309811D01*
X124302409Y-76136638D01*
X125465134Y-76171872D01*
X125557302Y-76309811D01*
X126022849Y-76620880D01*
X126572000Y-76730113D01*
X127121151Y-76620880D01*
X127586698Y-76309811D01*
X127897767Y-75844264D01*
X128007000Y-75295113D01*
X128007000Y-75238887D01*
X127969501Y-75050367D01*
X129057868Y-73962000D01*
X129449695Y-73962000D01*
X129057302Y-74224189D01*
X128746233Y-74689736D01*
X128637000Y-75238887D01*
X128637000Y-75295113D01*
X128746233Y-75844264D01*
X129057302Y-76309811D01*
X129522849Y-76620880D01*
X130072000Y-76730113D01*
X130621151Y-76620880D01*
X131086698Y-76309811D01*
X131275649Y-76027026D01*
X132184650Y-75969128D01*
X132254757Y-76138800D01*
X132658077Y-76542824D01*
X133185309Y-76761750D01*
X133756187Y-76762248D01*
X133808915Y-76740461D01*
X136565822Y-79252310D01*
X135471566Y-80346566D01*
X135290561Y-80617459D01*
X135227000Y-80937000D01*
X135227000Y-95908216D01*
X135056160Y-95978806D01*
X134555564Y-96478529D01*
X134284309Y-97131782D01*
X134283692Y-97839114D01*
X134553806Y-98492840D01*
X134601815Y-98540933D01*
X134497733Y-98540842D01*
X133951405Y-98766580D01*
X133533049Y-99184206D01*
X133507000Y-99246939D01*
X133507000Y-86943151D01*
X134021151Y-86840880D01*
X134486698Y-86529811D01*
X134797767Y-86064264D01*
X134907000Y-85515113D01*
X134907000Y-85458887D01*
X134797767Y-84909736D01*
X134486698Y-84444189D01*
X134021151Y-84133120D01*
X133472000Y-84023887D01*
X132922849Y-84133120D01*
X132457302Y-84444189D01*
X132146233Y-84909736D01*
X132037000Y-85458887D01*
X132037000Y-85515113D01*
X132121735Y-85941107D01*
X131971619Y-86172367D01*
X131943196Y-86243651D01*
X131900561Y-86307459D01*
X131883445Y-86393506D01*
X131850952Y-86474998D01*
X131851972Y-86551732D01*
X131837000Y-86627000D01*
X131837000Y-113097000D01*
X131900561Y-113416541D01*
X131982166Y-113538671D01*
X132081566Y-113687434D01*
X134355197Y-115961065D01*
X134284309Y-116131782D01*
X134283692Y-116839114D01*
X134553806Y-117492840D01*
X134601815Y-117540933D01*
X134497733Y-117540842D01*
X133951405Y-117766580D01*
X133533049Y-118184206D01*
X133306358Y-118730139D01*
X133305842Y-119321267D01*
X133531580Y-119867595D01*
X133949206Y-120285951D01*
X134495139Y-120512642D01*
X135086267Y-120513158D01*
X135632595Y-120287420D01*
X136050951Y-119869794D01*
X136184726Y-119547626D01*
X137242645Y-119547626D01*
X137642028Y-120514207D01*
X138380904Y-121254373D01*
X139346785Y-121655442D01*
X140392626Y-121656355D01*
X141359207Y-121256972D01*
X142099373Y-120518096D01*
X142500442Y-119552215D01*
X142500643Y-119321267D01*
X143465842Y-119321267D01*
X143691580Y-119867595D01*
X144109206Y-120285951D01*
X144655139Y-120512642D01*
X145246267Y-120513158D01*
X145792595Y-120287420D01*
X146210951Y-119869794D01*
X146437642Y-119323861D01*
X146438158Y-118732733D01*
X146212420Y-118186405D01*
X145794794Y-117768049D01*
X145248861Y-117541358D01*
X144657733Y-117540842D01*
X144111405Y-117766580D01*
X143693049Y-118184206D01*
X143466358Y-118730139D01*
X143465842Y-119321267D01*
X142500643Y-119321267D01*
X142501355Y-118506374D01*
X142101972Y-117539793D01*
X141363096Y-116799627D01*
X140397215Y-116398558D01*
X139351374Y-116397645D01*
X138384793Y-116797028D01*
X137644627Y-117535904D01*
X137243558Y-118501785D01*
X137242645Y-119547626D01*
X136184726Y-119547626D01*
X136277642Y-119323861D01*
X136278158Y-118732733D01*
X136084903Y-118265021D01*
X136414114Y-118265308D01*
X137067840Y-117995194D01*
X137568436Y-117495471D01*
X137839691Y-116842218D01*
X137840308Y-116134886D01*
X137570194Y-115481160D01*
X137292483Y-115202963D01*
X141335642Y-115202963D01*
X141451806Y-115484658D01*
X142113333Y-115735062D01*
X142820329Y-115713249D01*
X143372194Y-115484658D01*
X143488358Y-115202963D01*
X142412000Y-114126605D01*
X141335642Y-115202963D01*
X137292483Y-115202963D01*
X137070471Y-114980564D01*
X136417218Y-114709309D01*
X135709886Y-114708692D01*
X135536289Y-114780421D01*
X134404201Y-113648333D01*
X140623938Y-113648333D01*
X140645751Y-114355329D01*
X140874342Y-114907194D01*
X141156037Y-115023358D01*
X142232395Y-113947000D01*
X142591605Y-113947000D01*
X143667963Y-115023358D01*
X143949658Y-114907194D01*
X144200062Y-114245667D01*
X144178249Y-113538671D01*
X143949658Y-112986806D01*
X143667963Y-112870642D01*
X142591605Y-113947000D01*
X142232395Y-113947000D01*
X141156037Y-112870642D01*
X140874342Y-112986806D01*
X140623938Y-113648333D01*
X134404201Y-113648333D01*
X133507000Y-112751132D01*
X133507000Y-112691037D01*
X141335642Y-112691037D01*
X142412000Y-113767395D01*
X143488358Y-112691037D01*
X143372194Y-112409342D01*
X142710667Y-112158938D01*
X142003671Y-112180751D01*
X141451806Y-112409342D01*
X141335642Y-112691037D01*
X133507000Y-112691037D01*
X133507000Y-100808107D01*
X133531580Y-100867595D01*
X133949206Y-101285951D01*
X134495139Y-101512642D01*
X135086267Y-101513158D01*
X135632595Y-101287420D01*
X136050951Y-100869794D01*
X136184726Y-100547626D01*
X137242645Y-100547626D01*
X137642028Y-101514207D01*
X138380904Y-102254373D01*
X139346785Y-102655442D01*
X140392626Y-102656355D01*
X141359207Y-102256972D01*
X142099373Y-101518096D01*
X142500442Y-100552215D01*
X142500643Y-100321267D01*
X143465842Y-100321267D01*
X143691580Y-100867595D01*
X144109206Y-101285951D01*
X144655139Y-101512642D01*
X145246267Y-101513158D01*
X145792595Y-101287420D01*
X146210951Y-100869794D01*
X146437642Y-100323861D01*
X146438158Y-99732733D01*
X146212420Y-99186405D01*
X145794794Y-98768049D01*
X145248861Y-98541358D01*
X144657733Y-98540842D01*
X144111405Y-98766580D01*
X143693049Y-99184206D01*
X143466358Y-99730139D01*
X143465842Y-100321267D01*
X142500643Y-100321267D01*
X142501355Y-99506374D01*
X142101972Y-98539793D01*
X141363096Y-97799627D01*
X140397215Y-97398558D01*
X139351374Y-97397645D01*
X138384793Y-97797028D01*
X137644627Y-98535904D01*
X137243558Y-99501785D01*
X137242645Y-100547626D01*
X136184726Y-100547626D01*
X136277642Y-100323861D01*
X136278158Y-99732733D01*
X136084903Y-99265021D01*
X136414114Y-99265308D01*
X137067840Y-98995194D01*
X137568436Y-98495471D01*
X137839691Y-97842218D01*
X137840308Y-97134886D01*
X137570194Y-96481160D01*
X137292483Y-96202963D01*
X141335642Y-96202963D01*
X141451806Y-96484658D01*
X142113333Y-96735062D01*
X142820329Y-96713249D01*
X143372194Y-96484658D01*
X143488358Y-96202963D01*
X142412000Y-95126605D01*
X141335642Y-96202963D01*
X137292483Y-96202963D01*
X137070471Y-95980564D01*
X136897000Y-95908532D01*
X136897000Y-94648333D01*
X140623938Y-94648333D01*
X140645751Y-95355329D01*
X140874342Y-95907194D01*
X141156037Y-96023358D01*
X142232395Y-94947000D01*
X142591605Y-94947000D01*
X143667963Y-96023358D01*
X143949658Y-95907194D01*
X144200062Y-95245667D01*
X144178249Y-94538671D01*
X143949658Y-93986806D01*
X143667963Y-93870642D01*
X142591605Y-94947000D01*
X142232395Y-94947000D01*
X141156037Y-93870642D01*
X140874342Y-93986806D01*
X140623938Y-94648333D01*
X136897000Y-94648333D01*
X136897000Y-93691037D01*
X141335642Y-93691037D01*
X142412000Y-94767395D01*
X143488358Y-93691037D01*
X143372194Y-93409342D01*
X142710667Y-93158938D01*
X142003671Y-93180751D01*
X141451806Y-93409342D01*
X141335642Y-93691037D01*
X136897000Y-93691037D01*
X136897000Y-84596039D01*
X136980096Y-84596039D01*
X136997633Y-84678819D01*
X137267500Y-85171896D01*
X137705517Y-85524166D01*
X138245000Y-85682000D01*
X138645000Y-85682000D01*
X138645000Y-84374000D01*
X138899000Y-84374000D01*
X138899000Y-85682000D01*
X139299000Y-85682000D01*
X139838483Y-85524166D01*
X140276500Y-85171896D01*
X140546367Y-84678819D01*
X140563904Y-84596039D01*
X140441915Y-84374000D01*
X138899000Y-84374000D01*
X138645000Y-84374000D01*
X137102085Y-84374000D01*
X136980096Y-84596039D01*
X136897000Y-84596039D01*
X136897000Y-81282868D01*
X137007369Y-81172499D01*
X136901050Y-81707000D01*
X137010283Y-82256151D01*
X137321352Y-82721698D01*
X137699707Y-82974507D01*
X137267500Y-83322104D01*
X136997633Y-83815181D01*
X136980096Y-83897961D01*
X137102085Y-84120000D01*
X138645000Y-84120000D01*
X138645000Y-84100000D01*
X138899000Y-84100000D01*
X138899000Y-84120000D01*
X140441915Y-84120000D01*
X140563904Y-83897961D01*
X140546367Y-83815181D01*
X140276500Y-83322104D01*
X139844293Y-82974507D01*
X140222648Y-82721698D01*
X140533717Y-82256151D01*
X140642950Y-81707000D01*
X140533717Y-81157849D01*
X140222648Y-80692302D01*
X139840562Y-80437000D01*
X140222648Y-80181698D01*
X140533717Y-79716151D01*
X140642950Y-79167000D01*
X140533717Y-78617849D01*
X140222648Y-78152302D01*
X140076650Y-78054749D01*
X140207317Y-78030162D01*
X140423441Y-77891090D01*
X140568431Y-77678890D01*
X140619440Y-77427000D01*
X140619440Y-75827000D01*
X140575162Y-75591683D01*
X140436090Y-75375559D01*
X140223890Y-75230569D01*
X139972000Y-75179560D01*
X137572000Y-75179560D01*
X137336683Y-75223838D01*
X137120559Y-75362910D01*
X136975569Y-75575110D01*
X136924560Y-75827000D01*
X136924560Y-77319949D01*
X134906865Y-75481605D01*
X134907248Y-75042813D01*
X134689243Y-74515200D01*
X134285923Y-74111176D01*
X133926668Y-73962000D01*
X140226132Y-73962000D01*
X141937000Y-75672868D01*
X141937000Y-77727000D01*
X142000561Y-78046541D01*
X142131078Y-78241873D01*
X142181566Y-78317434D01*
X143621566Y-79757434D01*
X143892460Y-79938440D01*
X144212000Y-80002000D01*
X144821281Y-80002000D01*
X144941352Y-80181698D01*
X145323438Y-80437000D01*
X144941352Y-80692302D01*
X144630283Y-81157849D01*
X144521050Y-81707000D01*
X144630283Y-82256151D01*
X144941352Y-82721698D01*
X145323438Y-82977000D01*
X144941352Y-83232302D01*
X144630283Y-83697849D01*
X144521050Y-84247000D01*
X144630283Y-84796151D01*
X144941352Y-85261698D01*
X145406899Y-85572767D01*
X145956050Y-85682000D01*
X146827950Y-85682000D01*
X146944146Y-85658887D01*
X149237000Y-85658887D01*
X149237000Y-85715113D01*
X149346233Y-86264264D01*
X149657302Y-86729811D01*
X149837000Y-86849882D01*
X149837000Y-112097000D01*
X149900561Y-112416541D01*
X149960714Y-112506566D01*
X150081566Y-112687434D01*
X153355197Y-115961065D01*
X153284309Y-116131782D01*
X153283692Y-116839114D01*
X153553806Y-117492840D01*
X153601815Y-117540933D01*
X153497733Y-117540842D01*
X152951405Y-117766580D01*
X152533049Y-118184206D01*
X152306358Y-118730139D01*
X152305842Y-119321267D01*
X152531580Y-119867595D01*
X152949206Y-120285951D01*
X153495139Y-120512642D01*
X154086267Y-120513158D01*
X154632595Y-120287420D01*
X155050951Y-119869794D01*
X155184726Y-119547626D01*
X156242645Y-119547626D01*
X156642028Y-120514207D01*
X157380904Y-121254373D01*
X158346785Y-121655442D01*
X159392626Y-121656355D01*
X160359207Y-121256972D01*
X161099373Y-120518096D01*
X161500442Y-119552215D01*
X161500643Y-119321267D01*
X162465842Y-119321267D01*
X162691580Y-119867595D01*
X163109206Y-120285951D01*
X163655139Y-120512642D01*
X164246267Y-120513158D01*
X164792595Y-120287420D01*
X165210951Y-119869794D01*
X165437642Y-119323861D01*
X165438158Y-118732733D01*
X165212420Y-118186405D01*
X164794794Y-117768049D01*
X164248861Y-117541358D01*
X163657733Y-117540842D01*
X163111405Y-117766580D01*
X162693049Y-118184206D01*
X162466358Y-118730139D01*
X162465842Y-119321267D01*
X161500643Y-119321267D01*
X161501355Y-118506374D01*
X161101972Y-117539793D01*
X160363096Y-116799627D01*
X159397215Y-116398558D01*
X158351374Y-116397645D01*
X157384793Y-116797028D01*
X156644627Y-117535904D01*
X156243558Y-118501785D01*
X156242645Y-119547626D01*
X155184726Y-119547626D01*
X155277642Y-119323861D01*
X155278158Y-118732733D01*
X155084903Y-118265021D01*
X155414114Y-118265308D01*
X156067840Y-117995194D01*
X156568436Y-117495471D01*
X156839691Y-116842218D01*
X156840308Y-116134886D01*
X156570194Y-115481160D01*
X156292483Y-115202963D01*
X160335642Y-115202963D01*
X160451806Y-115484658D01*
X161113333Y-115735062D01*
X161820329Y-115713249D01*
X162372194Y-115484658D01*
X162488358Y-115202963D01*
X161412000Y-114126605D01*
X160335642Y-115202963D01*
X156292483Y-115202963D01*
X156070471Y-114980564D01*
X155417218Y-114709309D01*
X154709886Y-114708692D01*
X154536289Y-114780421D01*
X153404201Y-113648333D01*
X159623938Y-113648333D01*
X159645751Y-114355329D01*
X159874342Y-114907194D01*
X160156037Y-115023358D01*
X161232395Y-113947000D01*
X161591605Y-113947000D01*
X162667963Y-115023358D01*
X162949658Y-114907194D01*
X163200062Y-114245667D01*
X163178249Y-113538671D01*
X162949658Y-112986806D01*
X162667963Y-112870642D01*
X161591605Y-113947000D01*
X161232395Y-113947000D01*
X160156037Y-112870642D01*
X159874342Y-112986806D01*
X159623938Y-113648333D01*
X153404201Y-113648333D01*
X152446905Y-112691037D01*
X160335642Y-112691037D01*
X161412000Y-113767395D01*
X162488358Y-112691037D01*
X162372194Y-112409342D01*
X161710667Y-112158938D01*
X161003671Y-112180751D01*
X160451806Y-112409342D01*
X160335642Y-112691037D01*
X152446905Y-112691037D01*
X151507000Y-111751132D01*
X151507000Y-86849882D01*
X151686698Y-86729811D01*
X151997767Y-86264264D01*
X152107000Y-85715113D01*
X152107000Y-85658887D01*
X151997767Y-85109736D01*
X151686698Y-84644189D01*
X151221151Y-84333120D01*
X150672000Y-84223887D01*
X150122849Y-84333120D01*
X149657302Y-84644189D01*
X149346233Y-85109736D01*
X149237000Y-85658887D01*
X146944146Y-85658887D01*
X147377101Y-85572767D01*
X147842648Y-85261698D01*
X148153717Y-84796151D01*
X148262950Y-84247000D01*
X148153717Y-83697849D01*
X147842648Y-83232302D01*
X147460562Y-82977000D01*
X147842648Y-82721698D01*
X148153717Y-82256151D01*
X148262950Y-81707000D01*
X148153717Y-81157849D01*
X147842648Y-80692302D01*
X147460562Y-80437000D01*
X147842648Y-80181698D01*
X148153717Y-79716151D01*
X148262950Y-79167000D01*
X148153717Y-78617849D01*
X147842648Y-78152302D01*
X147460562Y-77897000D01*
X147842648Y-77641698D01*
X148153717Y-77176151D01*
X148262950Y-76627000D01*
X148153717Y-76077849D01*
X147975539Y-75811187D01*
X149236752Y-75811187D01*
X149454757Y-76338800D01*
X149837000Y-76721710D01*
X149837000Y-82187000D01*
X149900561Y-82506541D01*
X150060923Y-82746540D01*
X150081566Y-82777434D01*
X152774499Y-85470367D01*
X152737000Y-85658887D01*
X152737000Y-85715113D01*
X152846233Y-86264264D01*
X153157302Y-86729811D01*
X153337000Y-86849882D01*
X153337000Y-96597000D01*
X153391856Y-96872780D01*
X153284309Y-97131782D01*
X153283692Y-97839114D01*
X153553806Y-98492840D01*
X153601815Y-98540933D01*
X153497733Y-98540842D01*
X152951405Y-98766580D01*
X152533049Y-99184206D01*
X152306358Y-99730139D01*
X152305842Y-100321267D01*
X152531580Y-100867595D01*
X152949206Y-101285951D01*
X153495139Y-101512642D01*
X154086267Y-101513158D01*
X154632595Y-101287420D01*
X155050951Y-100869794D01*
X155184726Y-100547626D01*
X156242645Y-100547626D01*
X156642028Y-101514207D01*
X157380904Y-102254373D01*
X158346785Y-102655442D01*
X159392626Y-102656355D01*
X160359207Y-102256972D01*
X161099373Y-101518096D01*
X161500442Y-100552215D01*
X161500643Y-100321267D01*
X162465842Y-100321267D01*
X162691580Y-100867595D01*
X163109206Y-101285951D01*
X163655139Y-101512642D01*
X164246267Y-101513158D01*
X164792595Y-101287420D01*
X165210951Y-100869794D01*
X165437642Y-100323861D01*
X165438158Y-99732733D01*
X165212420Y-99186405D01*
X164794794Y-98768049D01*
X164248861Y-98541358D01*
X163657733Y-98540842D01*
X163111405Y-98766580D01*
X162693049Y-99184206D01*
X162466358Y-99730139D01*
X162465842Y-100321267D01*
X161500643Y-100321267D01*
X161501355Y-99506374D01*
X161101972Y-98539793D01*
X160363096Y-97799627D01*
X159397215Y-97398558D01*
X158351374Y-97397645D01*
X157384793Y-97797028D01*
X156644627Y-98535904D01*
X156243558Y-99501785D01*
X156242645Y-100547626D01*
X155184726Y-100547626D01*
X155277642Y-100323861D01*
X155278158Y-99732733D01*
X155084903Y-99265021D01*
X155414114Y-99265308D01*
X156067840Y-98995194D01*
X156568436Y-98495471D01*
X156839691Y-97842218D01*
X156840308Y-97134886D01*
X156570194Y-96481160D01*
X156292483Y-96202963D01*
X160335642Y-96202963D01*
X160451806Y-96484658D01*
X161113333Y-96735062D01*
X161820329Y-96713249D01*
X162372194Y-96484658D01*
X162488358Y-96202963D01*
X161412000Y-95126605D01*
X160335642Y-96202963D01*
X156292483Y-96202963D01*
X156070471Y-95980564D01*
X155417218Y-95709309D01*
X155007000Y-95708951D01*
X155007000Y-94648333D01*
X159623938Y-94648333D01*
X159645751Y-95355329D01*
X159874342Y-95907194D01*
X160156037Y-96023358D01*
X161232395Y-94947000D01*
X161591605Y-94947000D01*
X162667963Y-96023358D01*
X162949658Y-95907194D01*
X163200062Y-95245667D01*
X163178249Y-94538671D01*
X162949658Y-93986806D01*
X162667963Y-93870642D01*
X161591605Y-94947000D01*
X161232395Y-94947000D01*
X160156037Y-93870642D01*
X159874342Y-93986806D01*
X159623938Y-94648333D01*
X155007000Y-94648333D01*
X155007000Y-93691037D01*
X160335642Y-93691037D01*
X161412000Y-94767395D01*
X162488358Y-93691037D01*
X162372194Y-93409342D01*
X161710667Y-93158938D01*
X161003671Y-93180751D01*
X160451806Y-93409342D01*
X160335642Y-93691037D01*
X155007000Y-93691037D01*
X155007000Y-86849882D01*
X155186698Y-86729811D01*
X155497767Y-86264264D01*
X155607000Y-85715113D01*
X155607000Y-85658887D01*
X155497767Y-85109736D01*
X155186698Y-84644189D01*
X154721151Y-84333120D01*
X154172000Y-84223887D01*
X153936582Y-84270714D01*
X151792868Y-82127000D01*
X158555948Y-82127000D01*
X158662288Y-82661609D01*
X158965120Y-83114828D01*
X159357487Y-83377000D01*
X158965120Y-83639172D01*
X158662288Y-84092391D01*
X158555948Y-84627000D01*
X158662288Y-85161609D01*
X158965120Y-85614828D01*
X159418339Y-85917660D01*
X159952948Y-86024000D01*
X160391052Y-86024000D01*
X160925661Y-85917660D01*
X161378880Y-85614828D01*
X161681712Y-85161609D01*
X161788052Y-84627000D01*
X161681712Y-84092391D01*
X161378880Y-83639172D01*
X160986513Y-83377000D01*
X161378880Y-83114828D01*
X161681712Y-82661609D01*
X161788052Y-82127000D01*
X161681712Y-81592391D01*
X161378880Y-81139172D01*
X160925661Y-80836340D01*
X160391052Y-80730000D01*
X159952948Y-80730000D01*
X159418339Y-80836340D01*
X158965120Y-81139172D01*
X158662288Y-81592391D01*
X158555948Y-82127000D01*
X151792868Y-82127000D01*
X151507000Y-81841132D01*
X151507000Y-79973723D01*
X163779926Y-79973723D01*
X163946632Y-80494365D01*
X164299889Y-80911579D01*
X164785917Y-81161849D01*
X164828930Y-81169220D01*
X165045000Y-81046720D01*
X165045000Y-79754000D01*
X165299000Y-79754000D01*
X165299000Y-81046720D01*
X165515070Y-81169220D01*
X165558083Y-81161849D01*
X166044111Y-80911579D01*
X166397368Y-80494365D01*
X166564074Y-79973723D01*
X166413015Y-79754000D01*
X165299000Y-79754000D01*
X165045000Y-79754000D01*
X163930985Y-79754000D01*
X163779926Y-79973723D01*
X151507000Y-79973723D01*
X151507000Y-79280277D01*
X163779926Y-79280277D01*
X163930985Y-79500000D01*
X165045000Y-79500000D01*
X165045000Y-78207280D01*
X165299000Y-78207280D01*
X165299000Y-79500000D01*
X166413015Y-79500000D01*
X166564074Y-79280277D01*
X166397368Y-78759635D01*
X166044111Y-78342421D01*
X165558083Y-78092151D01*
X165515070Y-78084780D01*
X165299000Y-78207280D01*
X165045000Y-78207280D01*
X164828930Y-78084780D01*
X164785917Y-78092151D01*
X164299889Y-78342421D01*
X163946632Y-78759635D01*
X163779926Y-79280277D01*
X151507000Y-79280277D01*
X151507000Y-76721083D01*
X151887824Y-76340923D01*
X152106750Y-75813691D01*
X152106752Y-75811187D01*
X152736752Y-75811187D01*
X152954757Y-76338800D01*
X153358077Y-76742824D01*
X153885309Y-76961750D01*
X154456187Y-76962248D01*
X154983800Y-76744243D01*
X155387824Y-76340923D01*
X155606750Y-75813691D01*
X155607248Y-75242813D01*
X155389243Y-74715200D01*
X155301197Y-74627000D01*
X158555948Y-74627000D01*
X158662288Y-75161609D01*
X158965120Y-75614828D01*
X159357487Y-75877000D01*
X158965120Y-76139172D01*
X158662288Y-76592391D01*
X158555948Y-77127000D01*
X158662288Y-77661609D01*
X158965120Y-78114828D01*
X159418339Y-78417660D01*
X159952948Y-78524000D01*
X160391052Y-78524000D01*
X160925661Y-78417660D01*
X161378880Y-78114828D01*
X161681712Y-77661609D01*
X161788052Y-77127000D01*
X161681712Y-76592391D01*
X161378880Y-76139172D01*
X160986513Y-75877000D01*
X161378880Y-75614828D01*
X161681712Y-75161609D01*
X161788052Y-74627000D01*
X161681712Y-74092391D01*
X161378880Y-73639172D01*
X160925661Y-73336340D01*
X160391052Y-73230000D01*
X159952948Y-73230000D01*
X159418339Y-73336340D01*
X158965120Y-73639172D01*
X158662288Y-74092391D01*
X158555948Y-74627000D01*
X155301197Y-74627000D01*
X154985923Y-74311176D01*
X154458691Y-74092250D01*
X153887813Y-74091752D01*
X153360200Y-74309757D01*
X152956176Y-74713077D01*
X152737250Y-75240309D01*
X152736752Y-75811187D01*
X152106752Y-75811187D01*
X152107248Y-75242813D01*
X151889243Y-74715200D01*
X151485923Y-74311176D01*
X150958691Y-74092250D01*
X150387813Y-74091752D01*
X149860200Y-74309757D01*
X149456176Y-74713077D01*
X149237250Y-75240309D01*
X149236752Y-75811187D01*
X147975539Y-75811187D01*
X147842648Y-75612302D01*
X147377101Y-75301233D01*
X146827950Y-75192000D01*
X145956050Y-75192000D01*
X145406899Y-75301233D01*
X144941352Y-75612302D01*
X144630283Y-76077849D01*
X144521050Y-76627000D01*
X144630283Y-77176151D01*
X144941352Y-77641698D01*
X145323438Y-77897000D01*
X144941352Y-78152302D01*
X144821281Y-78332000D01*
X144557868Y-78332000D01*
X143607000Y-77381132D01*
X143607000Y-75327000D01*
X143543439Y-75007459D01*
X143362434Y-74736566D01*
X141162434Y-72536566D01*
X140891541Y-72355561D01*
X140572000Y-72292000D01*
X128712000Y-72292000D01*
X128392459Y-72355561D01*
X128121566Y-72536566D01*
X126807418Y-73850714D01*
X126572000Y-73803887D01*
X126022849Y-73913120D01*
X125557302Y-74224189D01*
X125374115Y-74498347D01*
X124349131Y-74467287D01*
X124186698Y-74224189D01*
X123721151Y-73913120D01*
X123172000Y-73803887D01*
X122622849Y-73913120D01*
X122157302Y-74224189D01*
X121846233Y-74689736D01*
X121737000Y-75238887D01*
X121737000Y-75295113D01*
X121846233Y-75844264D01*
X122157302Y-76309811D01*
X122337000Y-76429882D01*
X122337000Y-79181132D01*
X119681566Y-81836566D01*
X119500561Y-82107459D01*
X119437000Y-82427000D01*
X119437000Y-93931132D01*
X117587935Y-95780197D01*
X117417218Y-95709309D01*
X116709886Y-95708692D01*
X116056160Y-95978806D01*
X115555564Y-96478529D01*
X115284309Y-97131782D01*
X115283692Y-97839114D01*
X115553806Y-98492840D01*
X115601815Y-98540933D01*
X115497733Y-98540842D01*
X114951405Y-98766580D01*
X114533049Y-99184206D01*
X114306358Y-99730139D01*
X114305842Y-100321267D01*
X110582000Y-100321267D01*
X110582000Y-86312000D01*
X111486250Y-86312000D01*
X111645000Y-86153250D01*
X111645000Y-84804000D01*
X111899000Y-84804000D01*
X111899000Y-86153250D01*
X112057750Y-86312000D01*
X113148309Y-86312000D01*
X113381698Y-86215327D01*
X113560327Y-86036699D01*
X113657000Y-85803310D01*
X113657000Y-84962750D01*
X115387000Y-84962750D01*
X115387000Y-85803310D01*
X115483673Y-86036699D01*
X115662302Y-86215327D01*
X115895691Y-86312000D01*
X116986250Y-86312000D01*
X117145000Y-86153250D01*
X117145000Y-84804000D01*
X117399000Y-84804000D01*
X117399000Y-86153250D01*
X117557750Y-86312000D01*
X118648309Y-86312000D01*
X118881698Y-86215327D01*
X119060327Y-86036699D01*
X119157000Y-85803310D01*
X119157000Y-84962750D01*
X118998250Y-84804000D01*
X117399000Y-84804000D01*
X117145000Y-84804000D01*
X115545750Y-84804000D01*
X115387000Y-84962750D01*
X113657000Y-84962750D01*
X113498250Y-84804000D01*
X111899000Y-84804000D01*
X111645000Y-84804000D01*
X111625000Y-84804000D01*
X111625000Y-84550000D01*
X111645000Y-84550000D01*
X111645000Y-83200750D01*
X111899000Y-83200750D01*
X111899000Y-84550000D01*
X113498250Y-84550000D01*
X113657000Y-84391250D01*
X113657000Y-83550690D01*
X115387000Y-83550690D01*
X115387000Y-84391250D01*
X115545750Y-84550000D01*
X117145000Y-84550000D01*
X117145000Y-83200750D01*
X117399000Y-83200750D01*
X117399000Y-84550000D01*
X118998250Y-84550000D01*
X119157000Y-84391250D01*
X119157000Y-83550690D01*
X119060327Y-83317301D01*
X118881698Y-83138673D01*
X118648309Y-83042000D01*
X117557750Y-83042000D01*
X117399000Y-83200750D01*
X117145000Y-83200750D01*
X116986250Y-83042000D01*
X115895691Y-83042000D01*
X115662302Y-83138673D01*
X115483673Y-83317301D01*
X115387000Y-83550690D01*
X113657000Y-83550690D01*
X113560327Y-83317301D01*
X113381698Y-83138673D01*
X113148309Y-83042000D01*
X112057750Y-83042000D01*
X111899000Y-83200750D01*
X111645000Y-83200750D01*
X111486250Y-83042000D01*
X110582000Y-83042000D01*
X110582000Y-78241873D01*
X113686812Y-78241873D01*
X113851646Y-78640800D01*
X114156595Y-78946282D01*
X114555233Y-79111811D01*
X114986873Y-79112188D01*
X115385800Y-78947354D01*
X115574560Y-78758923D01*
X115574560Y-78877000D01*
X115603821Y-79032507D01*
X115574560Y-79177000D01*
X115574560Y-79677000D01*
X115603821Y-79832507D01*
X115574560Y-79977000D01*
X115574560Y-80477000D01*
X115603821Y-80632507D01*
X115574560Y-80777000D01*
X115574560Y-81277000D01*
X115600919Y-81417086D01*
X115587000Y-81450690D01*
X115587000Y-81543250D01*
X115732134Y-81688384D01*
X115739607Y-81699998D01*
X115587000Y-81699998D01*
X115587000Y-81707662D01*
X115387405Y-81507718D01*
X114988767Y-81342189D01*
X114557127Y-81341812D01*
X114158200Y-81506646D01*
X113852718Y-81811595D01*
X113687189Y-82210233D01*
X113686812Y-82641873D01*
X113851646Y-83040800D01*
X114156595Y-83346282D01*
X114555233Y-83511811D01*
X114986873Y-83512188D01*
X115385800Y-83347354D01*
X115691282Y-83042405D01*
X115856811Y-82643767D01*
X115856841Y-82609866D01*
X115862302Y-82615327D01*
X116095691Y-82712000D01*
X117086250Y-82712000D01*
X117245000Y-82553250D01*
X117245000Y-81952000D01*
X117499000Y-81952000D01*
X117499000Y-82553250D01*
X117657750Y-82712000D01*
X118648309Y-82712000D01*
X118881698Y-82615327D01*
X119060327Y-82436699D01*
X119157000Y-82203310D01*
X119157000Y-82110750D01*
X118998250Y-81952000D01*
X117499000Y-81952000D01*
X117245000Y-81952000D01*
X117225000Y-81952000D01*
X117225000Y-81924440D01*
X118522000Y-81924440D01*
X118757317Y-81880162D01*
X118973441Y-81741090D01*
X119004249Y-81696001D01*
X119157000Y-81543250D01*
X119157000Y-81450690D01*
X119141732Y-81413829D01*
X119169440Y-81277000D01*
X119169440Y-80777000D01*
X119140179Y-80621493D01*
X119169440Y-80477000D01*
X119169440Y-79977000D01*
X119140179Y-79821493D01*
X119169440Y-79677000D01*
X119169440Y-79462000D01*
X119284581Y-79462000D01*
X119341673Y-79519192D01*
X119685201Y-79661838D01*
X120057167Y-79662162D01*
X120400943Y-79520117D01*
X120664192Y-79257327D01*
X120806838Y-78913799D01*
X120807162Y-78541833D01*
X120665117Y-78198057D01*
X120402327Y-77934808D01*
X120058799Y-77792162D01*
X119686833Y-77791838D01*
X119686441Y-77792000D01*
X118790620Y-77792000D01*
X118773890Y-77780569D01*
X118522000Y-77729560D01*
X116222000Y-77729560D01*
X115986683Y-77773838D01*
X115857149Y-77857191D01*
X115857188Y-77812127D01*
X115692354Y-77413200D01*
X115387405Y-77107718D01*
X114988767Y-76942189D01*
X114557127Y-76941812D01*
X114158200Y-77106646D01*
X113852718Y-77411595D01*
X113687189Y-77810233D01*
X113686812Y-78241873D01*
X110582000Y-78241873D01*
X110582000Y-77412000D01*
X111486250Y-77412000D01*
X111645000Y-77253250D01*
X111645000Y-75904000D01*
X111899000Y-75904000D01*
X111899000Y-77253250D01*
X112057750Y-77412000D01*
X113148309Y-77412000D01*
X113381698Y-77315327D01*
X113560327Y-77136699D01*
X113657000Y-76903310D01*
X113657000Y-76062750D01*
X115387000Y-76062750D01*
X115387000Y-76903310D01*
X115483673Y-77136699D01*
X115662302Y-77315327D01*
X115895691Y-77412000D01*
X116986250Y-77412000D01*
X117145000Y-77253250D01*
X117145000Y-75904000D01*
X117399000Y-75904000D01*
X117399000Y-77253250D01*
X117557750Y-77412000D01*
X118648309Y-77412000D01*
X118881698Y-77315327D01*
X119060327Y-77136699D01*
X119157000Y-76903310D01*
X119157000Y-76062750D01*
X118998250Y-75904000D01*
X117399000Y-75904000D01*
X117145000Y-75904000D01*
X115545750Y-75904000D01*
X115387000Y-76062750D01*
X113657000Y-76062750D01*
X113498250Y-75904000D01*
X111899000Y-75904000D01*
X111645000Y-75904000D01*
X111625000Y-75904000D01*
X111625000Y-75650000D01*
X111645000Y-75650000D01*
X111645000Y-74300750D01*
X111899000Y-74300750D01*
X111899000Y-75650000D01*
X113498250Y-75650000D01*
X113657000Y-75491250D01*
X113657000Y-74650690D01*
X115387000Y-74650690D01*
X115387000Y-75491250D01*
X115545750Y-75650000D01*
X117145000Y-75650000D01*
X117145000Y-74300750D01*
X117399000Y-74300750D01*
X117399000Y-75650000D01*
X118998250Y-75650000D01*
X119157000Y-75491250D01*
X119157000Y-74650690D01*
X119060327Y-74417301D01*
X118881698Y-74238673D01*
X118648309Y-74142000D01*
X117557750Y-74142000D01*
X117399000Y-74300750D01*
X117145000Y-74300750D01*
X116986250Y-74142000D01*
X115895691Y-74142000D01*
X115662302Y-74238673D01*
X115483673Y-74417301D01*
X115387000Y-74650690D01*
X113657000Y-74650690D01*
X113560327Y-74417301D01*
X113381698Y-74238673D01*
X113148309Y-74142000D01*
X112057750Y-74142000D01*
X111899000Y-74300750D01*
X111645000Y-74300750D01*
X111486250Y-74142000D01*
X110582000Y-74142000D01*
X110582000Y-72237000D01*
X168962000Y-72237000D01*
X168962000Y-76917000D01*
M02*
